<?xml version="1.0" encoding="utf-8"?>
<!-- Generator: Adobe Illustrator 16.0.0, SVG Export Plug-In . SVG Version: 6.00 Build 0)  -->
<!DOCTYPE svg PUBLIC "-//W3C//DTD SVG 1.1//EN" "http://www.w3.org/Graphics/SVG/1.1/DTD/svg11.dtd">
<svg version="1.1" id="Capa_1" xmlns="http://www.w3.org/2000/svg" xmlns:xlink="http://www.w3.org/1999/xlink" x="0px" y="0px"
	 width="720px" height="1600px" viewBox="0 0 720 1600" enable-background="new 0 0 720 1600" xml:space="preserve">
<path fill-rule="evenodd" clip-rule="evenodd" fill="#FFFFFF" d="M-351,201c-26.51,0-48,21.49-48,48s21.49,48,48,48s48-21.49,48-48
	S-324.49,201-351,201z M-333.566,251.428c-5.602,7-11.209,13.995-16.8,21.004c-1.665,2.086-3.785,3.216-6.678,3.275
	c-2.597-0.124-4.793-1.318-6.143-3.807c-1.401-2.583-1.234-5.176,0.386-7.613c3.049-4.588,6.145-9.145,9.222-13.715
	c1.101-1.634,1.101-1.633-0.003-3.272c-3.077-4.569-6.179-9.123-9.222-13.715c-3.008-4.541-0.524-10.412,4.83-11.298
	c3.075-0.509,5.605,0.67,7.55,3.091c2.4,2.989,4.792,5.985,7.186,8.979c3.224,4.029,6.445,8.062,9.672,12.089
	C-331.95,248.459-331.947,249.405-333.566,251.428z"/>
</svg>
