<?xml version="1.0" encoding="utf-8"?>
<!-- Generator: Adobe Illustrator 16.0.0, SVG Export Plug-In . SVG Version: 6.00 Build 0)  -->
<!DOCTYPE svg PUBLIC "-//W3C//DTD SVG 1.1//EN" "http://www.w3.org/Graphics/SVG/1.1/DTD/svg11.dtd">
<svg version="1.1" id="Capa_1" xmlns="http://www.w3.org/2000/svg" xmlns:xlink="http://www.w3.org/1999/xlink" x="0px" y="0px"
	 width="50px" height="50px" viewBox="0 0 50 50" enable-background="new 0 0 50 50" xml:space="preserve">
<path fill="#FFFFFF" d="M42.713,7.329c-9.772-9.772-25.614-9.772-35.385,0c-9.771,9.771-9.771,25.612,0,35.384
	c9.771,9.771,25.612,9.771,35.385,0C52.483,32.941,52.483,17.1,42.713,7.329z M32.354,14.423c0,0.221-0.179,0.399-0.399,0.399h-3.18
	c-0.78,0-1.413,0.633-1.413,1.412v3.331h4.522c0.234,0,0.418,0.199,0.398,0.433l-0.396,4.692c-0.018,0.207-0.19,0.366-0.398,0.366
	h-4.126V40.63c0,0.218-0.178,0.399-0.398,0.399h-5.691c-0.22,0-0.399-0.179-0.399-0.399V25.304v-0.249h-2.845
	c-0.221,0-0.4-0.18-0.4-0.399v-4.693c0-0.221,0.179-0.399,0.4-0.399h2.845V15.04c0-3.154,2.556-5.709,5.708-5.709h5.373
	c0.221,0,0.399,0.178,0.399,0.399V14.423L32.354,14.423z"/>
</svg>
