<?xml version="1.0" encoding="utf-8"?>
<!-- Generator: Adobe Illustrator 16.0.0, SVG Export Plug-In . SVG Version: 6.00 Build 0)  -->
<!DOCTYPE svg PUBLIC "-//W3C//DTD SVG 1.1//EN" "http://www.w3.org/Graphics/SVG/1.1/DTD/svg11.dtd">
<svg version="1.1" id="Capa_1" xmlns="http://www.w3.org/2000/svg" xmlns:xlink="http://www.w3.org/1999/xlink" x="0px" y="0px"
	 width="50px" height="50px" viewBox="0 0 50 50" enable-background="new 0 0 50 50" xml:space="preserve">
<g>
	<path fill="#FFFFFF" d="M31.42,11.453H18.307c-3.736,0-6.775,3.039-6.775,6.775v13.113c0,3.735,3.039,6.775,6.775,6.775H31.42
		c3.735,0,6.775-3.04,6.775-6.775V18.228C38.195,14.492,35.155,11.453,31.42,11.453z M24.998,32.872
		c-4.459,0-8.088-3.627-8.088-8.087s3.629-8.088,8.088-8.088c4.46,0,8.088,3.627,8.088,8.088S29.458,32.872,24.998,32.872z
		 M33.559,18.078c-1.063,0-1.926-0.863-1.926-1.926c0-1.063,0.862-1.925,1.926-1.925s1.925,0.862,1.925,1.925
		C35.483,17.215,34.622,18.078,33.559,18.078z"/>
	<path fill="#FFFFFF" d="M24.785,0C11.097,0,0,11.096,0,24.785c0,13.688,11.097,24.785,24.785,24.785s24.785-11.097,24.785-24.785
		C49.569,11.096,38.473,0,24.785,0z M41.285,31.341c0,5.439-4.426,9.865-9.865,9.865H18.307c-5.439,0-9.865-4.426-9.865-9.865
		V18.228c0-5.44,4.425-9.865,9.865-9.865H31.42c5.439,0,9.865,4.425,9.865,9.865V31.341z"/>
	<path fill="#FFFFFF" d="M24.998,19.604c-2.856,0-5.181,2.324-5.181,5.181c0,2.857,2.325,5.181,5.181,5.181
		c2.857,0,5.181-2.324,5.181-5.181C30.179,21.927,27.855,19.604,24.998,19.604z"/>
</g>
</svg>
