<?xml version="1.0" encoding="utf-8"?>
<!-- Generator: Adobe Illustrator 16.0.0, SVG Export Plug-In . SVG Version: 6.00 Build 0)  -->
<!DOCTYPE svg PUBLIC "-//W3C//DTD SVG 1.1//EN" "http://www.w3.org/Graphics/SVG/1.1/DTD/svg11.dtd">
<svg version="1.1" id="Capa_1" xmlns="http://www.w3.org/2000/svg" xmlns:xlink="http://www.w3.org/1999/xlink" x="0px" y="0px"
	 width="895px" height="230px" viewBox="0 0 895 230" enable-background="new 0 0 895 230" xml:space="preserve">
<path fill="#FFFFFF" d="M625.373,35.14c-13.837-17.962-41.061-7.369-41.061,10.875c0-18.244-27.224-28.838-41.06-10.875
	c-14.3,18.565-0.21,51.092,41.06,69.774C625.578,86.232,639.672,53.706,625.373,35.14z"/>
<path fill="#FFFFFF" d="M401.269,25.397l32.302,79.986h-22.354l-4.41-11.689h-31.482l-4.409,11.689H348.56l32.405-79.986H401.269z
	 M391.119,51.65l-8.822,23.482h17.537L391.119,51.65z"/>
<path fill="#FFFFFF" d="M442.802,105.383V25.397h20.611l23.07,50.555l23.176-50.555h20.612v79.986h-20.405V67.749l-16.613,34.56
	H479.82l-16.614-34.56v37.635H442.802L442.802,105.383z"/>
<path fill="#FFFFFF" d="M677.423,25.397c5.128,0,9.572,0.769,13.332,2.308c3.759,1.539,6.87,3.64,9.331,6.307
	c2.462,2.666,4.292,5.777,5.486,9.332c1.195,3.555,1.797,7.316,1.797,11.279c0,2.803-0.327,5.539-0.977,8.204
	s-1.623,5.143-2.923,7.436c-1.298,2.291-2.939,4.375-4.923,6.255c-1.983,1.881-4.307,3.435-6.973,4.666l17.331,24.2h-24.509
	L669.22,83.951h-10.459v21.433h-20.408V25.398L677.423,25.397L677.423,25.397z M658.762,44.061V65.39h17.534
	c2.05,0,3.794-0.29,5.229-0.87c1.438-0.58,2.6-1.351,3.488-2.308c0.887-0.957,1.537-2.083,1.946-3.385
	c0.41-1.296,0.618-2.63,0.618-3.998c0-3.078-0.858-5.639-2.564-7.69c-1.71-2.05-4.616-3.078-8.717-3.078H658.762L658.762,44.061z"/>
<path fill="#FFFFFF" d="M402.602,121.113l32.304,79.988h-22.358l-4.409-11.691h-31.479l-4.41,11.691h-22.354l32.404-79.988H402.602z
	 M392.45,147.367l-8.817,23.481h17.535L392.45,147.367z"/>
<path fill="#FFFFFF" d="M512.635,121.113v45.021c0,5.125-0.804,9.913-2.41,14.356c-1.605,4.445-3.966,8.307-7.075,11.588
	c-3.11,3.281-6.959,5.862-11.538,7.739c-4.579,1.881-9.843,2.821-15.79,2.821c-6.019,0-11.316-0.94-15.896-2.821
	c-4.581-1.877-8.408-4.458-11.484-7.739s-5.4-7.143-6.973-11.588c-1.574-4.443-2.358-9.231-2.358-14.356v-45.021h20.509v43.789
	c0,5.812,1.367,10.255,4.103,13.329c2.734,3.079,6.767,4.616,12.101,4.616c5.4,0,9.484-1.537,12.253-4.616
	c2.771-3.074,4.152-7.518,4.152-13.329v-43.789H512.635z"/>
<path fill="#FFFFFF" d="M521.965,121.113h70.349v19.896h-24.92v60.092h-20.51V141.01h-24.919V121.113z"/>
<path fill="#FFFFFF" d="M623.282,121.113v79.988h-20.512v-79.988H623.282z"/>
<path fill="#FFFFFF" d="M655.48,177.104v0.515c0,0.753,0.27,1.555,0.82,2.409c0.545,0.854,1.364,1.641,2.461,2.358
	c1.092,0.717,2.493,1.317,4.204,1.794c1.708,0.479,3.724,0.717,6.05,0.717c3.827,0,6.477-0.527,7.947-1.589
	c1.468-1.059,2.203-2.168,2.203-3.333c0-1.707-1.06-3.178-3.176-4.408c-2.123-1.23-5.608-2.668-10.463-4.309
	c-3.214-1.023-6.546-2.238-9.996-3.638c-3.453-1.4-6.616-3.128-9.486-5.18c-2.873-2.05-5.247-4.545-7.126-7.486
	c-1.882-2.938-2.82-6.458-2.82-10.561c0-3.829,0.768-7.263,2.308-10.309c1.537-3.042,3.691-5.64,6.459-7.793
	c2.769-2.152,6.066-3.811,9.896-4.973c3.825-1.161,8.032-1.743,12.613-1.743c4.647,0,8.972,0.6,12.974,1.794
	c3.997,1.197,7.449,2.923,10.355,5.179c2.904,2.256,5.193,4.975,6.871,8.153c1.676,3.179,2.511,6.752,2.511,10.715v1.129h-19.995
	v-0.719c0-0.957-0.257-1.947-0.771-2.973c-0.51-1.025-1.28-1.949-2.309-2.771c-1.021-0.82-2.307-1.486-3.845-1.999
	c-1.535-0.511-3.33-0.769-5.381-0.769c-3.489,0-5.982,0.564-7.486,1.691c-1.505,1.129-2.257,2.377-2.257,3.745
	c0,1.572,1.01,2.905,3.024,3.998c2.017,1.094,5.419,2.461,10.202,4.102c2.737,0.957,5.848,2.138,9.335,3.539
	c3.485,1.4,6.751,3.177,9.792,5.332c3.04,2.153,5.605,4.785,7.691,7.896c2.088,3.112,3.127,6.853,3.127,11.228
	c0,3.897-0.805,7.332-2.408,10.305c-1.607,2.976-3.83,5.453-6.667,7.438c-2.838,1.981-6.188,3.484-10.048,4.511
	c-3.863,1.024-8.085,1.538-12.664,1.538c-4.787,0-9.247-0.548-13.382-1.641c-4.14-1.094-7.727-2.683-10.768-4.77
	c-3.045-2.084-5.438-4.665-7.18-7.741s-2.616-6.563-2.616-10.459v-0.925H655.48L655.48,177.104z"/>
<path fill="#FFFFFF" d="M713.416,201.102v-79.988h20.614l23.069,50.556l23.179-50.556h20.61v79.988h-20.406v-37.637l-16.612,34.559
	h-13.436l-16.612-34.559v37.637H713.416L713.416,201.102z"/>
<path fill="#FFFFFF" d="M812.475,161.108c0-5.743,1.129-11.127,3.386-16.15c2.255-5.025,5.315-9.418,9.177-13.18
	c3.861-3.758,8.373-6.732,13.534-8.92c5.163-2.188,10.615-3.281,16.358-3.281c5.809,0,11.296,1.093,16.46,3.281
	c5.159,2.188,9.674,5.162,13.535,8.92c3.862,3.762,6.905,8.154,9.126,13.18c2.221,5.023,3.335,10.407,3.335,16.15
	c0,5.742-1.114,11.126-3.335,16.15c-2.221,5.025-5.264,9.419-9.126,13.179c-3.861,3.759-8.376,6.733-13.535,8.92
	c-5.164,2.188-10.651,3.281-16.46,3.281c-5.743,0-11.194-1.093-16.358-3.281c-5.161-2.188-9.673-5.161-13.534-8.92
	c-3.861-3.76-6.922-8.153-9.177-13.179C813.604,172.234,812.475,166.851,812.475,161.108z M833.19,161.108
	c0,3.008,0.564,5.845,1.691,8.509c1.129,2.669,2.685,4.978,4.666,6.925c1.982,1.947,4.291,3.486,6.921,4.614
	c2.632,1.128,5.454,1.691,8.461,1.691c3.076,0,5.929-0.563,8.564-1.691c2.632-1.128,4.922-2.667,6.869-4.614
	c1.948-1.947,3.487-4.256,4.616-6.925c1.126-2.664,1.689-5.501,1.689-8.509c0-3.009-0.563-5.847-1.689-8.511
	c-1.129-2.668-2.668-4.977-4.616-6.923c-1.947-1.948-4.237-3.487-6.869-4.616c-2.636-1.126-5.488-1.69-8.564-1.69
	c-3.007,0-5.829,0.563-8.461,1.69c-2.63,1.129-4.938,2.668-6.921,4.616c-1.981,1.946-3.538,4.255-4.666,6.923
	C833.755,155.262,833.19,158.1,833.19,161.108z"/>
<g>
	<g>
		<defs>
			<path id="SVGID_1_" d="M126.539,227.972c62.661-31.705,126.535-82.554,126.535-152.467c0-71.863-86.101-101.828-126.52-47.935
				h-0.032C86.103-26.323,0,3.642,0,75.505C0,145.418,63.877,196.267,126.539,227.972"/>
		</defs>
		<clipPath id="SVGID_2_">
			<use xlink:href="#SVGID_1_"  overflow="visible"/>
		</clipPath>
		<g clip-path="url(#SVGID_2_)">
			<g>
				
					<linearGradient id="SVGID_3_" gradientUnits="userSpaceOnUse" x1="-26.2588" y1="-48.3994" x2="97.8208" y2="-48.3994" gradientTransform="matrix(1 0 0 -1 26.5098 48.4004)">
					<stop  offset="0" style="stop-color:#80DBFF"/>
					<stop  offset="1" style="stop-color:#00A1D3"/>
				</linearGradient>
				<path fill="url(#SVGID_3_)" d="M53.612,179.498c-3.502-3.367-6.637-6.259-9.638-9.288c-9.405-9.484-17.833-19.76-24.836-31.165
					C10.459,124.9,4.422,109.737,1.741,93.32c-2.906-17.788-1.904-35.129,6.079-51.649c5.072-10.499,12.211-19.307,21.424-26.443
					c0.47-0.363,0.965-0.698,1.557-1.126c12.965,13.475,27.185,25.557,39.827,39.603c-1.266,0.448-2.324,0.801-3.37,1.196
					c-3.79,1.438-7.249,3.383-9.849,6.591c-3.052,3.766-4.198,8.032-3.005,12.768c2.321,9.229,10.473,16.92,21.159,16.015
					c4.58-0.39,8.226-2.658,11.07-6.095c2.11-2.556,3.849-5.418,5.589-7.911c10.548,10.457,21.267,21.083,32.11,31.833
					c-0.326,0.348-0.75,0.819-1.2,1.269c-8.292,8.297-16.586,16.592-24.88,24.887c-0.35,0.348-0.72,0.681-1.035,1.055
					c-1.089,1.285-0.72,2.409,0.963,2.681c3.836,0.619,7.427,1.809,10.616,4.098c8.997,6.457,9.498,17.694,1.04,25.374
					c-4.765,4.325-10.3,5.973-16.548,3.843c-6.205-2.109-9.738-6.634-10.934-13.009c-0.21-1.12-0.07-2.301-0.226-3.434
					c-0.102-0.742-0.232-1.744-0.732-2.109c-0.903-0.667-1.687,0.115-2.371,0.809c-3.399,3.422-6.815,6.827-10.228,10.236
					c-4.649,4.65-9.308,9.295-13.943,13.962C54.431,178.186,54.145,178.744,53.612,179.498z"/>
				<g>
					
						<linearGradient id="SVGID_4_" gradientUnits="userSpaceOnUse" x1="-26.6587" y1="-48.3867" x2="98.3787" y2="-48.3867" gradientTransform="matrix(1 0 0 -1 26.5098 48.4004)">
						<stop  offset="0" style="stop-color:#80DBFF"/>
						<stop  offset="1" style="stop-color:#00A1D3"/>
					</linearGradient>
					<path fill="url(#SVGID_4_)" d="M55.026,178.084c-8.564-8.221-16.932-16.469-24.283-25.823
						c-7.336-9.338-13.579-19.575-18.42-30.419c-9.53-21.349-13.583-46.828-6.595-69.495C10.181,37.903,19.482,24.63,31.81,15.83
						c-0.808-0.104-1.616-0.208-2.424-0.313C42.388,28.994,56.649,41.21,69.212,55.119c0.294-1.114,0.588-2.228,0.883-3.343
						c-7.355,2.588-14.013,5.884-17.168,13.49c-2.799,6.747,0.538,14.648,5.003,19.82c4.578,5.304,11.851,8.053,18.782,7.053
						c8.565-1.237,12.72-8.33,17.235-14.86c-1.047,0.135-2.094,0.271-3.141,0.405c10.704,10.61,21.406,21.222,32.109,31.833
						c0-0.942,0-1.885,0-2.828c-4.38,4.716-9.087,9.161-13.639,13.713c-2.261,2.262-4.523,4.523-6.786,6.786
						c-2.278,2.278-5.122,4.498-7.003,7.114c-1.077,1.499-1.347,4.103,0.667,5.065c2.521,1.203,5.505,1.271,8.11,2.415
						c4.516,1.983,8.164,5.697,9.334,10.549c2.371,9.823-8.463,19.498-17.867,17.589c-4.568-0.928-8.213-3.789-10.208-7.968
						c-1.092-2.29-1.173-4.621-1.399-7.087c-0.203-2.202-1.16-4.497-3.76-4.313c-1.126,0.08-1.988,0.843-2.757,1.598
						c-1.268,1.244-2.508,2.52-3.763,3.776c-2.525,2.527-5.054,5.05-7.581,7.576c-2.605,2.604-5.211,5.207-7.814,7.813
						c-2.301,2.304-4.734,4.472-6.566,7.174c-1.453,2.142,2.015,4.141,3.454,2.019c1.62-2.389,3.904-4.324,5.94-6.363
						c2.417-2.421,4.837-4.838,7.255-7.255c2.175-2.174,4.35-4.346,6.524-6.52c1.077-1.075,2.154-2.153,3.229-3.232
						c0.538-0.539,1.075-1.078,1.612-1.619c0.316-0.321,0.636-0.64,0.959-0.954c-0.76-0.38-1.003-0.259-0.729,0.363
						c0.237,1.282,0.035,2.612,0.293,3.902c0.218,1.089,0.495,2.149,0.853,3.2c0.727,2.135,1.85,4.032,3.25,5.787
						c2.825,3.546,7.5,5.716,11.927,6.262c9.74,1.199,19.36-6.688,21.139-16.165c1.892-10.078-5.883-18.133-14.919-20.957
						c-0.643-0.201-1.301-0.354-1.956-0.509c-0.442-0.099-0.887-0.188-1.333-0.269c-0.659-0.344-0.919-0.139-0.782,0.615
						c0.271-0.595,1.172-1.231,1.628-1.688c0.754-0.755,1.508-1.509,2.262-2.263c2.639-2.64,5.278-5.278,7.917-7.918
						c5.116-5.116,10.411-10.109,15.335-15.41c0.739-0.795,0.795-2.04,0-2.828c-10.703-10.611-21.406-21.223-32.109-31.833
						c-0.968-0.959-2.414-0.648-3.142,0.404c-3.671,5.31-6.857,11.29-13.642,12.823c-5.579,1.262-11.441-1.135-15.366-5.044
						c-3.911-3.896-6.558-10.086-5.089-15.573c1.827-6.824,8.761-9.721,14.762-11.833c1.448-0.509,1.932-2.182,0.883-3.342
						C59.477,38.382,45.216,26.166,32.214,12.688c-0.581-0.602-1.71-0.823-2.424-0.313C11.353,25.538,0.329,46.716-1.493,69.121
						c-1.897,23.332,5.248,47.159,16.729,67.273c4.795,8.401,10.5,16.265,16.718,23.665c6.256,7.447,13.237,14.128,20.242,20.853
						C54.058,182.698,56.891,179.872,55.026,178.084z"/>
				</g>
			</g>
			<g>
				
					<linearGradient id="SVGID_5_" gradientUnits="userSpaceOnUse" x1="102.5024" y1="-48.3511" x2="226.313" y2="-48.3511" gradientTransform="matrix(1 0 0 -1 26.5098 48.4004)">
					<stop  offset="0" style="stop-color:#FFDE91"/>
					<stop  offset="1" style="stop-color:#FFCC66"/>
				</linearGradient>
				<path fill="url(#SVGID_5_)" d="M199.822,178.893c-7.436-7.438-14.716-14.721-22.074-22.074
					c9.613-3.972,13.611-11.201,11.315-21.41c-1.851-8.227-7.772-12.567-15.652-14.381c-10.013-2.309-15.792,3.198-19.851,11.107
					c-8.186-8.183-16.326-16.323-24.548-24.547c2.517-2.578,5.265-5.401,8.021-8.214c7.176-7.32,14.354-14.634,21.529-21.952
					c0.194-0.198,0.39-0.389,0.569-0.595c1.199-1.375,1.001-2.29-0.701-2.971c-3.397-1.352-6.505-3.132-9.063-5.793
					c-4.503-4.683-5.393-10.779-2.301-16.473c1.866-3.437,4.462-6.247,7.815-8.273c7.406-4.477,16.022-2.417,20.522,4.993
					c1.091,1.799,1.839,3.846,2.49,5.86c0.862,2.658,1.589,2.902,3.615,0.874c10.808-10.826,21.609-21.657,32.415-32.484
					c1.974-1.98,3.953-3.954,5.931-5.931c2.633-2.634,2.639-2.642,5.632-0.288c13.96,10.985,22.327,25.39,25.579,42.719
					c4.424,23.562,0.271,45.948-10.028,67.344c-7.515,15.609-17.912,29.19-29.91,41.589c-3.276,3.384-6.731,6.595-10.111,9.877
					C200.636,178.24,200.204,178.568,199.822,178.893z"/>
				<g>
					
						<linearGradient id="SVGID_6_" gradientUnits="userSpaceOnUse" x1="102.2158" y1="-48.376" x2="226.5174" y2="-48.376" gradientTransform="matrix(1 0 0 -1 26.5098 48.4004)">
						<stop  offset="0" style="stop-color:#FFDE91"/>
						<stop  offset="1" style="stop-color:#FFCC66"/>
					</linearGradient>
					<path fill="url(#SVGID_6_)" d="M200.544,178.17c-7.358-7.357-14.715-14.717-22.074-22.073
						c-0.068,0.534-0.138,1.068-0.206,1.603c5.844-2.479,10.68-6.724,12.072-13.125c1.4-6.438-0.64-13.908-5.207-18.635
						c-4.364-4.515-12.029-7.177-18.236-6.317c-6.803,0.942-11.206,6.226-14.214,11.997c0.534-0.068,1.068-0.137,1.602-0.206
						c-8.183-8.182-16.366-16.364-24.547-24.548c0,0.481,0,0.962,0,1.443c9.098-9.321,18.223-18.615,27.343-27.915
						c1.186-1.208,3.633-2.919,3.805-4.798c0.195-2.126-2.177-2.692-3.706-3.38c-5.109-2.298-9.698-6.277-10.778-11.992
						c-1.048-5.546,2.692-11.025,6.716-14.428c3.931-3.324,9.162-4.693,14.104-3.092c5.634,1.826,8.104,7.138,9.892,12.305
						c1.792,5.178,5.825,0.05,7.917-2.047c9.316-9.333,18.628-18.67,27.943-28.005c2.174-2.179,4.351-4.357,6.529-6.533
						c0.906-0.905,1.779-1.955,2.838-2.687c0.777-0.539,2.885,1.681,3.418,2.112c3.972,3.206,7.568,6.862,10.756,10.846
						c14.035,17.539,17.368,41.831,14.239,63.533c-2.449,16.987-9.254,33.209-18.395,47.65c-4.529,7.155-9.733,13.861-15.317,20.221
						c-2.801,3.19-5.715,6.286-8.719,9.285c-2.983,2.979-5.971,6.098-9.218,8.786c-1.014,0.84,0.438,2.275,1.443,1.442
						c4.53-3.751,8.705-8.16,12.759-12.416c3.999-4.197,7.808-8.573,11.411-13.114c7.142-8.997,13.296-18.736,18.145-29.156
						c9.891-21.255,13.613-44.901,8.825-67.986c-2.017-9.728-5.983-19.019-11.769-27.101c-2.874-4.015-6.219-7.672-9.868-10.991
						c-1.756-1.598-3.601-3.125-5.525-4.518c-1.227-0.888-2.545-0.964-3.733,0.022c-2.131,1.769-4.011,3.906-5.968,5.864
						c-2.404,2.405-4.804,4.813-7.205,7.22c-4.657,4.667-9.313,9.335-13.971,14.003c-2.235,2.241-4.471,4.481-6.707,6.721
						c-2.297,2.301-4.524,5.126-7.155,7.04c-0.526,0.383-1.47-2.967-1.596-3.317c-0.432-1.197-0.958-2.355-1.549-3.48
						c-1.06-2.02-2.649-3.88-4.458-5.262c-13.281-10.136-33.627,6.995-26.316,21.824c1.863,3.777,5.496,6.539,9.138,8.457
						c0.83,0.438,1.694,0.822,2.563,1.176c1.792,0.73,0.603,1.773-0.273,2.667c-2.024,2.064-4.048,4.127-6.072,6.191
						c-7.648,7.798-15.297,15.596-22.927,23.413c-0.388,0.397-0.396,1.046,0,1.442c8.181,8.184,16.364,16.367,24.547,24.548
						c0.449,0.448,1.296,0.381,1.602-0.206c2.61-5.008,6.184-9.673,11.988-10.902c5.843-1.238,13.08,1.563,17.257,5.636
						c4.22,4.115,5.744,10.969,4.682,16.648c-1.104,5.91-5.874,9.674-11.135,11.906c-0.618,0.262-0.626,1.182-0.206,1.602
						c7.359,7.356,14.716,14.715,22.073,22.073C200.032,180.545,201.474,179.102,200.544,178.17z"/>
				</g>
			</g>
			<g>
				<g>
					
						<linearGradient id="SVGID_7_" gradientUnits="userSpaceOnUse" x1="5.3003" y1="-5.7207" x2="195.0303" y2="-5.7207" gradientTransform="matrix(1 0 0 -1 26.5098 48.4004)">
						<stop  offset="0" style="stop-color:#FF468C"/>
						<stop  offset="1" style="stop-color:#B50F52"/>
					</linearGradient>
					<path fill="url(#SVGID_7_)" d="M219.188,11.917C206.525,4.089,192.843,0.014,177.87,0.689
						c-13.975,0.63-26.313,5.594-37.336,14.059c-4.416,3.392-8.145,7.462-11.728,11.702c-2,2.363-2.822,2.242-4.735-0.193
						C111.883,10.717,95.818,2.322,76.233,0.901C61.27-0.187,47.348,3.455,34.62,11.474c-0.439,0.273-2.315,0.967-2.81,1.325
						l41.486,41.497c-13.763,3.518-17.082,10.407-17.771,14.13c-0.834,4.518,0.972,9.123,3.719,12.588
						c6.241,7.875,16.719,10.925,24.774,3.424c2.891-2.691,6.005-8.162,7.679-11.709l34.843,34.896
						c9.793-10.005,22.039-22.52,31.867-32.554c-4.679-1.397-10.362-5.476-12.554-8.792c-3.817-5.784-2.69-12.159,0.343-16.986
						c3.035-4.834,6.76-7.719,11.348-9.426c6.767-2.521,20.226,0.986,21.954,14.712c13.106-13.055,28.917-28.518,42.042-41.59
						C221.487,12.943,219.366,12.028,219.188,11.917z"/>
				</g>
				<g>
					
						<linearGradient id="SVGID_8_" gradientUnits="userSpaceOnUse" x1="4.9927" y1="-5.7559" x2="195.3235" y2="-5.7559" gradientTransform="matrix(1 0 0 -1 26.5098 48.4004)">
						<stop  offset="0" style="stop-color:#FF468C"/>
						<stop  offset="1" style="stop-color:#B50F52"/>
					</linearGradient>
					<path fill="url(#SVGID_8_)" d="M219.692,11.054c-18.925-11.597-42.15-15.139-63.061-6.765
						c-10.384,4.158-19.286,10.907-26.647,19.26c-0.931,1.057-1.802,2.172-2.798,3.169c-1.18,1.182-2.585-1.397-3.191-2.151
						c-1.666-2.072-3.464-4.034-5.346-5.911c-3.39-3.381-7.179-6.361-11.219-8.926C96.524,2.807,83.507-0.299,70.67-0.285
						c-7.307,0.008-14.59,1.296-21.502,3.639c-3.306,1.12-6.51,2.542-9.614,4.134c-1.652,0.847-3.259,1.781-4.843,2.75
						c-1.09,0.667-2.318,1.036-3.407,1.697c-0.55,0.333-0.664,1.109-0.203,1.571C44.58,26.987,58.058,40.468,71.535,53.95
						c0.351,0.351,0.702,0.702,1.053,1.053c0.147-0.557,0.294-1.114,0.441-1.672c-6.313,1.662-12.87,4.479-16.57,10.142
						c-3.48,5.326-2.237,11.965,1.164,17.026c4.131,6.147,11.477,10.222,18.937,8.959c8.094-1.37,12.773-9.475,16-16.226
						c-0.523,0.067-1.047,0.134-1.57,0.203c11.614,11.631,23.229,23.264,34.843,34.896c0.382,0.383,1.033,0.389,1.414,0
						c10.623-10.851,21.242-21.706,31.867-32.553c0.541-0.553,0.274-1.446-0.441-1.672c-6.909-2.19-13.891-7.703-14.242-15.422
						c-0.338-7.432,5.638-14.284,12.004-17.288c4.107-1.938,8.858-1.537,12.923,0.326c5.327,2.44,8.387,7.438,9.176,13.121
						c0.107,0.775,1.191,0.918,1.671,0.441c13.967-13.91,28.073-27.681,42.042-41.59c0.438-0.435,0.377-1.276-0.202-1.57
						C221.276,11.734,220.459,11.445,219.692,11.054c-1.146-0.586-2.159,1.14-1.009,1.727c0.767,0.392,1.584,0.681,2.352,1.071
						c-0.067-0.523-0.134-1.047-0.202-1.57C206.863,26.19,192.758,39.96,178.79,53.871c0.558,0.147,1.114,0.294,1.672,0.441
						c-0.887-6.385-4.555-11.778-10.465-14.486c-4.929-2.259-10.229-2.207-15.095,0.089c-7.165,3.381-12.81,11.353-12.443,19.402
						c0.378,8.312,8.342,14.39,15.682,16.718c-0.147-0.557-0.294-1.115-0.441-1.672c-10.625,10.849-21.245,21.703-31.867,32.554
						c0.471,0,0.943,0,1.414,0c-11.614-11.632-23.229-23.264-34.843-34.896c-0.427-0.428-1.289-0.387-1.57,0.202
						c-2.944,6.159-6.75,13.021-13.739,15.061c-7.092,2.07-14.278-2.638-18.102-8.326c-3.03-4.509-3.631-10.152-0.633-14.741
						c3.305-5.059,9.629-7.491,15.202-8.958c0.73-0.192,0.969-1.144,0.441-1.672C60.525,40.106,47.047,26.625,33.57,13.144
						c-0.351-0.351-0.702-0.702-1.053-1.053c-0.067,0.523-0.135,1.047-0.202,1.571c1.669-1.013,3.512-1.781,5.21-2.777
						c2.692-1.578,5.502-2.961,8.38-4.167c5.3-2.219,10.917-3.703,16.61-4.462C73.09,0.845,84.113,2.074,94.183,5.553
						c9.471,3.273,17.859,9.017,24.743,16.248c1.734,1.822,3.307,3.774,4.894,5.723c1.127,1.383,2.56,2.093,4.175,1.099
						c0.987-0.608,1.715-1.702,2.455-2.567c0.939-1.098,1.9-2.175,2.876-3.239c2.113-2.304,4.368-4.469,6.777-6.461
						c10.626-8.788,24.019-13.976,37.767-14.666c14.494-0.728,28.521,3.56,40.813,11.092
						C219.786,13.457,220.79,11.726,219.692,11.054z"/>
				</g>
			</g>
			<g>
				
					<linearGradient id="SVGID_9_" gradientUnits="userSpaceOnUse" x1="27.6929" y1="-119.1826" x2="172.729" y2="-119.1826" gradientTransform="matrix(1 0 0 -1 26.5098 48.4004)">
					<stop  offset="0" style="stop-color:#96D778"/>
					<stop  offset="1" style="stop-color:#55A52B"/>
				</linearGradient>
				<path fill="url(#SVGID_9_)" d="M97.948,136.256c15.443,2.236,20.832,13.503,19.473,20.887
					c-1.825,9.917-9.627,16.533-21.08,16.446c-6.91-0.054-16.876-8.564-15.684-20.012c-7.672,7.669-18.652,18.692-26.455,26.495
					c0.492,0.382,2.599,2.107,2.958,2.417c20.827,17.865,43.989,32.171,68.281,44.754c0.984,0.511,1.719,0.3,2.591-0.149
					c21.127-10.892,41.405-23.119,59.97-38.043c3.195-2.565,6.301-5.243,9.926-8.272c-0.765-0.487,1.683-0.543,1.261-0.963
					l-24.813-24.276c7.378-0.185,13.845-7.318,14.248-13.613c0.482-7.555-7.661-17.47-15.606-19.564
					c-4.262-1.125-8.982-0.211-12.552,2.458c-2.986,2.229-5.265,6.671-6.762,10.011l-27.164-27.205
					C118.019,116.144,106.311,127.895,97.948,136.256"/>
				<g>
					
						<linearGradient id="SVGID_10_" gradientUnits="userSpaceOnUse" x1="27.3911" y1="-119.1172" x2="172.9288" y2="-119.1172" gradientTransform="matrix(1 0 0 -1 26.5098 48.4004)">
						<stop  offset="0" style="stop-color:#96D778"/>
						<stop  offset="1" style="stop-color:#55A52B"/>
					</linearGradient>
					<path fill="url(#SVGID_10_)" d="M97.682,137.221c7.167,1.106,13.998,4.464,17.383,11.162c2.847,5.635,1.392,12.272-2.38,17.125
						c-4.225,5.438-12.846,8.664-19.524,6.48c-7.545-2.467-12.173-10.771-11.504-18.412c0.079-0.898-1.13-1.283-1.707-0.707
						c-8.826,8.824-17.63,17.67-26.455,26.495c-0.352,0.352-0.428,1.075,0,1.415c8.227,6.494,16.148,13.257,24.722,19.32
						c9.751,6.896,19.911,13.202,30.291,19.106c5.206,2.961,10.479,5.804,15.791,8.568c2.193,1.142,3.452,0.592,5.545-0.493
						c2.825-1.464,5.634-2.959,8.431-4.479c10.731-5.825,21.216-12.107,31.331-18.95c10.157-6.871,19.636-14.507,29.03-22.367
						c0.413-0.347,0.367-1.062,0-1.415c-0.046-0.044-0.093-0.089-0.139-0.134c0.085,0.325,0.171,0.649,0.257,0.974
						c-0.439,0.39-0.458,0.499-0.058,0.326c0.178-0.046,0.354-0.098,0.528-0.156c0.278-0.086,0.524-0.227,0.719-0.441
						c0.221-0.245,0.391-0.641,0.258-0.974c-0.586-1.457-2.528-2.733-3.612-3.793c-2.891-2.828-5.782-5.656-8.672-8.485
						c-4.277-4.185-8.555-8.37-12.833-12.556c-0.236,0.569-0.471,1.139-0.707,1.707c6.218-0.305,11.933-4.687,14.243-10.434
						c2.444-6.08-0.239-12.129-4.115-16.94c-4.14-5.139-10.334-8.89-17.092-8.148c-7.622,0.836-11.662,6.879-14.573,13.31
						c0.523-0.067,1.047-0.136,1.571-0.203c-9.055-9.068-18.109-18.137-27.164-27.205c-0.385-0.386-1.029-0.385-1.414,0
						c-9.538,9.536-19.054,19.096-28.591,28.632c-0.913,0.913,0.501,2.328,1.414,1.415c9.537-9.537,19.053-19.096,28.591-28.633
						c-0.471,0-0.943,0-1.414,0c9.055,9.068,18.109,18.137,27.164,27.206c0.42,0.42,1.301,0.395,1.571-0.203
						c2.52-5.567,5.537-10.625,11.874-12.139c6.178-1.477,11.886,2.135,15.893,6.501c3.477,3.79,6.301,9.186,4.883,14.409
						c-1.512,5.573-7.094,10.15-12.84,10.433c-0.846,0.042-1.356,1.072-0.707,1.708c4.088,3.999,8.176,7.999,12.264,11.999
						c2.874,2.811,5.746,5.621,8.619,8.433c0.928,0.907,1.856,1.816,2.785,2.725c0.27,0.264,0.54,0.528,0.809,0.792
						c0.276,0.27,0.344,0.546,0.125,0.003c0.085-0.324,0.171-0.648,0.257-0.974c-0.265,0.294-1.072,0.243-1.43,0.6
						c-0.496,0.495-0.336,1.221,0.122,1.661c0-0.471,0-0.943,0-1.414c-9.455,7.912-19.011,15.552-29.232,22.466
						c-10.115,6.843-20.64,13.065-31.369,18.891c-2.582,1.401-5.18,2.773-7.787,4.128c-0.721,0.375-1.706,1.068-2.562,0.948
						c-0.659-0.094-1.633-0.804-2.241-1.121c-1.488-0.776-2.97-1.563-4.45-2.355c-5.276-2.821-10.495-5.748-15.654-8.777
						c-10.298-6.046-20.313-12.575-29.934-19.65c-6.573-4.834-12.689-10.186-19.083-15.234c0,0.471,0,0.942,0,1.414
						c8.825-8.825,17.628-17.672,26.454-26.495c-0.569-0.235-1.138-0.472-1.707-0.707c-0.733,8.366,4.199,16.622,11.939,19.939
						c7.086,3.037,16.433-0.167,21.556-5.497c4.763-4.957,6.779-12.491,4.362-18.986c-2.767-7.437-9.958-11.825-17.422-13.415
						c-0.622-0.132-1.25-0.229-1.878-0.325C96.953,135.098,96.411,137.025,97.682,137.221L97.682,137.221z"/>
				</g>
			</g>
		</g>
	</g>
	<g>
		<defs>
			<path id="SVGID_11_" d="M126.539,227.972c62.661-31.705,126.535-82.554,126.535-152.467c0-71.863-86.101-101.828-126.52-47.935
				h-0.032C86.103-26.323,0,3.642,0,75.505C0,145.418,63.877,196.267,126.539,227.972"/>
		</defs>
		<clipPath id="SVGID_12_">
			<use xlink:href="#SVGID_11_"  overflow="visible"/>
		</clipPath>
		<path clip-path="url(#SVGID_12_)" fill="none" d="M126.539,227.972c62.661-31.705,126.535-82.554,126.535-152.467
			c0-71.863-86.101-101.828-126.52-47.935h-0.032C86.103-26.323,0,3.642,0,75.505C0,145.418,63.877,196.267,126.539,227.972"/>
	</g>
</g>
<g>
	<g>
		<path fill="#FFEAAA" d="M217.455,32.801c9.572-0.55,16.49,11.833,19.619,20.908c1.753,5.006,4.765,19.84-2.204,22.12
			c-8.14,2.748-10.527-8.529-11.254-13.681c-0.483-3.885-2.046-8.42-4.401-11.552c-2.452-3.364-6.349-5.592-7.35-10.09
			C211.147,36.717,213.284,32.584,217.455,32.801"/>
	</g>
	<g>
		<path fill="#FFEAAA" d="M230.622,81.743c8.591-4.351,13.533,8.325,6.646,11.684C227.857,98.026,223.495,85.505,230.622,81.743"/>
	</g>
</g>
<path fill="#FFFFFF" d="M255.912,33.374h-49.83L126.554,227.78h54.861l10.824-29.2h77.264l10.821,29.2h54.861L255.912,33.374z
	 M230.871,159.601c-28.209-12.772-37.843-35.008-28.069-47.701c9.459-12.277,28.07-5.032,28.07,7.435
	c0-12.467,18.611-19.713,28.067-7.435C268.712,124.593,259.079,146.828,230.871,159.601z"/>
</svg>
