<?xml version="1.0" encoding="utf-8"?>
<!-- Generator: Adobe Illustrator 16.0.0, SVG Export Plug-In . SVG Version: 6.00 Build 0)  -->
<!DOCTYPE svg PUBLIC "-//W3C//DTD SVG 1.1//EN" "http://www.w3.org/Graphics/SVG/1.1/DTD/svg11.dtd">
<svg version="1.1" id="Capa_1" xmlns="http://www.w3.org/2000/svg" xmlns:xlink="http://www.w3.org/1999/xlink" x="0px" y="0px"
	 width="50px" height="50px" viewBox="0 0 50 50" enable-background="new 0 0 50 50" xml:space="preserve">
<path fill="#FFFFFF" d="M45.877,0H3.996C1.79,0,0,1.786,0,3.979v23.963c0,2.198,1.776,3.979,3.996,3.979h41.881
	c2.21,0,3.998-1.784,3.998-3.979V3.979C49.875,1.782,48.099,0,45.877,0z M43.736,26.089L42.125,27.7l-11.95-10.244l-5.237,4.489
	l-5.237-4.489L7.75,27.7l-1.611-1.611L17.955,15.96L6.139,5.831L7.75,4.22l17.188,14.733L42.125,4.22l1.611,1.611L31.92,15.96
	L43.736,26.089z"/>
</svg>
