<?xml version="1.0" encoding="utf-8"?>
<!-- Generator: Adobe Illustrator 16.0.0, SVG Export Plug-In . SVG Version: 6.00 Build 0)  -->
<!DOCTYPE svg PUBLIC "-//W3C//DTD SVG 1.1//EN" "http://www.w3.org/Graphics/SVG/1.1/DTD/svg11.dtd">
<svg version="1.1" id="Layer_1" xmlns="http://www.w3.org/2000/svg" xmlns:xlink="http://www.w3.org/1999/xlink" x="0px" y="0px"
	 width="1080px" height="1080px" viewBox="0 0 1080 1080" enable-background="new 0 0 1080 1080" xml:space="preserve">
<title>a</title>
<path fill="#FFFFFF" d="M924.729,501.587l-137.24-30.007c-50.997-9.313-84.789-58.202-75.477-109.199
	c0.036-0.198,0.073-0.396,0.11-0.594c2.559-13.724,6.513-36.055,10.003-54.664c-115.633-53.036-248.639-53.036-364.271,0
	c3.49,18.609,7.444,40.708,10.003,54.664c9.608,51.083-24.014,100.282-75.096,109.891c-0.245,0.046-0.489,0.092-0.734,0.136
	l-136.775,29.773c-24.939,48.043-40.567,100.37-46.059,154.222l-36.751,353.803h935.097l-36.751-353.803
	C965.296,601.957,949.669,549.63,924.729,501.587z M539.99,786.536c-81.77-0.064-148.005-66.404-147.94-148.174
	s66.404-148.005,148.174-147.94s148.005,66.403,147.94,148.173l0,0c-0.041,81.747-66.344,147.982-148.091,147.941
	C540.045,786.536,540.018,786.536,539.99,786.536z"/>
<path fill="#FFFFFF" d="M1061.803,284.941c-18.72-51.592-56.582-93.997-105.731-118.418
	c-125.537-63.074-264.058-95.991-404.549-96.134c-2.215,0-4.361,0.091-6.497,0.182c-3.521,0.159-6.838,0.159-10.052,0
	c-2.146-0.091-4.282-0.182-6.497-0.182c-140.491,0.143-279.012,33.06-404.548,96.134c-49.15,24.422-87.013,66.827-105.731,118.418
	c-7.679,21.808-7.315,110.309-5.94,149.767c0.658,17.662,15.511,31.446,33.172,30.787c1.227-0.046,2.449-0.162,3.662-0.348
	l232.01-50.566c19.429-2.902,32.827-21.005,29.925-40.435c-0.072-0.486-0.154-0.971-0.247-1.453
	c-4.896-25.419-14.197-79.12-15.89-88.91c4.281-10.404,42.648-87.775,235.916-87.775c1.738,0,3.351,0.068,4.964,0.114l4.315,0.136
	l4.146-0.136c1.612-0.045,3.226-0.114,4.963-0.114c193.393,0,231.703,77.461,235.928,87.775c-1.691,9.768-11.006,63.491-15.9,88.91
	c-3.707,19.283,8.92,37.92,28.203,41.626c0.365,0.07,0.732,0.135,1.1,0.194l232.385,50.634c1.582,0.245,3.181,0.366,4.781,0.363
	c17.239,0.046,31.414-13.576,32.053-30.803C1069.117,395.25,1069.481,306.749,1061.803,284.941z"/>
</svg>
