<?xml version="1.0" encoding="utf-8"?>
<!-- Generator: Adobe Illustrator 16.0.0, SVG Export Plug-In . SVG Version: 6.00 Build 0)  -->
<!DOCTYPE svg PUBLIC "-//W3C//DTD SVG 1.1//EN" "http://www.w3.org/Graphics/SVG/1.1/DTD/svg11.dtd">
<svg version="1.1" id="Capa_1" xmlns="http://www.w3.org/2000/svg" xmlns:xlink="http://www.w3.org/1999/xlink" x="0px" y="0px"
	 width="50px" height="50px" viewBox="0 0 50 50" enable-background="new 0 0 50 50" xml:space="preserve">
<path fill="#FFFFFF" d="M41.946,7.198c-9.596-9.597-25.154-9.597-34.75,0c-9.596,9.596-9.596,25.155,0,34.75
	c9.596,9.597,25.154,9.597,34.75,0C51.543,32.353,51.543,16.793,41.946,7.198z M18.332,37.086
	C18.293,37.09,17.833,37.086,18.332,37.086L18.332,37.086z M19.351,37.112c0-0.001,0-0.003,0.002-0.005
	c0.001-0.004,0.004-0.006,0.009-0.006C19.439,37.07,19.839,37.112,19.351,37.112z M39.46,15.605
	c-0.707,0.952-1.461,1.805-2.41,2.517c-0.137,0.104-0.368,0.212-0.368,0.408c0,5.001-1.276,9.998-4.923,13.62
	c-4.643,4.611-11.607,5.866-17.791,4.159c-1.197-0.331-2.342-0.795-3.44-1.376c-0.364-0.198-0.721-0.404-1.072-0.635
	c-0.089-0.073-0.154-0.14-0.079-0.186c0.075-0.038,0.133-0.041,0.41,0c1.729,0.17,3.511-0.087,5.147-0.659
	c0.899-0.314,2.832-0.946,3.39-1.797c0.013-0.02,0.025-0.02,0.039-0.038c-0.225-0.054-0.45-0.054-0.675-0.093
	c-1.679-0.48-3.923-1.323-4.962-4.155c-0.066-0.166,0-0.252,0.172-0.219c1.383,0.108,1.879,0.032,2.362-0.073
	c-0.271-0.046-0.549-0.139-0.8-0.244c-2.117-0.806-3.662-2.87-3.944-5.102c-0.033-0.258-0.053-0.477-0.04-0.715
	c0.013-0.166,0.086-0.218,0.231-0.126c1.088,0.563,2.309,0.696,2.408,0.675c-0.271-0.211-0.522-0.443-0.767-0.675
	c-1.835-1.737-2.547-5.275-1.079-7.477c0.119-0.179,0.199-0.179,0.344-0.013c3.356,3.825,7.492,5.61,12.479,6.352
	c0.132,0.02,0.145,0,0.125-0.146C24.087,18.729,24.07,17.87,24.283,17c0.22-0.901,0.65-1.75,1.232-2.47
	c0.564-0.696,1.272-1.272,2.065-1.687c0.792-0.414,1.668-0.665,2.561-0.723c0.915-0.06,1.847,0.087,2.697,0.435
	c0.648,0.264,1.223,0.622,1.759,1.078c0.113,0.092,0.212,0.205,0.318,0.324c0.066,0.066,0.144,0.093,0.251,0.066
	c1.274-0.318,2.472-0.769,3.631-1.39c0.054-0.026,0.097-0.04,0.163-0.013c0.051,0.04,0.031,0.106,0.006,0.16
	c-0.208,0.677-0.576,1.303-1.02,1.854c-0.289,0.361-1.016,1.253-1.508,1.335c1.037-0.174,2.095-0.438,3.057-0.874
	c0.124-0.056,0.113-0.08,0.113,0c0,0,0,0.013,0,0.026C39.609,15.201,39.62,15.391,39.46,15.605z"/>
</svg>
