<?xml version="1.0" encoding="utf-8"?>
<!-- Generator: Adobe Illustrator 16.0.0, SVG Export Plug-In . SVG Version: 6.00 Build 0)  -->
<!DOCTYPE svg PUBLIC "-//W3C//DTD SVG 1.1//EN" "http://www.w3.org/Graphics/SVG/1.1/DTD/svg11.dtd">
<svg version="1.1" id="Capa_1" xmlns="http://www.w3.org/2000/svg" xmlns:xlink="http://www.w3.org/1999/xlink" x="0px" y="0px"
	 width="50px" height="50px" viewBox="0 0 50 50" enable-background="new 0 0 50 50" xml:space="preserve">
<g>
	<path fill="#FFFFFF" d="M24.837,11.758c-7.211,0-13.078,5.867-13.078,13.078c0,2.762,0.852,5.403,2.468,7.642
		c0.289,0.402,0.342,0.929,0.138,1.382l-1.511,3.323l4.333-1.188c0.121-0.034,0.243-0.05,0.367-0.05
		c0.244,0,0.483,0.063,0.698,0.188c1.994,1.166,4.271,1.782,6.584,1.782c7.213,0,13.08-5.867,13.08-13.08
		C37.917,17.625,32.05,11.758,24.837,11.758z M32.612,29.905c-0.486,1.182-1.695,1.94-2.921,2.173
		c-1.17,0.223-2.137-0.151-3.222-0.509c-0.967-0.32-1.9-0.786-2.767-1.315c-1.735-1.063-3.232-2.485-4.438-4.12
		c-0.367-0.5-0.708-1.021-1.022-1.556c-0.417-0.711-0.786-1.458-0.979-2.258c-0.082-0.333-0.123-0.677-0.127-1.022
		c-0.014-1.213,0.448-2.438,1.409-3.219c0.557-0.453,1.377-0.65,2.002-0.297c0.679,0.383,1.03,1.35,1.344,2.027
		c0.248,0.53,0.526,1.226,0.424,1.822c-0.102,0.595-0.572,1.097-0.948,1.54c-0.252,0.297-0.291,0.552-0.081,0.873
		c1.244,2.072,2.969,3.574,5.221,4.472c0.305,0.122,0.543,0.086,0.742-0.161c0.39-0.479,0.772-1.418,1.372-1.664
		c0.781-0.32,1.646,0.124,2.309,0.521c0.617,0.368,1.65,0.821,1.817,1.587C32.828,29.166,32.757,29.556,32.612,29.905z"/>
	<path fill="#FFFFFF" d="M42.399,7.274c-9.699-9.699-25.425-9.699-35.125,0c-9.7,9.699-9.7,25.425,0,35.124
		c9.699,9.7,25.425,9.7,35.125,0C52.099,32.699,52.099,16.974,42.399,7.274z M24.837,40.684c-2.606,0-5.174-0.645-7.464-1.87
		l-6.632,1.82c-0.121,0.033-0.245,0.05-0.366,0.05c-0.399,0-0.787-0.174-1.054-0.487c-0.347-0.407-0.428-0.98-0.207-1.469
		l2.408-5.303C9.863,30.863,8.99,27.91,8.99,24.836C8.99,16.099,16.1,8.99,24.837,8.99c8.739,0,15.847,7.109,15.847,15.846
		C40.684,33.574,33.576,40.684,24.837,40.684z"/>
</g>
</svg>
