<?xml version="1.0" encoding="utf-8"?>
<!-- Generator: Adobe Illustrator 16.0.0, SVG Export Plug-In . SVG Version: 6.00 Build 0)  -->
<!DOCTYPE svg PUBLIC "-//W3C//DTD SVG 1.1//EN" "http://www.w3.org/Graphics/SVG/1.1/DTD/svg11.dtd">
<svg version="1.1" id="Capa_1" xmlns="http://www.w3.org/2000/svg" xmlns:xlink="http://www.w3.org/1999/xlink" x="0px" y="0px"
	 width="720px" height="1600px" viewBox="0 0 720 1600" enable-background="new 0 0 720 1600" xml:space="preserve">
<g>
	<path fill="#FFFFFF" d="M-36.298,890.262c0,7.498,0,14.998,0,22.496c-1.352,0.998-2.82,1.218-4.313,1.218
		c-1.176,0-2.367-0.137-3.529-0.137c-0.052,0-0.104,0-0.155,0.001c-9.627,0.109-13.258,3.775-13.41,13.41
		c-0.139,8.863,0.704,17.76-0.549,26.586c-3.566,25.129-22.472,44.629-47.505,49.141c-3.32,0.6-6.647,0.904-10.028,0.904
		c-0.011,0-0.022,0-0.033,0c-74.989-0.021-149.979-0.004-224.968-0.021c-32.045-0.01-58.022-25.941-58.08-57.92
		c-0.013-6.75,0.064-13.5-0.024-20.246c-0.102-7.781-4.096-11.619-11.862-11.855c-0.157-0.005-0.315-0.007-0.474-0.007
		c-1.396,0-2.819,0.169-4.225,0.169c-1.647,0-3.271-0.232-4.798-1.242c0-7.498,0-14.998,0-22.496
		C-292.266,890.262-164.282,890.262-36.298,890.262 M-21.298,875.262h-15H-420.25h-15v15v22.496v8.063l6.726,4.448
		c3.796,2.51,8.072,3.73,13.072,3.73c0.562,0,1.096-0.015,1.591-0.035c0.021,3.271,0.011,6.583,0.002,9.81
		c-0.007,2.397-0.013,4.796-0.009,7.193c0.072,40.18,32.854,72.879,73.075,72.892c35.519,0.008,71.037,0.009,106.555,0.009
		c39.471,0.001,78.942,0.001,118.413,0.013c4.26,0,8.531-0.385,12.731-1.143c15.398-2.775,29.203-10.097,39.917-21.171
		c10.739-11.1,17.577-25.147,19.773-40.624c1.023-7.206,0.89-13.965,0.762-20.501c-0.044-2.262-0.087-4.422-0.079-6.53
		c0.614,0.032,1.325,0.063,2.109,0.063c5.042,0,9.49-1.396,13.22-4.148l6.093-4.496v-7.573v-22.496V875.262L-21.298,875.262z"/>
</g>
<g>
	<path fill="#FFFFFF" d="M-180.204,665.222c0.036,0,0.072,0,0.109,0c9.141,0.066,18.282,0.082,27.424,0.082
		c8.725,0,17.45-0.015,26.175-0.015c8.647,0,17.297,0.014,25.945,0.014c9.094,0,18.185-0.015,27.279-0.077c0.04,0,0.079,0,0.118,0
		c2.477,0,3.294,0.561,3.181,3.221c-0.235,5.487-0.184,10.995-0.015,16.487c0.066,2.146-0.394,2.924-2.499,2.924
		c-0.109,0-0.222-0.002-0.34-0.006c-2.077-0.072-4.157-0.091-6.236-0.091c-2.256,0-4.514,0.022-6.77,0.022
		c-1.411,0-2.822-0.009-4.232-0.037c-0.07-0.001-0.139-0.002-0.206-0.002c-1.747,0-2.363,0.497-2.319,2.452
		c0.137,6.244,0.163,12.496-0.013,18.738c-0.06,2.146,0.647,2.942,2.621,3.623c15.99,5.514,25.985,16.599,30.074,32.983
		c0.909,3.643,1.131,7.384,1.129,11.149c-0.026,35.858-0.061,71.716,0.064,107.574c0.011,3.021-0.902,3.563-3.606,3.563
		c-0.035,0-0.069,0-0.104,0c-10.86-0.059-21.722-0.104-32.582-0.104c-10.254,0-20.507,0.04-30.761,0.148
		c-0.061,0.001-0.122,0.001-0.18,0.001c-3.669,0-3.473-1.255-2.986-4.188c5.753-34.649-2.726-64.846-28.755-89.202
		c-9.563-8.947-21.026-14.681-33.906-17.267c-2.551-0.512-3.022-1.477-2.945-3.875c0.575-18.046,13.371-35.188,30.812-40.663
		c2.402-0.754,3.061-1.711,3-4.073c-0.157-6.118-0.129-12.245-0.009-18.364c0.038-1.877-0.452-2.502-2.275-2.502
		c-0.065,0-0.132,0.001-0.201,0.002c-1.94,0.043-3.882,0.055-5.824,0.055c-2.067,0-4.134-0.013-6.201-0.013
		c-1.864,0-3.727,0.01-5.59,0.05c-0.067,0.001-0.134,0.002-0.198,0.002c-1.792,0-2.346-0.564-2.3-2.48
		c0.134-5.619,0.199-11.249-0.021-16.863C-183.448,665.896-182.757,665.222-180.204,665.222 M-180.204,650.222L-180.204,650.222
		c-5.518,0-10.021,1.773-13.383,5.27c-3.365,3.499-4.963,8.069-4.748,13.583c0.215,5.495,0.127,11.132,0.014,15.922
		c-0.155,6.417,2.492,10.51,4.74,12.812c2.238,2.293,6.233,5.025,12.556,5.025c0.168,0,0.341-0.001,0.517-0.005
		c0.632-0.013,1.284-0.023,1.982-0.031c-7.26,4.017-13.769,9.653-18.908,16.464c-7.425,9.843-11.722,21.776-12.099,33.601
		c-0.316,9.837,5.426,17.142,14.987,19.06c10.277,2.063,19.23,6.61,26.608,13.513c21.427,20.049,29.345,44.841,24.206,75.792
		c-0.479,2.883-1.601,9.635,3.457,15.603c3.398,4.01,8.219,6.043,14.326,6.043l0.334-0.002c9.431-0.1,19.441-0.147,30.606-0.147
		c11.737,0,23.535,0.055,32.502,0.104h0.185c2.08,0,8.407,0,13.508-5.119c3.402-3.414,5.118-7.955,5.098-13.496
		c-0.119-34.135-0.093-68.859-0.068-102.439l0.004-5.07c0.002-3.942-0.175-9.183-1.575-14.793
		c-4.403-17.644-14.552-30.987-29.606-39.111c0.561,0.012,1.094,0.027,1.614,0.044c0.3,0.011,0.585,0.016,0.86,0.016
		c6.433,0,10.482-2.783,12.746-5.117c3.315-3.418,4.912-7.882,4.747-13.268c-0.186-6.039-0.184-10.927,0.008-15.383
		c0.234-5.496-1.354-10.062-4.722-13.576c-3.362-3.509-7.886-5.288-13.445-5.288l-0.212,0.001
		c-9.986,0.067-19.773,0.076-27.185,0.076c-4.32,0-8.64-0.003-12.961-0.007c-4.328-0.003-8.656-0.007-12.984-0.007
		c-4.367,0-8.734,0.003-13.101,0.007c-4.358,0.004-8.716,0.007-13.074,0.007c-11.061,0-19.485-0.025-27.315-0.082L-180.204,650.222
		L-180.204,650.222z"/>
</g>
<g>
	<path fill="#FFFFFF" d="M-329.675,665.313c0.693,0,1.394,0.019,2.104,0.058c12.442,0.685,21.779,7.279,29.571,16.424
		c10.381,12.184,16.531,26.61,21.586,41.557c3.479,10.283,5.992,20.835,8.139,31.475c0.322,1.596,0.542,2.729-1.559,3.375
		c-27.46,8.443-44.449,27.586-54.032,53.852c-6.208,17.014-7.365,34.592-3.556,52.363c0.614,2.866-0.137,3.417-2.656,3.417
		c-0.111,0-0.225-0.001-0.342-0.003c-4.524-0.076-9.051-0.097-13.577-0.097c-5.473,0-10.945,0.03-16.418,0.03
		c-5.519,0-11.038-0.031-16.556-0.031c-4.73,0-9.46,0.022-14.188,0.109c-0.057,0.001-0.113,0.002-0.168,0.002
		c-2.409,0-2.956-1.003-3.132-3.1c-0.48-5.725-0.973-11.453-1.68-17.15c-0.273-2.195,0.688-2.351,2.284-2.351
		c0.064,0,0.129,0.001,0.195,0.001c1.904,0.01,3.81,0.014,5.714,0.014c3.248,0,6.497-0.01,9.746-0.01
		c3.971,0,7.94,0.014,11.911,0.076c0.071,0.001,0.141,0.002,0.208,0.002c2.239,0,2.973-0.611,2.885-3.041
		c-0.201-5.617-0.157-11.248-0.014-16.869c0.052-2.059-0.498-2.698-2.537-2.698c-0.042,0-0.084,0-0.127,0.001
		c-3.125,0.04-6.251,0.049-9.376,0.049c-2.65,0-5.299-0.007-7.949-0.007c-3.599,0-7.196,0.013-10.794,0.069
		c-0.069,0.001-0.136,0.002-0.203,0.002c-2.291,0-2.993-0.673-2.831-3.072c0.371-5.482,0.596-10.982,0.618-16.477
		c0.009-2.33,0.629-3.076,2.93-3.076c0.066,0,0.132,0.001,0.201,0.002c3.227,0.058,6.455,0.07,9.683,0.07
		c2.753,0,5.504-0.01,8.257-0.01c3.019,0,6.037,0.012,9.055,0.061c0.073,0.001,0.145,0.002,0.214,0.002
		c2.242,0,2.96-0.625,2.875-3.046c-0.2-5.617-0.158-11.249-0.014-16.869c0.052-2.059-0.506-2.693-2.521-2.693
		c-0.049,0-0.098,0-0.148,0.001c-2.619,0.038-5.239,0.047-7.858,0.047c-2.677,0-5.355-0.01-8.032-0.01
		c-3.203,0-6.404,0.014-9.605,0.077c-0.076,0.001-0.15,0.002-0.222,0.002c-2.267,0-2.728-0.74-2.333-2.931
		c1.04-5.771,2.053-11.555,2.796-17.369c0.26-2.031,1.142-2.292,2.762-2.292c0.048,0,0.097,0,0.147,0
		c2.207,0.019,4.416,0.023,6.624,0.023c2.232,0,4.464-0.005,6.697-0.005c3.059,0,6.117,0.009,9.175,0.051
		c0.049,0,0.098,0.001,0.146,0.001c1.805,0,2.417-0.498,2.371-2.462c-0.139-5.871-0.127-11.749-0.005-17.62
		c0.039-1.87-0.439-2.509-2.267-2.509c-0.066,0-0.135,0.001-0.205,0.002c-2.419,0.057-4.839,0.072-7.26,0.072
		c-2.641,0-5.282-0.018-7.922-0.018c-0.688,0-1.376,0.001-2.064,0.004c-0.158,0-0.313,0.003-0.463,0.003
		c-1.142,0-1.988-0.123-1.428-1.933c5.633-18.204,12.357-35.885,25.223-50.435C-351.588,671.366-341.965,665.313-329.675,665.313
		 M-329.675,650.313c-15.475,0-29.324,6.789-41.162,20.179c-14.879,16.828-22.402,36.829-28.315,55.936
		c-2.246,7.257,0.439,12.437,2.24,14.879c0.146,0.198,0.308,0.408,0.486,0.625c-5.224,2.41-8.758,7.274-9.583,13.704
		c-0.708,5.539-1.712,11.245-2.68,16.616c-1.284,7.121,1.169,11.874,3.454,14.607c0.375,0.45,0.804,0.914,1.289,1.375
		c-4.623,3.122-7.438,8.449-7.462,14.996c-0.019,4.916-0.21,9.994-0.583,15.52c-0.461,6.841,2.192,11.218,4.5,13.687
		c0.551,0.589,1.209,1.206,1.986,1.803c-0.553,0.479-1.08,1-1.578,1.563c-1.845,2.089-4.809,6.637-3.939,13.643
		c0.655,5.277,1.12,10.619,1.618,16.554c0.845,10.076,8.11,16.847,18.08,16.847c0.146,0,0.296-0.002,0.448-0.005
		c4.048-0.074,8.34-0.106,13.909-0.106c2.745,0,5.49,0.008,8.235,0.016c2.773,0.008,5.547,0.016,8.321,0.016
		c2.75,0,5.5-0.008,8.25-0.016c2.723-0.007,5.445-0.015,8.167-0.015c5.246,0,9.479,0.03,13.325,0.095
		c0.202,0.003,0.4,0.005,0.594,0.005c6.073,0,10.847-2.096,14.189-6.229c2.314-2.862,4.736-7.845,3.134-15.328
		c-3.217-15.014-2.215-29.844,2.98-44.081c8.578-23.511,23.084-38.118,44.349-44.655c6.96-2.14,14.241-8.84,11.854-20.677
		c-2.659-13.176-5.402-23.762-8.634-33.316c-4.956-14.651-11.727-31.631-24.378-46.479c-11.707-13.741-24.845-20.83-40.164-21.673
		C-327.724,650.339-328.709,650.313-329.675,650.313L-329.675,650.313z"/>
</g>
<g>
	<path fill="#FFFFFF" d="M-230.94,738.622c0.583,0,1.075,0.415,1.657,1.416c6.365,10.945,10.346,22.678,11.408,35.275
		c0.222,2.638,0.747,3.473,2.494,3.473c0.499,0,1.098-0.068,1.817-0.181c2.994-0.473,5.897-0.704,8.709-0.704
		c16.231,0,29.438,7.696,39.78,21.052c15.38,19.86,18.746,42.419,12.865,66.63c-0.476,1.956-1.44,2.205-2.583,2.205
		c-0.39,0-0.801-0.029-1.22-0.029c-16.119,0.005-32.239,0.006-48.358,0.006c-7.999,0-15.998,0-23.997,0
		c-11.353,0-22.708-0.02-34.061-0.02c-12.516,0-25.03,0.023-37.544,0.123c-0.036,0-0.072,0-0.108,0
		c-3.146,0-4.112-1.109-4.688-3.914c-5.762-27.992-0.519-52.986,20.864-73.006c9.176-8.591,19.977-13.157,32.021-13.157
		c2.955,0,5.983,0.274,9.082,0.832c0.497,0.089,0.908,0.134,1.245,0.134c1.518,0,1.559-0.898,1.318-2.661
		c-1.146-8.37-3.59-16.316-7.918-23.58c-1.179-1.979-1.032-2.848,0.943-4.013c4.938-2.914,9.779-5.998,14.571-9.149
		C-231.951,738.897-231.415,738.622-230.94,738.622 M-230.94,723.622c-5.083,0-8.745,2.408-9.948,3.2
		c-5.362,3.526-9.795,6.31-13.951,8.762c-4.514,2.663-7.393,6.318-8.554,10.863c-1.164,4.554-0.374,9.179,2.348,13.748
		c0.591,0.991,1.14,2.011,1.649,3.062c-12.79,1.601-24.687,7.308-34.762,16.741c-12.41,11.619-20.772,25.279-24.854,40.602
		c-3.742,14.046-3.893,29.65-0.45,46.378c2.045,9.948,9.291,15.89,19.38,15.89h0.23c13.676-0.109,27.184-0.123,37.422-0.123
		c5.672,0,11.345,0.005,17.018,0.01c5.681,0.005,11.362,0.01,17.043,0.01h11.998h11.999c16.099,0,32.199-0.001,48.296-0.006
		l0.162,0.006c0.381,0.013,0.755,0.023,1.12,0.023c8.406,0,15.141-5.362,17.159-13.661c7.269-29.923,2.026-56.622-15.581-79.358
		c-13.542-17.487-31.284-26.772-51.329-26.867c-2.159-10.462-6.1-20.648-11.772-30.404
		C-220.975,724.487-228.095,723.622-230.94,723.622L-230.94,723.622z"/>
</g>
</svg>
