<?xml version="1.0" encoding="utf-8"?>
<!-- Generator: Adobe Illustrator 16.0.0, SVG Export Plug-In . SVG Version: 6.00 Build 0)  -->
<!DOCTYPE svg PUBLIC "-//W3C//DTD SVG 1.1//EN" "http://www.w3.org/Graphics/SVG/1.1/DTD/svg11.dtd">
<svg version="1.1" id="Capa_1" xmlns="http://www.w3.org/2000/svg" xmlns:xlink="http://www.w3.org/1999/xlink" x="0px" y="0px"
	 width="720px" height="1600px" viewBox="0 0 720 1600" enable-background="new 0 0 720 1600" xml:space="preserve">
<path fill-rule="evenodd" clip-rule="evenodd" fill="#FFFFFF" stroke="#FFFFFF" stroke-width="15" stroke-miterlimit="10" d="
	M811.317,699.992c5.013,4.687,9.776,9.642,14.61,14.519c3.293,3.323,3.627,6.565,1.017,9.1c-2.583,2.506-5.718,2.084-9.092-1.273
	c-4.867-4.844-9.866-9.568-14.502-14.625c-2.226-2.428-3.403-2.034-5.438,0.137c-4.78,5.097-9.814,9.958-14.8,14.86
	c-3.104,3.051-6.418,3.304-8.853,0.819c-2.496-2.548-2.193-5.658,0.969-8.853c5.096-5.146,10.168-10.317,15.398-15.323
	c1.703-1.631,1.877-2.542,0.057-4.268c-5.164-4.893-10.119-10.007-15.137-15.054c-3.454-3.473-3.865-6.446-1.313-9.102
	c2.627-2.732,5.766-2.329,9.376,1.264c5.134,5.107,10.294,10.189,15.323,15.396c1.369,1.418,2.13,1.334,3.453-0.024
	c5.401-5.544,10.904-10.989,16.399-16.44c1.829-1.815,3.979-2.531,6.482-1.451c2.163,0.935,3.179,2.672,3.411,4.93
	c0.137,2.258-1.182,3.757-2.613,5.191c-4.939,4.948-9.742,10.046-14.89,14.767C808.74,696.796,809.146,697.962,811.317,699.992z"/>
<g>
	<path fill="#FFFFFF" d="M1092.788,719.914c14.912,0,27.347,7.043,36.489,20.935c7.825,11.89,11.438,25.354,14.136,39.118
		c1.49,7.605,2.16,15.317,2.99,23.014c1.486,13.774-1.346,55.703-1.346,55.703c-1.214,7.386-2.142,14.818-3.366,22.201
		l-5.994,25.178c-4.618,15.694-10.434,30.907-18.301,45.295c-11.383,20.818-25.89,38.823-46.425,51.336
		c-12.54,7.641-26.139,12.248-40.793,13.628c-0.591,0.056-1.273-0.109-1.492,0.713c-1.75,0-3.499,0-5.249,0c-1.25,0-2.5,0-3.75,0
		c-0.75,0-1.5,0-2.25,0c-1.499,0-2.999,0-4.499,0c-2,0-4,0-5.999,0c-3.749-1.718-7.892-1.615-11.818-2.54
		c-21.626-5.091-38.942-16.911-54.184-32.823c-4.866-5.08-16.443-21.976-16.443-21.976c-11.431-18.641-19.289-38.776-24.751-59.869
		c-8.297-32.049-11.406-64.602-8.983-97.648c0.165-2.24,0.424-4.477,0.665-6.711c0.207-1.907,4.761-26.958,4.761-26.958
		c1.95-7.227,4.327-14.295,7.729-20.999c9.233-18.192,23.095-27.524,40.487-27.523c5.497,0,11.35,0.933,17.518,2.813
		c8.113,2.473,16.025,5.526,23.813,8.816c9.086,3.839,18.14,6.056,27.193,6.709c0.005,28.796,0.002,71.723,0.005,93.692
		c0,1.125-0.137,2.283,0.083,3.366c0.585,2.883,2.309,4.701,5.378,4.766c0.059,0.001,0.116,0.002,0.174,0.002
		c3.134,0,4.938-1.798,5.538-4.813c0.216-1.085,0.083-2.243,0.083-3.367c0.003-21.959,0.022-64.856-0.018-93.652
		c8.972-0.652,17.955-2.832,26.979-6.581c9.523-3.956,19.081-7.961,29.203-10.32
		C1084.664,720.414,1088.813,719.914,1092.788,719.914 M1092.788,704.914c-5.11,0-10.439,0.638-15.839,1.896
		c-11.145,2.597-21.255,6.798-31.031,10.86l-0.523,0.217c-7.454,3.096-14.962,4.938-22.313,5.472l-4.557,0.332l-4.52-0.326
		c-7.412-0.535-14.96-2.407-22.435-5.565c-9.522-4.022-17.554-6.992-25.277-9.347c-7.542-2.299-14.907-3.464-21.892-3.465
		c-11.729,0-22.401,3.204-31.723,9.524c-8.942,6.064-16.392,14.882-22.141,26.21c-3.484,6.865-6.292,14.453-8.836,23.879
		l-0.163,0.607l-0.112,0.619c-4.65,25.58-4.85,27.418-4.915,28.021l-0.112,1.034c-0.217,1.986-0.441,4.039-0.6,6.194
		c-2.507,34.191,0.663,68.679,9.421,102.511c6.262,24.181,14.925,45.099,26.485,63.951l0.198,0.323l0.215,0.313
		c2.049,2.99,12.546,18.195,17.985,23.873c18.767,19.594,38.909,31.712,61.578,37.048c2.1,0.495,4.004,0.759,5.684,0.991
		c1.199,0.166,2.841,0.393,3.348,0.596l2.976,1.363l3.249-0.011h5.999h4.499h2.25h3.75h5.249h11.531l0.54-2.03
		c13.385-2.401,26.138-7.262,38.019-14.501c20.831-12.692,37.769-31.321,51.781-56.949c7.765-14.201,14.153-29.986,19.529-48.257
		l0.111-0.378l0.091-0.383l5.994-25.178l0.121-0.506l0.085-0.513c0.649-3.913,1.216-7.827,1.765-11.612
		c0.531-3.666,1.033-7.128,1.605-10.611l0.116-0.707l0.048-0.715c0.299-4.426,2.875-43.664,1.293-58.323
		c-0.133-1.236-0.262-2.474-0.392-3.711c-0.695-6.663-1.415-13.553-2.792-20.579c-2.716-13.855-6.779-29.974-16.325-44.479
		C1129.886,714.488,1112.936,704.914,1092.788,704.914L1092.788,704.914z"/>
</g>
<g>
	<path fill="#FFFFFF" d="M800.641,631.67c36.182,0,65.513,29.331,65.513,65.513s-29.331,65.513-65.513,65.513
		s-65.513-29.331-65.513-65.513S764.459,631.67,800.641,631.67 M800.641,616.67c-44.395,0-80.513,36.118-80.513,80.513
		s36.118,80.513,80.513,80.513s80.513-36.118,80.513-80.513S845.035,616.67,800.641,616.67L800.641,616.67z"/>
</g>
</svg>
