<?xml version="1.0" encoding="utf-8"?>
<!-- Generator: Adobe Illustrator 16.0.0, SVG Export Plug-In . SVG Version: 6.00 Build 0)  -->
<!DOCTYPE svg PUBLIC "-//W3C//DTD SVG 1.1//EN" "http://www.w3.org/Graphics/SVG/1.1/DTD/svg11.dtd">
<svg version="1.1" id="Capa_1" xmlns="http://www.w3.org/2000/svg" xmlns:xlink="http://www.w3.org/1999/xlink" x="0px" y="0px"
	 width="720px" height="1600px" viewBox="0 0 720 1600" enable-background="new 0 0 720 1600" xml:space="preserve">
<g>
	<path fill="#FFFFFF" d="M-304.033,511c6.596,3.719,9.526,9.284,9.129,16.911c-0.267,5.118-1.712,11.711,0.816,14.969
		c2.145,2.762,9.233,1.663,14.128,2.317c95.288,12.734,172.391,86.747,189.022,181.531c1.207,6.875,2.117,13.821,2.724,20.774
		c0.241,2.765,1.19,3.45,3.497,3.45c0.142,0,0.29-0.002,0.442-0.007c2.523-0.081,5.049-0.121,7.575-0.121
		c2.639,0,5.278,0.043,7.913,0.13c8.398,0.276,14.786,6.961,14.706,15.168c-0.078,7.99-6.367,14.534-14.522,14.847
		c-2.704,0.104-5.414,0.162-8.123,0.162c-2.457,0-4.913-0.048-7.364-0.153c-0.193-0.008-0.377-0.013-0.553-0.013
		c-2.508,0-3.29,0.887-3.583,3.783C-95.9,860.187-132.299,917.803-196.65,957.58c-28.752,17.772-60.445,27.303-94.094,30.16
		c-3.46,0.294-4.527,1.198-4.309,4.639c0.306,4.811,0.164,9.658,0.046,14.486c-0.208,8.481-6.655,14.958-14.841,15.056
		c-0.063,0.001-0.127,0.001-0.19,0.001c-8.312,0-14.84-6.523-15.025-15.18c-0.103-4.828-0.174-9.668,0.03-14.489
		c0.126-2.984-0.484-4.113-3.907-4.504c-89.235-10.18-151.757-56.792-187.78-138.824c-8.875-20.211-13.337-41.767-15.11-63.788
		c-0.229-2.851-0.8-4.198-3.476-4.198c-0.244,0-0.505,0.011-0.785,0.034c-1.032,0.083-2.068,0.108-3.107,0.108
		c-1.833,0-3.674-0.082-5.509-0.082c-0.958,0-1.916,0.022-2.87,0.091c-0.627,0.045-1.242,0.067-1.844,0.067
		c-6.85,0-12.06-2.92-15.579-9.19c0-3.999,0-7.999,0-11.998c2.243-6.704,6.375-9.895,13.544-10.252
		c2.208-0.11,4.419-0.163,6.63-0.163c2.122,0,4.245,0.049,6.361,0.143c0.19,0.008,0.375,0.013,0.553,0.013
		c3.134,0,4.443-1.313,4.822-4.757c1.535-13.916,3.724-27.728,7.744-41.191c10.632-35.605,28.628-66.792,54.592-93.555
		c26.331-27.14,57.389-46.348,93.256-57.914c14.949-4.82,30.329-7.802,45.952-9.313c4.078-0.396,5.489-1.975,5.251-5.945
		c-0.249-4.149-0.2-8.331,0.01-12.491c0.362-7.169,3.549-11.301,10.253-13.544C-312.032,511-308.032,511-304.033,511
		 M-499.057,750.942c0.163,0,0.333-0.003,0.511-0.008c2.28-0.066,4.562-0.095,6.844-0.095c2.384,0,4.768,0.032,7.15,0.087
		c8.703,0.203,15.412,6.878,15.341,15.138c-0.071,8.29-6.755,14.771-15.539,14.953c-2.508,0.052-5.019,0.098-7.528,0.098
		c-2.157,0-4.313-0.034-6.465-0.128c-0.158-0.007-0.308-0.01-0.451-0.01c-2.377,0-2.779,0.972-2.522,3.436
		c3.85,36.979,16.769,70.43,39.842,99.577c34.107,43.086,78.739,67.545,133.404,73.65c0.447,0.05,0.847,0.08,1.202,0.08
		c1.676,0,2.349-0.665,2.238-3.002c-0.219-4.655-0.118-9.329-0.044-13.993c0.139-8.762,6.597-15.484,14.889-15.59
		c0.064-0.001,0.128-0.001,0.192-0.001c8.357,0,14.876,6.808,15.004,15.793c0.066,4.665,0.147,9.336-0.039,13.994
		c-0.083,2.072,0.451,2.863,1.964,2.863c0.341,0,0.732-0.04,1.177-0.115c5.904-0.991,11.871-1.626,17.761-2.686
		c82.959-14.935,148.422-86.768,155.813-170.777c0.246-2.787-0.678-3.21-2.772-3.21c-0.142,0-0.289,0.002-0.441,0.005
		c-2.685,0.059-5.375,0.118-8.062,0.118c-2.48,0-4.959-0.05-7.43-0.197c-7.69-0.458-13.907-7.408-13.841-15.055
		c0.064-7.687,6.324-14.394,14.033-14.891c0.99-0.064,1.983-0.084,2.978-0.084c1.671,0,3.346,0.057,5.018,0.057
		c0-0.019,0-0.038,0-0.057c1.529,0,3.064-0.062,4.593-0.062c0.97,0,1.938,0.025,2.901,0.105c0.255,0.021,0.491,0.032,0.708,0.032
		c2.132,0,2.525-1.04,2.277-3.432c-3.209-30.977-12.727-59.852-30-85.762c-34.139-51.211-81.958-80.439-143.225-87.479
		c-0.462-0.053-0.875-0.085-1.241-0.085c-1.634,0-2.323,0.646-2.222,2.991c0.217,4.988,0.185,9.999,0.008,14.991
		c-0.283,8.035-6.958,14.497-14.852,14.604c-0.065,0.001-0.129,0.001-0.194,0.001c-7.945,0-14.726-6.598-14.974-14.794
		c-0.146-4.828-0.197-9.671,0.019-14.492c0.109-2.437-0.466-3.321-2.324-3.321c-0.385,0-0.825,0.038-1.326,0.108
		c-8.898,1.244-17.758,2.569-26.535,4.581c-78.347,17.957-139.743,88.694-146.553,168.841
		C-502,750.46-501.115,750.942-499.057,750.942 M-300.096,496h-3.938h-11.998h-2.442l-2.316,0.775
		c-12.536,4.193-19.808,13.787-20.475,27.013c-0.091,1.804-0.15,3.54-0.178,5.222c-14.212,1.857-27.848,4.877-40.656,9.006
		c-38.158,12.305-71.607,33.079-99.418,61.745c-27.249,28.085-46.83,61.632-58.199,99.708c-3.131,10.485-5.421,21.564-7.222,35.1
		c-1.772,0.025-3.535,0.081-5.264,0.167c-13.227,0.66-22.824,7.931-27.021,20.474l-0.775,2.316v2.443v11.998v3.922l1.92,3.42
		c6.099,10.864,16.277,16.848,28.659,16.848c0.952,0,1.932-0.036,2.912-0.105c0.208-0.015,0.432-0.026,0.676-0.035
		c2.546,21.874,7.604,41.236,15.378,58.939c37.012,84.283,101.013,133.521,190.302,146.466c0.018,1.92,0.054,3.804,0.093,5.641
		c0.358,16.744,13.545,29.859,30.022,29.859l0.379-0.002c16.217-0.193,29.244-13.233,29.648-29.687l0.017-0.708
		c0.04-1.593,0.08-3.203,0.104-4.832c33.464-4.105,64.077-14.634,91.127-31.354c65.649-40.579,104.063-99.161,114.29-174.221
		c2.092-0.023,4.251-0.076,6.444-0.16c16.076-0.616,28.792-13.657,28.948-29.689c0.161-16.45-12.671-29.762-29.212-30.306
		c-2.023-0.067-4.064-0.11-6.094-0.128c-0.503-3.922-1.097-7.832-1.776-11.7c-4.366-24.884-12.686-48.805-24.728-71.096
		c-11.744-21.74-26.773-41.478-44.672-58.664c-17.896-17.185-38.223-31.398-60.414-42.246
		c-22.75-11.121-46.974-18.455-71.996-21.799c-0.689-0.092-1.372-0.161-2.043-0.214c0.036-0.468,0.067-0.943,0.092-1.424
		c0.696-13.354-5.249-24.277-16.741-30.757L-300.096,496L-300.096,496z M-310.075,621.798c0.134,0,0.266-0.001,0.401-0.003
		c7.695-0.104,15-3.162,20.564-8.607c5.577-5.458,8.798-12.726,9.071-20.467c0.019-0.536,0.036-1.066,0.052-1.592
		c50.694,8.958,89.771,34.887,119.156,78.967c12.925,19.388,21.561,41.471,25.749,65.797h-8.748v1.136
		c-12.635,3.51-21.914,15.132-22.028,28.712c-0.136,15.699,12.401,29.228,27.949,30.154c0.96,0.057,1.948,0.103,2.971,0.138
		c-12.076,71.66-69.853,131.228-141.845,144.188c-1.057,0.19-2.124,0.366-3.207,0.535l0-0.043
		c-0.244-17.146-13.423-30.579-30.002-30.579l-0.379,0.002c-16.391,0.209-29.436,13.541-29.701,30.352l-0.005,0.327
		c-44.593-7.943-81.547-30.147-110.036-66.136c-18.069-22.826-29.766-49.232-34.864-78.654c0.181-0.003,0.36-0.007,0.539-0.011
		c16.81-0.35,30.087-13.449,30.228-29.821c0.142-16.574-13.031-29.867-29.99-30.263c-0.325-0.007-0.648-0.015-0.968-0.021
		c11.432-68.156,65.654-126.903,133.306-142.409c3.896-0.893,7.85-1.646,11.785-2.311c0.011,0.418,0.023,0.841,0.036,1.27
		C-339.552,608.636-326.108,621.798-310.075,621.798L-310.075,621.798z"/>
</g>
<g>
	<path fill="#FFFFFF" d="M-320.812,647.01c2.595,1.363,3.372,3.681,3.774,6.433c2.662,18.206,5.246,36.427,8.22,54.584
		c2.597,15.849-1.309,29.208-13.806,39.676c-2.268,1.899-4.78,3.461-7.475,4.688c-0.972,0.443-1.356,0.913-1.271,2.083
		c2.18,30.076,4.303,60.154,6.448,90.233c0.37,5.194,0.787,10.384,1.182,15.575c0.951,12.5-8.053,23.951-19.845,25.238
		c-0.242,0.13-0.499,0.161-0.761,0.161c-0.248,0-0.5-0.028-0.748-0.028c-0.318,0-0.63,0.047-0.915,0.259c-1.71,0-3.422,0-5.132,0
		c-0.962-0.884-2.268-0.78-3.401-1.163c-10.665-3.604-16.968-13.604-16.092-25.244c1.451-19.29,2.776-38.59,4.153-57.889
		c1.111-15.578,2.197-31.157,3.373-46.729c0.105-1.39-0.224-2.027-1.467-2.651c-15.953-8.014-24.093-24.392-21.297-41.955
		c3.014-18.933,5.756-37.909,8.527-56.878c0.402-2.756,1.125-5.101,3.807-6.395c0.933,0,1.866,0,2.799,0
		c3.034,0.588,4.126,2.731,4.363,5.515c0.994,11.672,1.956,23.348,2.924,35.021c0.404,4.87,0.684,9.754,1.307,14.606
		c0.203,1.582,0.46,3.199,2.436,3.199c0.046,0,0.092,0,0.14-0.002c1.874-0.07,2.374-1.624,2.487-3.142
		c0.457-6.113,1.014-12.217,1.521-18.326c0.679-8.196,1.379-16.389,2.089-24.582c0.208-2.393,0.282-4.797,0.635-7.188
		c0.407-2.765,1.597-4.634,4.497-5.102c0.778,0,1.556,0,2.333,0c2.83,0.418,4.046,2.269,4.377,4.916
		c0.877,7.005,1.275,14.055,1.875,21.085c0.837,9.814,1.671,19.627,2.451,29.446c0.123,1.551,0.643,2.954,2.483,2.954
		c0.036,0,0.071,0,0.108-0.001c1.912-0.056,2.323-1.49,2.459-3.081c0.99-11.513,1.934-23.029,2.883-34.545
		c0.419-5.101,0.794-10.207,1.338-15.298c0.302-2.832,1.447-4.86,4.422-5.475C-322.679,647.01-321.745,647.01-320.812,647.01
		 M-317.113,632.01h-3.699h-2.8h-1.534l-1.501,0.311c-3.062,0.632-5.781,1.828-8.083,3.503c-2.56-1.879-5.631-3.142-9.084-3.652
		l-1.091-0.161h-1.103h-2.333h-1.202l-1.187,0.191c-3.39,0.547-6.392,1.793-8.902,3.63c-2.352-1.725-5.134-2.943-8.252-3.547
		l-1.414-0.274h-1.44h-2.799h-3.429l-3.088,1.49c-6.812,3.286-10.894,9.254-12.132,17.737l-0.805,5.513
		c-2.451,16.8-4.986,34.171-7.693,51.174c-3.388,21.283,5.154,41.396,22.06,53.334c-0.717,9.712-1.409,19.466-2.083,28.964
		l-0.734,10.327c-0.402,5.628-0.799,11.257-1.196,16.885c-0.948,13.428-1.927,27.313-2.953,40.946
		c-1.392,18.497,9.156,34.805,26.248,40.58c0.123,0.041,0.243,0.08,0.362,0.118l1.996,1.834h5.845h5.132h4.976l0.997-0.743
		c18.888-3.112,32.769-21.097,31.252-41.024c-0.124-1.628-0.25-3.254-0.375-4.88c-0.274-3.54-0.549-7.081-0.801-10.624
		l-1.741-24.467c-1.347-18.939-2.734-38.447-4.128-57.775c0.976-0.697,1.923-1.43,2.838-2.197
		c15.969-13.377,22.531-31.912,18.977-53.601c-2.457-14.996-4.691-30.356-6.852-45.21c-0.442-3.04-0.884-6.079-1.329-9.118
		c-1.201-8.215-5.118-14.118-11.643-17.543L-317.113,632.01L-317.113,632.01z"/>
</g>
<g>
	<path fill="#FFFFFF" d="M-236.823,647.01c3.229,1.336,4.119,2.625,4.119,6.16c0.006,69.352-0.033,138.703,0.038,208.055
		c0.014,12.268-8.989,22.938-20.641,24.386c-0.116,0.015-0.209,0.198-0.313,0.303c-2.178,0-4.355,0-6.532,0
		c-3.253-1.134-6.648-1.879-9.551-3.903c-7.638-5.332-11.496-12.649-10.646-21.91c2.031-22.12,4.363-44.213,6.565-66.317
		c0.378-3.786,0.817-7.571,1.042-11.37c0.161-2.717,1.543-4.61,3.426-6.351c1.483-1.368,3.624-2.66,4.062-4.352
		c0.46-1.772-1.968-3.183-3.063-4.794c-7.287-10.696-10.909-22.723-12.768-35.334c-1.521-10.322-2.146-20.708-0.564-31.108
		c2.413-15.869,9.638-29.144,21.482-39.95c6.244-5.697,13.403-9.951,21.013-13.515C-238.378,647.01-237.6,647.01-236.823,647.01
		 M-233.841,632.01h-2.982h-2.333h-3.338l-3.023,1.416c-9.963,4.666-18.063,9.906-24.762,16.019
		c-14.472,13.204-23.288,29.615-26.201,48.776c-1.623,10.671-1.447,21.967,0.554,35.549c2.083,14.136,6.019,26.126,11.985,36.457
		c-2.271,3.445-3.535,7.226-3.776,11.301c-0.156,2.627-0.436,5.333-0.732,8.199c-0.088,0.855-0.177,1.711-0.262,2.566
		c-0.665,6.678-1.342,13.351-2.019,20.025c-1.541,15.195-3.135,30.908-4.558,46.411c-1.318,14.374,4.719,27.009,16.998,35.581
		c4.104,2.861,8.272,4.186,11.316,5.152c0.682,0.217,1.326,0.421,1.883,0.615l2.398,0.836h2.539h6.532h6.213l1.559-1.559
		c7.171-2.052,13.677-6.265,18.69-12.194c6.132-7.251,9.503-16.468,9.492-25.952c-0.05-49.063-0.045-98.954-0.04-147.201
		c0.002-20.279,0.004-40.559,0.002-60.838c0-9.607-4.502-16.343-13.382-20.018L-233.841,632.01L-233.841,632.01z"/>
</g>
</svg>
