<?xml version="1.0" encoding="utf-8"?>
<!-- Generator: Adobe Illustrator 16.0.0, SVG Export Plug-In . SVG Version: 6.00 Build 0)  -->
<!DOCTYPE svg PUBLIC "-//W3C//DTD SVG 1.1//EN" "http://www.w3.org/Graphics/SVG/1.1/DTD/svg11.dtd">
<svg version="1.1" id="Capa_1" xmlns="http://www.w3.org/2000/svg" xmlns:xlink="http://www.w3.org/1999/xlink" x="0px" y="0px"
	 width="432px" height="648px" viewBox="0 0 432 648" enable-background="new 0 0 432 648" xml:space="preserve">
<g>
	<path fill="#FFFFFF" d="M24.023,227.176c10.453,0.055,20.907,0.175,31.359,0.175c3.278,0,6.556-0.012,9.834-0.041
		c0.051,0,0.102,0,0.151,0c3.005,0,3.875,0.807,3.725,3.878c-0.268,5.483-0.106,10.989-0.054,16.485
		c0.014,1.418-0.102,2.262-1.892,2.262c-0.019,0-0.038,0-0.058,0c-14.354-0.144-28.71-0.187-43.066-0.261
		C24.023,242.174,24.023,234.675,24.023,227.176 M9.023,212.097v15.079v22.497v14.923l14.923,0.077
		c3.354,0.017,6.709,0.033,10.063,0.048c10.799,0.05,21.967,0.102,32.929,0.211l0.208,0.001c6.047,0,9.94-2.649,12.142-4.872
		c3.2-3.231,4.798-7.448,4.75-12.533c-0.011-1.137-0.026-2.275-0.042-3.414c-0.058-4.266-0.112-8.295,0.078-12.195
		c0.282-5.761-1.326-10.521-4.78-14.148c-3.452-3.625-8.137-5.462-13.927-5.462l-0.274,0.001c-3.062,0.027-6.234,0.041-9.712,0.041
		c-6.729,0-13.601-0.051-20.245-0.101c-3.678-0.027-7.356-0.055-11.035-0.074L9.023,212.097L9.023,212.097z"/>
</g>
<g>
	<path fill="#FFFFFF" d="M407.976,227.176c0,7.499,0,14.998,0,22.497c-14.356,0.074-28.712,0.117-43.066,0.261
		c-0.019,0-0.038,0-0.058,0c-1.791,0-1.904-0.845-1.892-2.262c0.051-5.745,0.153-11.497-0.04-17.236
		c-0.084-2.453,0.646-3.099,2.984-3.099c0.043,0,0.086,0,0.129,0c6.033,0.058,12.067,0.074,18.102,0.074
		c6.582,0,13.164-0.02,19.746-0.028C405.246,227.383,406.61,227.248,407.976,227.176 M422.976,211.36l-15.793,0.836
		c-0.509,0.027-1.017,0.061-1.525,0.095c-0.7,0.047-1.361,0.092-1.792,0.092l-7.227,0.012c-4.168,0.008-8.336,0.016-12.504,0.016
		c-6.991,0-12.697-0.023-17.959-0.074l-0.271-0.001c-5.411,0-9.852,1.756-13.199,5.219c-3.354,3.47-4.961,7.975-4.776,13.39
		c0.153,4.551,0.106,9.145,0.058,14.009l-0.025,2.584c-0.045,5.084,1.555,9.299,4.754,12.527c2.201,2.22,6.093,4.867,12.137,4.867
		l0.22-0.001c10.951-0.11,22.119-0.162,32.919-0.211c3.354-0.016,6.709-0.031,10.063-0.048l14.923-0.077v-14.923v-22.497V211.36
		L422.976,211.36z"/>
</g>
<g>
	<path fill="#FFFFFF" d="M359.363,342.516c6.781,0,13.354,3.289,17.448,9.638c5.581,8.652,4.325,19.25-3.385,26.99
		c-19.575,19.65-39.209,39.242-58.819,58.855c-8.305,8.305-16.64,16.576-24.889,24.936c-1.402,1.422-2.83,2.102-4.848,2.211
		c-30.551,1.646-61.098,3.371-91.644,5.078c-8.479,0.475-16.954,1.021-25.438,1.361c-1.78,0.072-2.673,1.061-3.711,2.098
		c-13.165,13.16-26.372,26.281-39.444,39.533c-0.989,1.002-1.715,1.54-2.47,1.54c-0.705,0-1.435-0.47-2.426-1.47
		c-21.819-21.998-43.745-43.893-65.711-65.744c-1.743-1.734-2.023-2.629-0.092-4.551c29.131-28.998,58.178-58.084,87.192-87.199
		c1.451-1.456,2.924-1.918,4.892-1.918c0.012,0,0.024,0,0.037,0c10.797,0.035,21.598,0.041,32.395,0.041
		c5.344,0,10.687-0.001,16.031-0.001c2.225,0,4.447,0,6.672,0.001c0.233,0,0.469,0,0.703,0c10.452,0,20.904-0.024,31.355-0.024
		c7.682,0,15.359,0.013,23.04,0.06c9.63,0.059,17.874,6.717,20.232,15.938c2.313,9.041-1.777,18.709-9.939,23.484
		c-3.634,2.126-7.585,2.801-11.749,2.801c-0.035,0-0.071,0-0.107,0c-4.683-0.013-9.367-0.016-14.05-0.016
		c-4.384,0-8.771,0.003-13.153,0.003c-8.176,0-16.347-0.01-24.521-0.063c-0.046,0-0.093,0-0.138,0c-2.692,0-3.849,0.527-3.684,3.625
		c0.286,5.357,0.144,10.742,0.045,16.113c-0.036,1.908,0.219,2.869,2.509,2.869c0.019,0,0.037,0,0.056,0
		c18.491-0.111,36.983,0.014,55.475-0.137c12.108-0.098,22.138-5.123,30.608-13.623c18.521-18.586,37.056-37.156,55.666-55.65
		C348.092,344.732,353.799,342.516,359.363,342.516 M359.363,327.516c-9.818,0-19.207,3.956-26.434,11.14
		c-13.934,13.845-27.795,27.704-41.125,41.065c0.596-4.448,0.366-9.042-0.787-13.55c-4.074-15.928-18.332-27.121-34.674-27.221
		c-6.777-0.041-14.128-0.06-23.131-0.06c-5.231,0-10.463,0.006-15.695,0.012c-5.22,0.007-10.44,0.013-15.66,0.013h-0.703
		l-6.672-0.001l-8.018,0.001h-8.013c-10.284,0-21.32-0.005-32.346-0.041h-0.024h-0.062c-6.109,0-11.329,2.129-15.515,6.327
		c-34.884,35.006-61.762,61.886-87.152,87.159c-3.817,3.8-5.753,8.131-5.753,12.874c0,7.121,4.4,11.5,5.846,12.939
		c25.662,25.527,46.52,46.396,65.643,65.676c3.887,3.919,8.287,5.906,13.076,5.906c7.222,0,11.681-4.519,13.146-6.004
		c9.986-10.123,20.238-20.356,30.152-30.253c2.374-2.369,4.748-4.739,7.121-7.109c5.027-0.236,10.045-0.529,14.934-0.813
		c2.183-0.127,4.365-0.254,6.548-0.376l16.808-0.94c24.519-1.373,49.873-2.792,74.804-4.136c5.719-0.311,10.67-2.55,14.721-6.657
		c5.999-6.078,12.169-12.235,18.136-18.19c2.228-2.223,4.454-4.445,6.68-6.671c5.422-5.422,10.845-10.842,16.267-16.263
		c13.962-13.954,28.398-28.384,42.573-42.613c12.65-12.7,14.806-31.068,5.362-45.707
		C382.749,333.687,371.515,327.516,359.363,327.516L359.363,327.516z"/>
</g>
<g>
	<path fill="#FFFFFF" d="M146.027,165.352c0.054,0,0.108,0,0.164,0.001c7.139,0.087,14.281,0.122,21.421,0.122
		c7.606,0,15.21-0.039,22.816-0.097c0.034,0,0.068,0,0.102,0c2.346,0,3.047,0.631,3.013,3.076
		c-0.059,4.351-0.527,8.737,0.495,13.065c2.438,10.326,11.544,17.632,21.577,17.632c0.708,0,1.42-0.036,2.135-0.11
		c11.956-1.241,20.52-10.347,20.753-22.11c0.062-3.123,0.095-6.25-0.003-9.371c-0.049-1.588,0.423-2.153,2.063-2.153
		c0.009,0,0.017,0,0.025,0c7.942,0.026,15.886,0.047,23.827,0.047c7.555,0,15.106-0.019,22.66-0.069c0.015,0,0.029,0,0.045,0
		c2.621,0,2.248,1.543,2.248,3.153c-0.008,14.621,0.065,29.244-0.066,43.863c-0.022,2.583,0.402,3.766,2.951,3.766
		c0.195,0,0.402-0.007,0.624-0.021c1.55-0.097,3.106-0.163,4.665-0.163c2.306,0,4.616,0.146,6.918,0.556
		c10.981,1.96,19.109,11.911,18.609,22.927c-0.519,11.445-9.265,20.719-20.51,21.585c-2.049,0.158-4.11,0.235-6.171,0.235
		c-1.315,0-2.63-0.031-3.94-0.093c-0.164-0.008-0.322-0.012-0.471-0.012c-2.059,0-2.695,0.769-2.675,3.116
		c0.124,14.746-0.02,29.493,0.132,44.237c0.027,2.737-0.612,3.51-3.314,3.51c-0.053,0-0.105,0-0.16-0.001
		c-7.311-0.077-14.623-0.114-21.936-0.114c-7.435,0-14.868,0.038-22.302,0.108c-0.045,0-0.089,0-0.133,0
		c-2.541,0-3.187-0.722-3.14-3.292c0.082-4.472,0.52-8.978-0.613-13.428c-2.541-9.985-11.762-17.139-21.667-17.139
		c-0.828,0-1.661,0.05-2.495,0.152c-11.453,1.407-19.936,10.628-20.185,21.944c-0.011,0.5,0.01,1.001-0.024,1.499
		c-0.229,3.325,1.433,7.751-0.694,9.659c-0.769,0.69-1.986,0.888-3.378,0.888c-1.879,0-4.078-0.361-5.928-0.361
		c-0.03,0-0.06,0-0.09,0c-2.104,0.014-4.209,0.019-6.314,0.019c-3.019,0-6.037-0.009-9.056-0.009c-4.163,0-8.328-0.037-12.491-0.037
		c-3.21,0-6.418,0.021-9.627,0.099c-0.105,0.002-0.208,0.004-0.308,0.004c-2.346,0-3.036-0.724-3.012-3.277
		c0.136-14.746,0.002-29.493,0.125-44.238c0.02-2.365-0.517-3.357-2.642-3.357c-0.203,0-0.42,0.009-0.652,0.027
		c-1.162,0.088-2.331,0.124-3.5,0.124c-1.706,0-3.415-0.075-5.114-0.168c-12.419-0.688-21.71-10.156-21.869-22.2
		c-0.159-12.083,9.247-21.995,21.735-22.792c1.671-0.107,3.354-0.173,5.033-0.173c1.323,0,2.644,0.042,3.958,0.136
		c0.209,0.015,0.404,0.023,0.587,0.023c2.019,0,2.478-0.938,2.461-3.133c-0.109-14.621,0.016-29.243-0.116-43.863
		C142.548,166.385,143.068,165.352,146.027,165.352 M146.027,150.352c-5.478,0-9.983,1.743-13.39,5.181
		c-5.141,5.188-5.083,11.631-5.063,13.749c0.068,7.583,0.067,15.328,0.066,22.818c0,3.054-0.001,6.153,0.003,9.271
		c-9.019,1.043-17.288,5.119-23.465,11.606c-6.746,7.084-10.39,16.378-10.26,26.17c0.253,19.191,14.59,34.628,33.725,36.785
		c-0.006,3.403-0.005,6.787-0.005,10.117c0.001,7.411,0.002,15.074-0.067,22.575c-0.05,5.448,1.632,9.933,5,13.332
		c2.298,2.319,6.421,5.084,13.012,5.084c0.214,0,0.436-0.004,0.663-0.009c2.691-0.064,5.636-0.095,9.272-0.095
		c2.075,0,4.151,0.01,6.227,0.02c2.087,0.009,4.175,0.018,6.262,0.018c1.504,0,3.006,0.002,4.509,0.005
		c1.516,0.002,3.033,0.005,4.549,0.005c2.138,0,4.277-0.005,6.416-0.02c0.265,0.002,1.069,0.073,1.601,0.121
		c1.206,0.107,2.707,0.24,4.315,0.24c5.396,0,9.902-1.59,13.396-4.724c7.146-6.41,6.189-15.149,5.781-18.881
		c-0.044-0.399-0.102-0.927-0.121-1.207c0.04-0.706,0.039-1.298,0.038-1.707v-0.212c0.084-3.837,2.97-6.875,7.017-7.372
		c0.22-0.027,0.443-0.041,0.666-0.041c3.113,0,6.313,2.619,7.131,5.839c0.399,1.565,0.316,4.088,0.229,6.759
		c-0.03,0.898-0.059,1.797-0.076,2.693c-0.1,5.479,1.555,9.993,4.916,13.417c3.355,3.417,7.804,5.15,13.222,5.15l0.279-0.001
		c7.519-0.071,14.974-0.107,22.155-0.107c7.375,0,14.702,0.038,21.777,0.113l0.318,0.002c5.453,0,9.929-1.729,13.302-5.135
		c3.382-3.417,5.068-7.968,5.012-13.528c-0.078-7.653-0.077-15.474-0.075-23.037c0.001-3.093,0.002-6.234-0.003-9.393
		c18.41-1.741,32.847-17.022,33.698-35.807c0.844-18.575-12.466-35.072-30.958-38.373c-0.896-0.16-1.804-0.294-2.729-0.405
		c0.022-6.865,0.016-13.717,0.008-20.421c-0.004-4.134-0.008-8.268-0.006-12.401l0.004-0.154c0.052-1.959,0.208-7.921-4.681-12.94
		c-2.252-2.312-6.261-5.067-12.571-5.067h-0.063l-0.108,0c-6.915,0.046-14.295,0.068-22.533,0.068
		c-8.578,0-17.213-0.025-23.777-0.047h-0.025h-0.024c-6.266,0-10.225,2.733-12.446,5.026c-2.223,2.292-4.83,6.338-4.635,12.595
		c0.09,2.898,0.053,5.85-0.002,8.608c-0.082,4.157-2.881,7.026-7.305,7.485c-0.194,0.021-0.392,0.03-0.586,0.03
		c-3.16,0-6.16-2.613-6.979-6.079c-0.342-1.448-0.263-3.805-0.178-6.301c0.035-1.04,0.069-2.078,0.083-3.114
		c0.075-5.355-1.582-9.792-4.923-13.182c-3.335-3.382-7.739-5.098-13.088-5.098l-0.211,0.001
		c-8.717,0.066-15.931,0.096-22.707,0.096c-7.636,0-14.583-0.04-21.237-0.121L146.027,150.352L146.027,150.352z"/>
</g>
<g>
	<path fill="#FFFFFF" d="M357.092,278.255c0.396,0,0.867,0.173,1.475,0.529c11.604,6.799,23.273,13.485,34.912,20.225
		c0.694,0.403,1.3,0.961,1.912,1.421c-0.436,0.826-0.708,1.384-1.018,1.919c-2.932,5.066-5.938,10.091-8.771,15.213
		c-0.571,1.034-1.06,1.564-1.772,1.564c-0.427,0-0.934-0.189-1.587-0.572c-11.601-6.804-23.25-13.525-34.933-20.188
		c-1.567-0.895-1.778-1.605-0.853-3.145c3.08-5.123,6.067-10.304,8.983-15.522C355.97,278.755,356.421,278.255,357.092,278.255
		 M357.092,263.255L357.092,263.255L357.092,263.255c-2.9,0-10.141,0.89-14.744,9.126c-3.014,5.393-5.873,10.335-8.745,15.111
		c-3.255,5.415-2.978,10.231-2.171,13.319c0.808,3.09,2.928,7.435,8.443,10.583c12.472,7.113,23.847,13.687,34.779,20.099
		c3.024,1.772,6.024,2.633,9.176,2.633c2.932,0,10.256-0.907,14.899-9.306c1.897-3.431,3.864-6.795,5.946-10.357
		c0.896-1.532,1.791-3.065,2.68-4.601c0.385-0.666,0.68-1.236,0.966-1.788c0.101-0.195,0.211-0.408,0.337-0.646l5.967-11.311
		l-10.225-7.681l-0.186-0.149c-0.653-0.525-1.746-1.405-3.209-2.253c-3.766-2.18-7.523-4.349-11.281-6.518
		c-7.744-4.469-15.751-9.09-23.574-13.674C363.223,264.126,360.174,263.255,357.092,263.255L357.092,263.255z"/>
</g>
<g>
	<path fill="#FFFFFF" d="M48.067,158.112c0.057,0,0.117,0.003,0.181,0.01c0.615,0.325,1.394,0.704,2.143,1.137
		c11.217,6.473,22.401,13.005,33.671,19.386c2.102,1.19,2.449,2.078,1.115,4.201c-3.046,4.849-5.843,9.857-8.616,14.87
		c-0.526,0.953-0.966,1.453-1.628,1.453c-0.389,0-0.854-0.172-1.458-0.525c-11.716-6.855-23.497-13.599-35.243-20.401
		c-0.775-0.449-2.017-0.749-1.189-2.169c3.322-5.703,6.624-11.417,9.942-17.123C47.205,158.573,47.393,158.112,48.067,158.112
		 M48.067,143.112c-5.867,0-11.129,3.122-14.081,8.352c-1.475,2.536-2.945,5.071-4.415,7.606c-1.828,3.152-3.655,6.304-5.489,9.452
		c-2.342,4.023-2.931,8.597-1.66,12.884c0.892,3.007,3.098,7.164,8.542,9.96c3.967,2.297,7.936,4.586,11.904,6.875
		c7.564,4.363,15.386,8.875,23.031,13.348c2.924,1.711,5.964,2.579,9.034,2.579c2.909,0,10.169-0.896,14.757-9.197
		c2.707-4.894,5.372-9.662,8.189-14.146c2.903-4.621,3.773-9.35,2.585-14.056c-1.188-4.704-4.22-8.465-9.013-11.178
		c-8.047-4.556-16.217-9.287-24.119-13.862c-3.147-1.823-6.294-3.645-9.445-5.462c-0.836-0.483-1.62-0.886-2.191-1.18
		c-0.156-0.08-0.305-0.156-0.443-0.229l-2.544-1.344l-2.861-0.307C49.256,143.145,48.657,143.112,48.067,143.112L48.067,143.112z"/>
</g>
<g>
	<path fill="#FFFFFF" d="M383.886,158.114c1.007,0,1.159,0.858,1.477,1.399c3.08,5.27,6.039,10.61,9.197,15.832
		c1.033,1.708,0.375,2.292-1.028,3.097c-11.671,6.687-23.32,13.411-34.938,20.188c-0.614,0.358-1.1,0.559-1.521,0.559
		c-0.61,0-1.084-0.421-1.615-1.39c-2.874-5.241-5.902-10.399-8.954-15.541c-0.841-1.418-0.977-2.187,0.732-3.156
		c11.81-6.696,23.546-13.519,35.306-20.302c0.427-0.246,0.853-0.494,1.171-0.679C383.773,158.117,383.83,158.114,383.886,158.114
		 M383.886,143.114c-0.493,0-0.995,0.022-1.491,0.066l-3.33,0.294l-2.891,1.68l-1.125,0.652c-2.845,1.641-5.688,3.283-8.529,4.925
		c-8.74,5.051-17.777,10.273-26.682,15.322c-5.457,3.093-7.577,7.407-8.395,10.482c-1.186,4.458-0.46,8.958,2.158,13.373
		c3.334,5.618,6.089,10.333,8.704,15.102c4.54,8.283,11.839,9.178,14.768,9.178c3.108,0,6.078-0.851,9.079-2.603
		c10.971-6.4,22.366-12.985,34.836-20.129c4.521-2.591,7.4-6.176,8.561-10.656c0.798-3.085,1.072-7.883-2.154-13.218
		c-1.875-3.101-3.668-6.231-5.566-9.544c-1.086-1.896-2.173-3.792-3.273-5.68C394.266,143.787,386.268,143.114,383.886,143.114
		L383.886,143.114z"/>
</g>
<g>
	<path fill="#FFFFFF" d="M74.973,278.235c0.569,0,0.998,0.384,1.468,1.219c2.994,5.317,6.029,10.613,9.145,15.86
		c0.797,1.343,0.796,2.103-0.656,2.933c-11.894,6.794-23.755,13.645-35.627,20.479c-0.325,0.187-0.645,0.379-0.968,0.566
		c-0.147,0.045-0.279,0.065-0.396,0.065c-0.731,0-0.918-0.785-1.198-1.265c-3.135-5.381-6.15-10.833-9.358-16.168
		c-0.935-1.556-0.406-2.064,0.896-2.81c11.783-6.742,23.549-13.512,35.27-20.359C74.127,278.416,74.583,278.236,74.973,278.235
		 M74.973,263.235L74.973,263.235h-0.002c-3.094,0-6.036,0.841-8.991,2.568c-10.234,5.979-21.076,12.237-35.15,20.29
		c-4.424,2.533-7.25,6.059-8.402,10.482c-0.794,3.049-1.075,7.792,2.098,13.073c1.899,3.159,3.715,6.338,5.637,9.703
		c1.128,1.976,2.257,3.952,3.401,5.919c4.269,8.425,12.06,9.085,14.375,9.085c1.596,0,3.193-0.238,4.747-0.709l1.661-0.504
		l1.502-0.868l0.553-0.324l0.388-0.228l8.089-4.659c9.008-5.189,18.323-10.555,27.492-15.793c5.329-3.046,7.408-7.325,8.214-10.379
		c0.808-3.061,1.1-7.84-2.098-13.231c-2.746-4.623-5.68-9.713-8.975-15.565C85.013,264.1,77.845,263.235,74.973,263.235
		L74.973,263.235z"/>
</g>
</svg>
