<?xml version="1.0" encoding="utf-8"?>
<!-- Generator: Adobe Illustrator 16.0.0, SVG Export Plug-In . SVG Version: 6.00 Build 0)  -->
<!DOCTYPE svg PUBLIC "-//W3C//DTD SVG 1.1//EN" "http://www.w3.org/Graphics/SVG/1.1/DTD/svg11.dtd">
<svg version="1.1" id="Capa_1" xmlns="http://www.w3.org/2000/svg" xmlns:xlink="http://www.w3.org/1999/xlink" x="0px" y="0px"
	 width="432px" height="648px" viewBox="0 0 432 648" enable-background="new 0 0 432 648" xml:space="preserve">
<g>
	<path fill="#FFFFFF" d="M219.012,110.953c5.361,0.79,8.49,4.997,12.166,8.213c12.121,10.608,24.207,21.258,36.258,31.947
		c13.92,12.347,27.9,24.625,41.822,36.97c11.117,9.86,22.273,19.679,33.434,29.493c11.91,10.474,23.787,20.985,35.693,31.464
		c7.779,6.848,15.514,13.748,23.326,20.562c7.939,6.927,6.119,18.176-3.58,21.636c-1.323,0.472-2.58,0.684-3.783,0.684
		c-3.592,0-6.688-1.896-9.549-4.43c-3.367-2.98-6.771-5.916-10.146-8.885c-3.367-2.964-6.617-6.063-10.172-8.89
		c-0.891,1.015-0.451,2.179-0.451,3.227c-0.023,64.234-0.023,128.47-0.021,192.704c0,5.732,0.006,5.72,5.84,5.754
		c0.084,0.001,0.166,0.001,0.25,0.001c0.696,0,1.395-0.016,2.092-0.016c1.465,0,2.927,0.069,4.361,0.505
		c5.338,1.617,9.029,6.269,9.143,11.529c0.115,5.458-3.152,9.536-9.201,11.483c-106.986,0-213.973,0-320.959,0
		c-6.344-2.043-9.84-6.87-9.128-12.602c0.784-6.309,5.899-10.673,12.768-10.894c8.847-0.284,8.847-0.284,8.847-9.132
		c0-62.978,0-125.955-0.008-188.933c0-1.111,0.167-2.236-0.239-3.695c-4.862,3.612-9.026,7.81-13.479,11.65
		c-2.645,2.282-5.25,4.626-7.901,6.897c-2.905,2.488-6.114,3.673-9.15,3.673c-4.72,0-9.023-2.864-11.115-8.146
		c-1.813-4.575-0.574-9.755,3.413-13.28C47.033,254.979,64.562,239.55,82.07,224.1c15.823-13.962,31.627-27.946,47.446-41.913
		c13.852-12.231,27.715-24.451,41.593-36.653c11.345-9.976,22.694-19.95,33.934-30.043c2.398-2.153,4.901-3.747,7.97-4.538
		C215.013,110.953,217.012,110.953,219.012,110.953 M220.111,95.953h-1.1h-5.999h-1.902l-1.841,0.475
		c-5.143,1.325-9.803,3.91-14.249,7.902c-10.938,9.822-22.193,19.719-33.078,29.29l-0.739,0.65
		c-13.099,11.517-26.711,23.513-41.616,36.673c-6.993,6.174-13.983,12.352-20.974,18.53c-8.821,7.796-17.642,15.591-26.469,23.38
		c-6.389,5.638-12.78,11.272-19.171,16.907c-11.128,9.811-22.256,19.622-33.371,29.448c-8.694,7.686-11.608,19.479-7.422,30.042
		c4.304,10.868,13.907,17.621,25.06,17.621c5.48,0,10.961-1.723,15.773-4.911c0.005,51.723,0.005,103.439,0.005,155.161
		c-11.502,2.531-20.03,11.513-21.5,23.333c-1.607,12.927,6.195,24.473,19.415,28.73l2.242,0.722h2.356h320.959h2.355l2.242-0.722
		c12.348-3.975,19.857-13.969,19.6-26.081c-0.254-11.784-8.206-22.057-19.789-25.565c-0.643-0.195-1.275-0.357-1.893-0.493
		c-0.002-49.814-0.002-102.152,0.012-155.071c4.914,3.324,9.967,4.949,15.328,4.949c2.96,0,5.928-0.523,8.822-1.556
		c9.506-3.391,16.254-11.081,18.053-20.572c1.842-9.711-1.767-19.617-9.65-26.496c-4.854-4.233-9.777-8.589-14.539-12.801
		c-2.91-2.575-5.821-5.149-8.738-7.717c-5.466-4.811-10.926-9.629-16.387-14.447c-6.434-5.677-12.868-11.354-19.312-17.021
		c-10.737-9.443-22.159-19.495-33.387-29.452c-6.878-6.099-13.771-12.182-20.661-18.264c-6.943-6.127-14.122-12.463-21.16-18.706
		c-12.192-10.814-24.416-21.584-36.332-32.013c-0.518-0.453-1.133-1.046-1.785-1.674c-3.625-3.492-9.102-8.769-18.072-10.091
		L220.111,95.953L220.111,95.953z"/>
</g>
<g>
	<path fill="#FFFFFF" d="M335.996,140.156c7.245,0,14.489,0.027,21.734,0.083c6.57,0.05,11.146,5.061,11.164,12.005
		c0.053,19.599,0.018,39.198,0.018,59.813c-5.439-4.781-10.271-9.015-15.09-13.264c-16.568-14.609-33.074-29.29-49.756-43.768
		c-2.791-2.423-3.174-4.749-1.818-7.799c1.959-4.401,5.375-6.939,10.168-6.976C320.274,140.188,328.136,140.156,335.996,140.156
		 M335.996,125.156c-7.765,0-15.737,0.032-23.697,0.093c-10.485,0.081-19.365,6.016-23.754,15.876
		c-4.076,9.167-1.949,18.595,5.689,25.226c12.242,10.625,24.616,21.562,36.583,32.138c4.36,3.853,8.72,7.706,13.084,11.554
		c3.257,2.872,6.521,5.737,9.972,8.769l5.138,4.512l24.901,21.885v-33.152c0-5.923,0.004-11.762,0.006-17.541
		c0.008-14.565,0.014-28.322-0.023-42.311c-0.041-15.259-11.239-26.852-26.05-26.965
		C350.673,125.184,343.321,125.156,335.996,125.156L335.996,125.156z"/>
</g>
<g>
	<path fill="#FFFFFF" d="M178.85,293.847c10.739,0,21.009,6.084,26.495,16.175c2.102,3.867,4.814,6.7,9.336,7.156
		c0.493,0.05,0.972,0.074,1.438,0.074c4.717,0,8.021-2.52,10.368-6.856c5.709-10.541,14.635-16.211,26.617-16.41
		c0.174-0.003,0.35-0.004,0.521-0.004c16.979-0.001,30.31,13.839,30.059,33.259c-0.287,9.291-4.775,19.52-10.832,29.08
		c-12.006,18.953-27.643,34.278-46.666,46.242c-3.455,2.174-6.716,3.385-10.014,3.385c-2.988,0-6.007-0.993-9.233-3.163
		c-22.69-15.263-41.137-34.29-53.478-58.862c-4.095-8.152-6.542-16.791-4.504-26.019c2.856-12.936,13.035-22.074,26.176-23.812
		C176.373,293.927,177.615,293.847,178.85,293.847 M178.849,278.847c-1.895,0-3.807,0.126-5.684,0.374
		c-19.416,2.568-34.667,16.482-38.855,35.448c-2.533,11.472-0.654,23.243,5.747,35.985c12.871,25.627,32.01,46.751,58.51,64.576
		c5.641,3.794,11.564,5.717,17.605,5.717c6.027,0,11.915-1.86,18-5.688c21.067-13.249,38.345-30.379,51.352-50.913
		c8.386-13.236,12.811-25.565,13.153-36.644l0.005-0.135l0.002-0.135c0.177-13.755-4.652-26.322-13.6-35.385
		c-8.318-8.427-19.49-13.067-31.456-13.067c-0.258,0-0.517,0.002-0.773,0.006c-15.437,0.257-28.339,7.231-36.835,19.775
		C207.549,286.37,193.697,278.847,178.849,278.847L178.849,278.847z"/>
</g>
</svg>
