<?xml version="1.0" encoding="utf-8"?>
<!-- Generator: Adobe Illustrator 16.0.0, SVG Export Plug-In . SVG Version: 6.00 Build 0)  -->
<!DOCTYPE svg PUBLIC "-//W3C//DTD SVG 1.1//EN" "http://www.w3.org/Graphics/SVG/1.1/DTD/svg11.dtd">
<svg version="1.1" id="Capa_1" xmlns="http://www.w3.org/2000/svg" xmlns:xlink="http://www.w3.org/1999/xlink" x="0px" y="0px"
	 width="432px" height="648px" viewBox="0 0 432 648" enable-background="new 0 0 432 648" xml:space="preserve">
<g>
	<path fill="#FFFFFF" d="M331.47,143.817c5.96,2.237,8.11,6.652,8.024,12.855c-0.189,13.617-0.086,27.238-0.039,40.858
		c0.018,4.827,2.272,7.577,6.191,7.865c0.225,0.017,0.445,0.024,0.661,0.024c4.114,0,6.798-2.946,6.827-7.794
		c0.059-9.871-0.033-19.743,0.045-29.613c0.043-5.58,3.459-9.468,8.858-10.399c0.438-0.076,0.882-0.112,1.326-0.112
		c4.04,0,8.153,3.032,9.689,7.295c0.657,1.824,0.546,3.694,0.55,5.556c0.021,13.245,0.011,26.489,0.013,39.734
		c0.001,1.497-0.043,2.983,0.479,4.442c1.088,3.029,3.3,4.622,6.351,4.622c0.063,0,0.127,0,0.19-0.002
		c3.318-0.071,5.686-1.813,6.441-5.195c0.296-1.322,0.332-2.723,0.336-4.088c0.029-9.122-0.027-18.243,0.036-27.364
		c0.046-6.679,4.066-11.112,9.99-11.209c0.055-0.001,0.109-0.001,0.164-0.001c5.72,0,10.324,4.879,10.333,11.3
		c0.044,33.487,0.008,66.974,0.053,100.46c0.002,2.248-0.768,4.101-1.882,5.946c-4.834,8.004-9.544,16.084-14.474,24.029
		c-2.924,4.712-4.285,9.675-4.252,15.236c0.12,19.617-0.008,39.234,0.109,58.852c0.017,2.683-0.52,3.558-3.328,3.558
		c-0.039,0-0.078-0.001-0.118-0.001c-9.147-0.076-18.3-0.096-27.448-0.096c-8.969,0-17.936,0.019-26.904,0.019
		c-0.824,0-1.648,0-3.148,0c2.965-3.658,5.518-6.81,8.072-9.961c7.362-9.084,8.443-18.56,3.107-27.282
		c-4.074-6.664-10.658-10.194-18.92-10.195c-2.167,0-4.449,0.244-6.832,0.736c0-6.664-0.23-13.279,0.059-19.873
		c0.348-7.902-2.451-14.152-8.035-19.719c-21.15-21.082-42.103-42.362-63.128-63.569c-1.579-1.593-3.258-3.113-3.888-5.395
		c-0.986-3.577,0.285-7.168,3.283-9.244c1.455-1.007,3.136-1.528,4.846-1.528c1.922,0,3.879,0.658,5.594,2.021
		c6.354,5.052,12.585,10.257,18.87,15.395c1.353,1.106,2.649,2.298,4.093,3.273c1.357,0.917,2.797,1.341,4.166,1.341
		c3.305,0,6.207-2.464,6.603-6.394c0.124-1.238,0.073-2.496,0.073-3.745c0.003-23.865,0-47.731,0.007-71.596
		c0.001-1.373-0.026-2.755,0.119-4.117c0.608-5.714,5.11-10.103,10.2-10.103c0.129,0,0.257,0.002,0.387,0.008
		c5.696,0.249,9.884,4.798,9.918,11.029c0.065,12.12-0.017,24.241,0.043,36.36c0.023,4.531,2.767,7.401,6.706,7.401
		c0.357,0,0.725-0.023,1.101-0.072c3.549-0.454,5.77-3.231,5.781-7.495c0.037-13.495,0.184-26.992-0.058-40.482
		c-0.116-6.503,2.204-11.054,8.259-13.571C328.471,143.817,329.971,143.817,331.47,143.817 M334.192,128.817h-2.723h-4.499h-2.994
		l-2.765,1.149c-5.369,2.232-9.585,5.561-12.534,9.802c-3.674-2.426-8.039-3.899-12.803-4.108c-0.348-0.015-0.693-0.022-1.041-0.022
		c-12.893,0-23.689,10.11-25.116,23.517c-0.211,1.984-0.207,3.756-0.204,5.18l0.001,0.518c-0.005,14.499-0.005,28.997-0.005,43.495
		l-0.002,14.166c-3.111-2.554-6.281-5.136-9.469-7.67c-4.281-3.405-9.584-5.281-14.93-5.281c-4.793,0-9.422,1.451-13.385,4.196
		c-8.29,5.739-11.904,15.773-9.204,25.563c1.63,5.907,5.201,9.476,7.335,11.607l0.362,0.362c5.67,5.719,11.336,11.445,17.002,17.17
		c15.097,15.256,30.708,31.032,46.187,46.46c3.199,3.189,3.765,5.592,3.641,8.437c-0.219,4.974-0.167,9.843-0.117,14.553
		c0.021,1.988,0.043,3.981,0.043,5.978v18.419l18.037-3.729c1.363-0.282,2.641-0.425,3.795-0.425c3.758,0,5.164,1.451,6.123,3.02
		c1.054,1.724,2.646,4.325-1.964,10.012l-2.553,3.15l-5.519,6.811l-19.816,24.445h31.469h3.148c4.49,0,8.979-0.005,13.468-0.009
		c4.479-0.005,8.958-0.01,13.437-0.01c11.047,0,19.474,0.029,27.322,0.095l0.244,0.002c5.441,0,9.912-1.723,13.287-5.119
		c5.092-5.121,5.054-11.448,5.041-13.527c-0.059-9.734-0.057-19.653-0.054-29.246c0.003-9.696,0.005-19.724-0.056-29.608
		c-0.017-2.788,0.58-4.952,1.998-7.236c3.223-5.194,6.373-10.477,9.418-15.584c1.712-2.869,3.423-5.738,5.15-8.598
		c2.726-4.516,4.047-9.003,4.041-13.72c-0.022-16.737-0.024-33.475-0.027-50.212c-0.002-16.749-0.004-33.499-0.025-50.248
		c-0.01-6.864-2.496-13.332-7.004-18.213c-4.732-5.126-11.414-8.067-18.329-8.067c-0.134,0-0.269,0.001-0.403,0.003
		c-3.717,0.061-7.252,0.879-10.436,2.38c-3.925-9.574-13.395-16.172-23.401-16.172c-1.3,0-2.604,0.111-3.876,0.331
		c-2.502,0.432-4.844,1.172-6.992,2.181c-2.719-7.05-8.134-12.378-15.755-15.239L334.192,128.817L334.192,128.817z"/>
</g>
<g>
	<path fill="#FFFFFF" d="M318.816,356.49c2.698,0,5.232,1.26,6.875,3.517c2.213,3.042,2.188,7.124-0.438,10.414
		c-5.764,7.224-11.639,14.36-17.543,21.469c-2.146,2.582-3.414,5.236-1.844,8.539c1.573,3.31,4.453,3.879,7.765,3.879
		c0.021,0,0.04,0,0.06,0c11.842-0.022,23.686-0.03,35.527-0.03c12.4,0,24.799,0.008,37.199,0.016
		c1.746,0.001,3.511-0.003,5.234,0.234c5.58,0.766,9.807,5.631,9.465,10.752c-0.361,5.408-4.742,9.603-10.523,9.655
		c-4.877,0.044-9.755,0.056-14.632,0.056c-4.968,0-9.937-0.012-14.905-0.012c-2.4,0-4.799,0.003-7.2,0.011
		c-4.411,0.016-7.205,2.404-7.479,6.19c-0.317,4.396,2.57,7.371,7.406,7.388c6.746,0.023,13.494,0.03,20.239,0.03
		c7.374,0,14.747-0.008,22.122-0.009c0.002,0,0.004,0,0.004,0c4.594,0,8.279,1.681,10.539,5.833
		c3.043,5.59-0.002,12.732-6.172,14.31c-1.787,0.457-3.71,0.518-5.572,0.523c-5.871,0.019-11.746,0.021-17.619,0.021
		c-1.795,0-3.59,0-5.386,0c-5.952,0-11.903,0.002-17.855,0.021c-4.771,0.015-7.503,2.337-7.713,6.321
		c-0.229,4.35,2.683,7.286,7.565,7.326c3.738,0.03,7.479,0.039,11.217,0.039c4.651,0,9.303-0.014,13.953-0.014
		c1.106,0,2.213,0.001,3.32,0.003c7.092,0.012,11.91,4.145,11.878,10.146c-0.031,5.864-5.065,10.258-11.921,10.277
		c-6.016,0.016-12.031,0.021-18.047,0.021c-7.48,0-14.96-0.007-22.44-0.007c-0.28,0-0.561-0.002-0.84-0.002
		c-1.341,0-2.675,0.044-3.968,0.547c-3.041,1.188-4.588,3.485-4.459,6.653c0.129,3.164,1.8,5.448,4.986,6.228
		c1.435,0.351,2.965,0.412,4.452,0.418c3.468,0.014,6.936,0.017,10.403,0.017c2.707,0,5.414-0.002,8.122-0.002
		c2.822,0,5.644,0.003,8.466,0.011c6.045,0.019,10.133,2.937,11.188,7.895c1.076,5.053-1.268,9.139-6.802,11.901
		c-0.287,0.144-0.489,0.459-0.729,0.694c-35.746,0-71.49,0-107.236,0c-10.106-6.087-20.197-12.198-30.326-18.245
		c-3.412-2.037-7.234-2.263-11.102-2.263c-0.043,0-0.087,0-0.131,0c-19.868,0.023-39.736-0.003-59.605,0.032
		c-0.135,0-0.268,0.001-0.397,0.001c-1.686,0-2.82-0.106-2.804-2.626c0.126-18.993,0.072-37.987,0.086-56.981
		c0-0.211,0.137-0.423,0.35-1.04c3.84,3.115,7.497,6.223,11.297,9.142c4.36,3.351,9.271,4.892,14.039,4.892
		c10.331,0,20.003-7.226,22.036-18.924c0.574-3.302-0.185-6.456-0.748-9.976c4.302,0,8.574-0.047,12.832-0.047
		c2.723,0,5.439,0.02,8.156,0.082c0.211,0.005,0.42,0.008,0.628,0.008c6.636,0,12.068-2.487,16.791-7.194
		c21.419-21.348,42.919-42.613,64.388-63.91c1.596-1.584,3.142-3.241,5.402-3.884C317.188,356.603,318.01,356.49,318.816,356.49
		 M318.816,341.49c-2.205,0-4.408,0.309-6.547,0.916c-5.848,1.662-9.432,5.236-11.572,7.372l-0.293,0.292
		c-5.973,5.924-11.946,11.846-17.921,17.768c-15.249,15.115-31.017,30.744-46.491,46.167c-2.354,2.347-4.119,2.818-6.202,2.818
		c-0.093,0-0.187-0.002-0.281-0.004c-2.535-0.059-5.237-0.086-8.503-0.086c-2.15,0-4.305,0.012-6.465,0.023
		c-2.116,0.012-4.238,0.023-6.367,0.023h-17.588l2.776,17.367c0.1,0.622,0.204,1.233,0.308,1.837
		c0.198,1.153,0.467,2.72,0.458,3.293c-0.811,4.422-4.211,6.402-7.242,6.402c-1.709,0-3.357-0.601-4.899-1.786
		c-2.391-1.836-4.763-3.788-7.275-5.856c-1.226-1.009-2.459-2.023-3.712-3.04l-16.629-13.489l-6.965,20.146
		c-0.331,0.832-1.205,3.03-1.205,6.033c-0.004,5.245-0.003,10.502-0.001,15.759c0.003,13.487,0.006,27.433-0.084,41.123
		c-0.043,6.408,2.656,10.48,4.928,12.768c4.925,4.958,10.909,4.958,12.875,4.958l0.272-0.001h0.147
		c10.979-0.02,21.953-0.021,32.926-0.021c8.892-0.001,17.783-0.001,26.674-0.012h0.113c2.336,0,3.213,0.129,3.541,0.219
		c7.246,4.326,14.604,8.766,21.723,13.059c2.808,1.694,5.615,3.388,8.425,5.08l3.571,2.15h4.168h107.236h6.113l3.614-3.532
		c10.052-6.03,14.807-16.241,12.476-27.188c-0.428-2.01-1.07-3.9-1.903-5.656c9.611-3.808,16.233-12.656,16.289-23.193
		c0.021-3.814-0.8-7.483-2.371-10.79c6.184-2.354,11.148-7.078,13.854-13.285c3.104-7.121,2.767-15.093-0.925-21.873
		c-1.97-3.62-4.621-6.596-7.793-8.836c2.283-3.511,3.715-7.644,4.016-12.137c0.873-13.078-8.962-24.768-22.393-26.61
		c-2.696-0.372-5.172-0.373-7.161-0.374h-0.104l-2.801-0.002c-11.47-0.007-22.938-0.014-34.406-0.014
		c-7.086,0-13.692,0.003-19.921,0.009c2.501-3.064,5.097-6.271,7.681-9.51c6.771-8.485,7.111-19.977,0.843-28.593
		C333.404,345.113,326.299,341.49,318.816,341.49L318.816,341.49z"/>
</g>
<g>
	<path fill="#FFFFFF" d="M166.491,143.817c10.104,6.085,20.192,12.195,30.319,18.239c3.414,2.038,7.243,2.268,11.113,2.268
		c0.038,0,0.076,0,0.114,0c2.882-0.003,5.767-0.004,8.648-0.004c6.814,0,13.631,0.006,20.446,0.006
		c9.915,0,19.827-0.014,29.741-0.081c0.057,0,0.113,0,0.168,0c2.831,0,3.865,0.536,3.836,3.765
		c-0.176,18.831-0.086,37.664-0.086,57.237c-4.188-3.408-7.836-6.514-11.626-9.434c-4.373-3.369-9.299-4.917-14.082-4.917
		c-10.308-0.001-19.956,7.191-22.006,18.866c-0.328,1.868-0.325,3.725-0.054,5.589c0.652,4.455,0.657,4.454-3.996,4.454
		c-3.238,0-6.479,0.063-9.716,0.063c-2.009,0-4.017-0.024-6.023-0.102c-0.348-0.014-0.694-0.021-1.036-0.021
		c-6.872,0-12.411,2.727-17.326,7.644c-21.194,21.204-42.527,42.27-63.804,63.391c-1.597,1.585-3.145,3.246-5.371,3.941
		c-0.848,0.265-1.71,0.392-2.561,0.392c-2.77,0-5.412-1.352-7.029-3.712c-2.047-2.988-2.004-7,0.479-10.108
		c5.767-7.218,11.683-14.316,17.511-21.485c0.78-0.958,1.571-1.968,2.069-3.083c1.825-4.087-0.702-8.642-5.124-9.291
		c-0.773-0.114-1.563-0.135-2.353-0.135c-0.462,0-0.925,0.007-1.386,0.007c-23.984-0.007-47.969-0.002-71.953-0.012
		c-1.497-0.001-3.004,0-4.488-0.168c-5.881-0.666-10.312-5.357-10.079-10.588c0.254-5.701,4.807-9.874,11.049-9.906
		c3.999-0.021,7.998-0.026,11.997-0.026c4.355,0,8.711,0.006,13.066,0.006c3.763,0,7.525-0.004,11.288-0.022
		c4.93-0.023,7.899-3.294,7.317-7.813c-0.457-3.549-3.231-5.753-7.498-5.763c-7.725-0.02-15.453-0.075-23.177-0.075
		c-5.767,0-11.53,0.03-17.295,0.129c-0.147,0.002-0.294,0.004-0.439,0.004c-6.259,0-10.669-2.357-13.137-8.265c0-1.75,0-3.5,0-5.25
		c2.081-6.217,5.256-8.477,12.735-8.558c5.146-0.055,10.293-0.071,15.44-0.071c6.783,0,13.566,0.027,20.349,0.027
		c0.809,0,1.617,0,2.425-0.001c0.033,0,0.066,0,0.1,0c0.48,0,0.96,0.004,1.44,0.004c0.86,0,1.72-0.015,2.578-0.096
		c2.795-0.266,4.731-1.544,5.121-4.514c0.368-2.809-1.39-5.41-4.222-6.291c-1.151-0.358-2.34-0.393-3.528-0.393
		c-0.286,0-0.573,0.002-0.858,0.002c-0.025,0-0.05,0-0.075,0c-2.58-0.003-5.161-0.004-7.741-0.004c-2.762,0-5.523,0.001-8.285,0.001
		c-3.15,0-6.3-0.001-9.451-0.007c-1.749-0.003-3.497-0.01-5.191-0.559c-5.094-1.648-8.728-6.855-8.152-11.7
		c0.623-5.239,5.115-9.555,10.534-10.093c0.857-0.085,1.718-0.103,2.579-0.103c0.625,0,1.25,0.009,1.874,0.009
		c0.014,0,0.027,0,0.041,0c0.942,0,1.884,0,2.826,0c6.358,0,12.716,0.009,19.075,0.009c5.063,0,10.126-0.006,15.189-0.026
		c5.937-0.023,9.207-2.22,9.189-6.009c-0.018-3.751-3.258-5.921-9.269-5.989c-2.289-0.026-4.578-0.034-6.867-0.034
		c-3.854,0-7.707,0.023-11.56,0.023c-2.849,0-5.698-0.013-8.547-0.056c-7.422-0.113-12.075-5.631-10.93-12.896
		c0.753-4.782,4.009-7.221,8.427-8.417C95,143.817,130.745,143.817,166.491,143.817 M170.659,128.817h-4.168H59.254H57.26
		l-1.925,0.521c-10.678,2.89-17.722,10.385-19.326,20.561c-0.813,5.159-0.24,10.159,1.616,14.611
		c-8.478,3.728-14.707,11.693-15.827,21.118c-0.524,4.41,0.223,8.815,1.973,12.813c-1.293,0.569-2.586,1.27-3.854,2.131
		c-4.682,3.183-7.997,7.835-10.134,14.224l-0.775,2.317v2.443v5.25v3.007l1.159,2.774c2.233,5.346,5.562,9.554,9.797,12.5
		c-2.426,3.669-3.901,8.027-4.113,12.783c-0.584,13.12,9.685,24.611,23.377,26.161c2.302,0.261,4.415,0.262,6.113,0.263h0.053
		c13.337,0.005,26.67,0.006,40.003,0.007c5.774,0,11.55,0,17.324,0.001c-2.596,3.172-5.221,6.396-7.801,9.626
		c-6.531,8.175-6.986,19.406-1.134,27.948c4.392,6.409,11.645,10.235,19.403,10.235c2.382,0,4.747-0.361,7.028-1.073
		c5.591-1.746,9.08-5.228,11.164-7.308l0.308-0.307c6.119-6.074,12.242-12.144,18.366-18.213
		c14.925-14.794,30.358-30.091,45.479-45.22c2.704-2.705,4.575-3.248,6.717-3.248c0.148,0,0.3,0.003,0.453,0.009
		c1.99,0.077,4.089,0.113,6.606,0.113c1.667,0,3.334-0.016,5.002-0.032c1.571-0.015,3.143-0.03,4.713-0.03
		c3.879,0,10.368,0,15.348-5.761c4.971-5.751,4.01-12.32,3.492-15.849c-0.066-0.458-0.041-0.697-0.016-0.838
		c0.783-4.464,4.195-6.462,7.23-6.461c1.72,0,3.378,0.606,4.93,1.801c2.373,1.828,4.783,3.816,7.336,5.921
		c1.284,1.059,2.602,2.146,3.977,3.264l24.467,19.907v-31.542c0-5.009-0.006-9.969-0.012-14.894
		c-0.018-14.536-0.033-28.265,0.097-42.204c0.052-5.626-1.663-10.238-5.1-13.706c-5.149-5.198-11.611-5.198-13.735-5.198
		l-0.273,0.001c-10.459,0.071-20.852,0.081-29.636,0.081l-10.216-0.003l-10.23-0.003c-2.888,0-5.777,0.001-8.666,0.004h-0.097
		c-2.346,0-3.224-0.131-3.551-0.223c-7.255-4.331-14.623-8.775-21.749-13.073c-2.798-1.688-5.596-3.375-8.395-5.061L170.659,128.817
		L170.659,128.817z"/>
</g>
<g>
	<path fill="#FFFFFF" d="M47.105,280.927c0.019,0,0.037,0,0.056,0c12.092,0.082,24.187,0.09,36.279,0.09c3.052,0,6.104,0,9.156,0
		c3.847,0,7.692,0,11.539,0.004c0.2,0,0.399,0.17,0.925,0.41c-2.843,3.504-5.638,6.94-8.424,10.384
		c-6.708,8.293-7.75,17.633-2.914,26.05c4.022,7,10.756,10.853,19.013,10.853c1.603,0,3.261-0.146,4.97-0.44
		c0.373-0.064,0.687-0.096,0.95-0.096c1.382,0,1.378,0.861,1.364,2.298c-0.061,6.122,0.117,12.249-0.061,18.366
		c-0.205,7.07,2.394,12.756,7.354,17.723c21.367,21.394,42.629,42.893,63.935,64.349c1.499,1.51,3.047,2.979,3.689,5.095
		c1.099,3.619-0.261,7.496-3.332,9.58c-1.42,0.963-3.055,1.462-4.71,1.462c-1.865,0-3.755-0.633-5.395-1.944
		c-7.118-5.695-14.169-11.475-21.168-17.314c-1.916-1.6-3.852-2.886-6.107-2.886c-0.852,0-1.749,0.183-2.708,0.603
		c-3.74,1.636-4.087,4.903-4.081,8.458c0.045,24.364,0.037,48.729-0.002,73.094c-0.003,2.109-0.062,4.296-0.599,6.312
		c-1.142,4.28-5.723,7.569-9.911,7.569c-0.31,0-0.617-0.018-0.921-0.055c-5.25-0.638-9.12-4.944-9.163-10.601
		c-0.092-12.243,0.006-24.489-0.054-36.733c-0.023-4.546-2.758-7.409-6.71-7.409c-0.354,0-0.717,0.022-1.089,0.069
		c-3.555,0.446-5.775,3.218-5.787,7.482c-0.037,13.369-0.201,26.742,0.063,40.106c0.13,6.604-2.032,11.364-8.264,13.964
		c-1.75,0-3.5,0-5.25,0c-6.025-2.021-8.487-5.519-8.56-12.783c-0.128-12.735-0.03-25.472-0.043-38.207
		c-0.001-1.373,0.041-2.748-0.095-4.117c-0.276-2.798-1.571-4.719-4.544-5.087c-0.234-0.029-0.466-0.043-0.696-0.043
		c-2.407,0-4.563,1.548-5.45,3.95c-0.576,1.56-0.499,3.196-0.501,4.816c-0.014,8.491,0.003,16.98-0.012,25.472
		c-0.003,1.748-0.014,3.496-0.567,5.189c-1.542,4.727-6.143,8.184-10.667,8.184c-0.351,0-0.701-0.021-1.05-0.063
		c-5.245-0.642-9.604-5.125-10.05-10.554c-0.307-3.733-0.101-7.488-0.108-11.232c-0.018-9.989,0.02-19.979-0.016-29.967
		c-0.022-6.231-2.135-9.546-5.98-9.546c-0.016,0-0.031,0-0.047,0c-3.83,0.027-5.934,3.332-5.986,9.65
		c-0.074,8.865,0.078,17.731-0.057,26.595c-0.102,6.664-4.571,11.098-10.745,11.098c-0.697,0-1.416-0.057-2.153-0.173
		c-4.781-0.755-7.218-4.011-8.415-8.428c0-35.745,0-71.49,0-107.236c5.984-9.886,11.989-19.759,17.94-29.664
		c2.197-3.657,2.605-7.735,2.601-11.913c-0.025-19.867,0.004-39.733-0.033-59.6C44.513,282.201,44.467,280.927,47.105,280.927
		 M47.105,265.927L47.105,265.927c-6.369,0-10.409,2.709-12.677,4.982c-4.93,4.94-4.917,10.897-4.912,13.14v0.087
		c0.021,10.971,0.021,21.94,0.021,32.909c0,8.894,0,17.789,0.012,26.683c0.004,3.154-0.35,3.988-0.458,4.168
		c-4.256,7.084-8.619,14.281-12.838,21.242c-1.693,2.793-3.386,5.586-5.077,8.38L9.009,381.1v4.187v107.236v1.995l0.521,1.927
		c2.891,10.674,10.383,17.717,20.554,19.322c1.5,0.236,3.01,0.356,4.492,0.356c3.617,0,7.022-0.697,10.099-1.973
		c3.674,8.446,11.597,14.659,21.068,15.817c0.948,0.116,1.913,0.175,2.871,0.175c3.528,0,6.968-0.768,10.135-2.164
		c3.582,8.032,10.311,12.026,16.23,14.012l2.321,0.778h2.448h5.25h3.003l2.771-1.156c3.691-1.539,8.748-4.475,12.476-9.819
		c3.183,2.097,6.893,3.495,10.945,3.987c0.898,0.109,1.817,0.164,2.73,0.164c11.067,0,21.559-8.04,24.403-18.702
		c0.964-3.613,1.102-7.016,1.106-10.154c0.033-20.925,0.041-40.07,0.023-58.085c3.267,2.667,6.478,5.263,9.672,7.818
		c4.217,3.374,9.461,5.231,14.766,5.231c4.686,0,9.226-1.399,13.129-4.047c8.565-5.812,12.288-16.401,9.265-26.354
		c-1.695-5.578-5.123-9.02-7.17-11.076l-0.227-0.228c-6.201-6.245-12.397-12.492-18.594-18.74
		c-14.851-14.973-30.207-30.456-45.372-45.641c-2.563-2.565-3.038-4.461-2.973-6.687c0.114-3.92,0.092-7.779,0.071-11.51
		c-0.014-2.469-0.027-4.801-0.004-7.143c0.02-1.945,0.079-7.867-4.694-12.687c-3.039-3.07-7.184-4.76-11.669-4.76
		c-1.133,0-2.279,0.103-3.506,0.315c-0.848,0.146-1.661,0.221-2.414,0.221c-2.871,0-4.668-0.995-6.008-3.327
		c-0.785-1.366-2.419-4.21,1.571-9.144c1.933-2.39,3.871-4.776,5.826-7.184l2.582-3.181l12.214-15.052l-17.428-7.952
		c-1.055-0.555-3.699-1.858-7.358-1.858c-3.837-0.004-7.687-0.004-11.539-0.004h-4.58l-4.577,0c-11.597,0-23.944-0.007-36.178-0.089
		L47.105,265.927L47.105,265.927z"/>
</g>
</svg>
