<?xml version="1.0" encoding="utf-8"?>
<!-- Generator: Adobe Illustrator 16.0.0, SVG Export Plug-In . SVG Version: 6.00 Build 0)  -->
<!DOCTYPE svg PUBLIC "-//W3C//DTD SVG 1.1//EN" "http://www.w3.org/Graphics/SVG/1.1/DTD/svg11.dtd">
<svg version="1.1" id="Capa_7" xmlns="http://www.w3.org/2000/svg" xmlns:xlink="http://www.w3.org/1999/xlink" x="0px" y="0px"
	 width="1080px" height="1080px" viewBox="0 0 1080 1080" enable-background="new 0 0 1080 1080" xml:space="preserve">
<path fill="#005C97" d="M644.553-860.523c-34.59-44.904-102.646-18.421-102.646,27.189c0-45.61-68.057-72.093-102.647-27.189
	c-35.748,46.413-0.524,127.726,102.647,174.429C645.065-732.797,680.298-814.11,644.553-860.523z"/>
<path fill="#005C97" d="M84.312-884.878l80.753,199.958h-55.883l-11.025-29.224H19.453L8.434-684.92h-55.89l81.011-199.958H84.312z
	 M58.937-819.248l-22.053,58.702h43.84L58.937-819.248z"/>
<path fill="#005C97" d="M188.14-684.92v-199.958h51.529l57.673,126.383l57.938-126.383h51.527v199.958h-51.01v-94.084
	l-41.533,86.395h-33.581l-41.533-86.395v94.084H188.14z"/>
<path fill="#005C97" d="M774.674-884.878c12.819,0,23.929,1.922,33.328,5.768c9.396,3.848,17.173,9.1,23.328,15.766
	c6.154,6.665,10.729,14.443,13.716,23.33s4.489,18.291,4.489,28.197c0,7.008-0.816,13.845-2.44,20.509
	c-1.623,6.665-4.057,12.858-7.306,18.588c-3.246,5.727-7.35,10.936-12.306,15.64c-4.96,4.702-10.768,8.586-17.432,11.663
	l43.326,60.498h-61.27l-37.941-53.58h-26.146v53.58h-51.02v-199.958H774.674z M728.021-838.223v53.322h43.835
	c5.125,0,9.484-0.725,13.072-2.175c3.593-1.451,6.498-3.377,8.719-5.77c2.216-2.393,3.843-5.209,4.866-8.463
	c1.025-3.24,1.546-6.577,1.546-9.995c0-7.692-2.147-14.098-6.412-19.224c-4.274-5.126-11.539-7.695-21.791-7.695H728.021z"/>
<path fill="#005C97" d="M87.645-645.598l80.755,199.964h-55.892l-11.021-29.229H22.79l-11.024,29.229H-44.12l81.008-199.964H87.645z
	 M62.265-579.965l-22.042,58.702h43.835L62.265-579.965z"/>
<path fill="#005C97" d="M362.719-645.598v112.548c0,12.812-2.009,24.781-6.026,35.89c-4.015,11.113-9.915,20.766-17.688,28.969
	c-7.777,8.202-17.397,14.655-28.842,19.347c-11.45,4.702-24.609,7.055-39.476,7.055c-15.046,0-28.291-2.353-39.74-7.055
	c-11.45-4.691-21.02-11.145-28.711-19.347c-7.69-8.203-13.5-17.856-17.432-28.969c-3.933-11.109-5.894-23.079-5.894-35.89v-112.548
	h51.27v109.471c0,14.527,3.42,25.636,10.257,33.32c6.835,7.697,16.917,11.541,30.25,11.541c13.5,0,23.711-3.843,30.632-11.541
	c6.925-7.684,10.381-18.793,10.381-33.32v-109.471H362.719z"/>
<path fill="#005C97" d="M386.043-645.598h175.862v49.739h-62.296v150.225h-51.272v-150.225h-62.294V-645.598z"/>
<path fill="#005C97" d="M639.325-645.598v199.964h-51.278v-199.964H639.325z"/>
<path fill="#005C97" d="M719.819-505.624v1.285c0,1.883,0.673,3.889,2.05,6.023c1.363,2.136,3.412,4.102,6.152,5.897
	c2.731,1.792,6.234,3.294,10.509,4.485c4.272,1.197,9.31,1.792,15.126,1.792c9.565,0,16.19-1.32,19.867-3.972
	c3.669-2.646,5.508-5.42,5.508-8.332c0-4.268-2.649-7.946-7.941-11.021c-5.307-3.077-14.021-6.669-26.155-10.772
	c-8.034-2.558-16.365-5.594-24.99-9.094c-8.633-3.5-16.539-7.819-23.715-12.947c-7.181-5.126-13.118-11.362-17.814-18.715
	c-4.704-7.343-7.05-16.147-7.05-26.401c0-9.571,1.919-18.157,5.768-25.77c3.843-7.604,9.229-14.098,16.149-19.484
	c6.92-5.379,15.164-9.524,24.739-12.43c9.564-2.904,20.078-4.359,31.532-4.359c11.619,0,22.428,1.5,32.434,4.485
	c9.992,2.994,18.621,7.308,25.886,12.948c7.26,5.639,12.983,12.434,17.177,20.383c4.19,7.944,6.279,16.878,6.279,26.786v2.82
	h-49.987v-1.795c0-2.393-0.642-4.869-1.925-7.432c-1.277-2.563-3.202-4.872-5.772-6.924c-2.555-2.052-5.767-3.718-9.611-4.999
	c-3.841-1.278-8.327-1.921-13.453-1.921c-8.723,0-14.956,1.41-18.715,4.227c-3.763,2.823-5.642,5.945-5.642,9.364
	c0,3.929,2.524,7.261,7.562,9.994c5.04,2.734,13.544,6.153,25.504,10.255c6.841,2.392,14.616,5.343,23.335,8.844
	c8.714,3.502,16.877,7.945,24.479,13.331c7.602,5.385,14.014,11.963,19.229,19.741c5.217,7.78,7.818,17.133,7.818,28.068
	c0,9.744-2.014,18.33-6.022,25.762c-4.019,7.436-9.575,13.63-16.666,18.592c-7.095,4.955-15.468,8.711-25.119,11.277
	c-9.659,2.56-20.212,3.845-31.658,3.845c-11.97,0-23.119-1.368-33.456-4.102c-10.347-2.734-19.315-6.706-26.917-11.923
	c-7.612-5.209-13.595-11.662-17.949-19.352c-4.354-7.691-6.539-16.407-6.539-26.149v-2.31H719.819z"/>
<path fill="#005C97" d="M864.654-445.634v-199.964h51.532l57.673,126.385l57.942-126.385h51.525v199.964h-51.014v-94.087
	l-41.529,86.393h-33.587l-41.528-86.393v94.087H864.654z"/>
<path fill="#005C97" d="M1112.291-545.614c0-14.356,2.821-27.814,8.462-40.374c5.639-12.564,13.289-23.543,22.941-32.948
	c9.655-9.395,20.934-16.831,33.835-22.3c12.908-5.47,26.538-8.203,40.894-8.203c14.522,0,28.24,2.733,41.148,8.203
	c12.898,5.469,24.183,12.905,33.838,22.3c9.654,9.405,17.262,20.384,22.814,32.948c5.551,12.56,8.336,26.018,8.336,40.374
	c0,14.355-2.785,27.814-8.336,40.375c-5.553,12.564-13.16,23.546-22.814,32.947c-9.655,9.394-20.939,16.832-33.838,22.3
	c-12.908,5.469-26.626,8.203-41.148,8.203c-14.355,0-27.985-2.734-40.894-8.203c-12.901-5.469-24.18-12.906-33.835-22.3
	c-9.652-9.401-17.303-20.383-22.941-32.947C1115.112-517.8,1112.291-531.258,1112.291-545.614z M1164.077-545.614
	c0,7.519,1.412,14.613,4.229,21.274c2.821,6.67,6.71,12.44,11.664,17.309c4.956,4.868,10.729,8.716,17.303,11.536
	c6.578,2.82,13.635,4.229,21.15,4.229c7.691,0,14.822-1.409,21.41-4.229c6.58-2.82,12.307-6.668,17.173-11.536
	c4.87-4.869,8.718-10.638,11.54-17.309c2.816-6.661,4.224-13.755,4.224-21.274c0-7.521-1.407-14.616-4.224-21.276
	c-2.822-6.669-6.67-12.438-11.54-17.307c-4.866-4.869-10.593-8.716-17.173-11.539c-6.588-2.816-13.719-4.225-21.41-4.225
	c-7.516,0-14.572,1.408-21.15,4.225c-6.574,2.823-12.347,6.67-17.303,11.539c-4.954,4.868-8.843,10.638-11.664,17.307
	C1165.489-560.229,1164.077-553.134,1164.077-545.614z"/>
<g>
	<defs>
		<path id="SVGID_1_" d="M-602.487-378.462c156.646-79.26,316.325-206.374,316.325-381.152
			c0-179.651-215.244-254.56-316.288-119.832h-0.08c-101.044-134.728-316.294-59.819-316.294,119.832
			C-918.824-584.836-759.138-457.722-602.487-378.462"/>
	</defs>
	<clipPath id="SVGID_2_">
		<use xlink:href="#SVGID_1_"  overflow="visible"/>
	</clipPath>
	<g clip-path="url(#SVGID_2_)">
		<g>
			<linearGradient id="SVGID_3_" gradientUnits="userSpaceOnUse" x1="-918.1968" y1="-706.3784" x2="-608.0098" y2="-706.3784">
				<stop  offset="0" style="stop-color:#80DBFF"/>
				<stop  offset="1" style="stop-color:#00A1D3"/>
			</linearGradient>
			<path fill-rule="evenodd" clip-rule="evenodd" fill="url(#SVGID_3_)" d="M-784.799-499.642
				c-8.754-8.418-16.592-15.646-24.094-23.219c-23.51-23.711-44.58-49.396-62.088-77.909
				c-21.698-35.359-36.789-73.265-43.492-114.308c-7.264-44.468-4.761-87.82,15.196-129.119
				c12.679-26.246,30.527-48.264,53.558-66.104c1.176-0.908,2.412-1.744,3.893-2.814c32.412,33.685,67.96,63.89,99.563,99.002
				c-3.163,1.121-5.809,2.004-8.424,2.992c-9.473,3.592-18.12,8.458-24.622,16.475c-7.63,9.417-10.495,20.08-7.513,31.919
				c5.804,23.072,26.182,42.298,52.896,40.035c11.448-0.975,20.564-6.644,27.673-15.237c5.276-6.388,9.622-13.544,13.972-19.774
				c26.369,26.139,53.164,52.705,80.271,79.58c-0.814,0.867-1.874,2.047-2.998,3.171c-20.729,20.742-41.464,41.479-62.198,62.215
				c-0.874,0.87-1.8,1.701-2.588,2.636c-2.722,3.214-1.8,6.022,2.407,6.701c9.59,1.55,18.566,4.523,26.538,10.245
				c22.492,16.14,23.743,44.235,2.599,63.432c-11.912,10.812-25.75,14.931-41.368,9.608c-15.511-5.274-24.345-16.584-27.333-32.523
				c-0.526-2.799-0.176-5.751-0.564-8.581c-0.255-1.858-0.58-4.361-1.831-5.274c-2.258-1.667-4.218,0.287-5.927,2.021
				c-8.498,8.555-17.039,17.066-25.569,25.591c-11.624,11.625-23.27,23.235-34.856,34.902
				C-782.754-502.921-783.467-501.526-784.799-499.642z"/>
			<g>
				<linearGradient id="SVGID_4_" gradientUnits="userSpaceOnUse" x1="-919.1968" y1="-706.4121" x2="-606.6141" y2="-706.4121">
					<stop  offset="0" style="stop-color:#80DBFF"/>
					<stop  offset="1" style="stop-color:#00A1D3"/>
				</linearGradient>
				<path fill="url(#SVGID_4_)" d="M-781.263-503.177c-21.41-20.55-42.329-41.169-60.704-64.555
					c-18.34-23.342-33.947-48.937-46.048-76.045c-23.824-53.368-33.956-117.063-16.488-173.73
					c11.13-36.108,34.383-69.291,65.201-91.291c-2.02-0.261-4.039-0.521-6.059-0.782c32.505,33.692,68.157,64.231,99.563,99.002
					c0.735-2.786,1.471-5.571,2.207-8.357c-18.389,6.471-35.032,14.709-42.919,33.723c-6.996,16.866,1.345,36.619,12.508,49.549
					c11.446,13.258,29.627,20.131,46.954,17.631c21.412-3.089,31.8-20.823,43.086-37.147c-2.618,0.337-5.235,0.675-7.853,1.012
					c26.759,26.525,53.515,53.052,80.271,79.58c0-2.357,0-4.714,0-7.071c-10.951,11.792-22.717,22.9-34.095,34.281
					c-5.655,5.656-11.31,11.312-16.964,16.967c-5.696,5.696-12.804,11.245-17.507,17.786c-2.693,3.746-3.367,10.256,1.667,12.661
					c6.3,3.008,13.762,3.177,20.273,6.037c11.29,4.959,20.41,14.244,23.336,26.371c5.927,24.561-21.156,48.745-44.665,43.972
					c-11.421-2.319-20.532-9.473-25.518-19.919c-2.732-5.724-2.932-11.552-3.499-17.716c-0.507-5.507-2.899-11.242-9.4-10.783
					c-2.815,0.199-4.969,2.105-6.893,3.993c-3.17,3.11-6.269,6.298-9.407,9.44c-6.312,6.319-12.636,12.625-18.952,18.94
					c-6.511,6.51-13.027,13.016-19.533,19.531c-5.752,5.759-11.834,11.179-16.415,17.933c-3.631,5.354,5.038,10.351,8.635,5.047
					c4.051-5.973,9.761-10.81,14.851-15.908c6.041-6.051,12.091-12.092,18.138-18.136c5.436-5.433,10.874-10.863,16.309-16.296
					c2.693-2.691,5.384-5.386,8.073-8.082c1.345-1.348,2.688-2.697,4.03-4.047c0.789-0.805,1.589-1.601,2.398-2.386
					c-1.901-0.951-2.509-0.648-1.823,0.909c0.593,3.206,0.087,6.529,0.733,9.755c0.544,2.722,1.238,5.37,2.133,7.999
					c1.816,5.338,4.625,10.079,8.124,14.469c7.063,8.862,18.75,14.288,29.817,15.651c24.349,3,48.399-16.716,52.846-40.411
					c4.729-25.194-14.708-45.33-37.297-52.389c-1.608-0.503-3.251-0.885-4.89-1.271c-1.106-0.247-2.216-0.471-3.332-0.672
					c-1.647-0.86-2.299-0.348-1.956,1.538c0.679-1.488,2.929-3.079,4.07-4.221c1.885-1.885,3.77-3.77,5.655-5.655
					c6.598-6.598,13.195-13.196,19.792-19.794c12.789-12.791,26.027-25.27,38.336-38.522c1.847-1.989,1.988-5.1,0-7.071
					c-26.757-26.527-53.513-53.054-80.271-79.58c-2.42-2.399-6.034-1.619-7.853,1.012c-9.177,13.273-17.143,28.222-34.102,32.057
					c-13.946,3.154-28.602-2.838-38.415-12.612c-9.778-9.739-16.394-25.214-12.722-38.929c4.566-17.06,21.901-24.303,36.903-29.582
					c3.619-1.273,4.83-5.453,2.207-8.357c-31.405-34.771-67.058-65.309-99.563-99.002c-1.452-1.504-4.274-2.056-6.059-0.782
					c-46.092,32.904-73.65,85.85-78.204,141.859c-4.742,58.327,13.12,117.892,41.823,168.178
					c11.987,21.001,26.25,40.66,41.792,59.16c15.64,18.617,33.091,35.319,50.604,52.129
					C-783.684-491.642-776.604-498.705-781.263-503.177z"/>
			</g>
		</g>
		<g>
			<linearGradient id="SVGID_5_" gradientUnits="userSpaceOnUse" x1="-596.3047" y1="-706.502" x2="-286.7896" y2="-706.502">
				<stop  offset="0" style="stop-color:#FFDE91"/>
				<stop  offset="1" style="stop-color:#FFCC66"/>
			</linearGradient>
			<path fill-rule="evenodd" clip-rule="evenodd" fill="url(#SVGID_5_)" d="M-419.287-501.156
				c-18.59-18.592-36.789-36.797-55.182-55.181c24.031-9.929,34.025-28.003,28.285-53.525c-4.627-20.564-19.43-31.416-39.127-35.95
				c-25.031-5.77-39.478,7.995-49.627,27.769c-20.463-20.458-40.814-40.809-61.367-61.368c6.293-6.445,13.162-13.501,20.053-20.535
				c17.939-18.299,35.884-36.584,53.822-54.877c0.485-0.496,0.975-0.972,1.422-1.488c2.998-3.438,2.503-5.725-1.752-7.426
				c-8.492-3.378-16.262-7.83-22.656-14.483c-11.257-11.707-13.482-26.946-5.751-41.182c4.665-8.591,11.155-15.615,19.536-20.681
				c18.515-11.193,40.054-6.044,51.305,12.481c2.727,4.497,4.596,9.614,6.225,14.649c2.156,6.643,3.973,7.255,9.037,2.183
				c27.018-27.063,54.02-54.14,81.032-81.208c4.937-4.949,9.883-9.885,14.829-14.827c6.582-6.584,6.598-6.605,14.08-0.719
				c34.898,27.462,55.814,63.472,63.945,106.792c11.059,58.903,0.676,114.867-25.069,168.354
				c-18.786,39.023-44.776,72.974-74.771,103.97c-8.189,8.458-16.827,16.485-25.277,24.691
				C-417.254-502.785-418.334-501.966-419.287-501.156z"/>
			<g>
				<linearGradient id="SVGID_6_" gradientUnits="userSpaceOnUse" x1="-597.0215" y1="-706.4375" x2="-286.2796" y2="-706.4375">
					<stop  offset="0" style="stop-color:#FFDE91"/>
					<stop  offset="1" style="stop-color:#FFCC66"/>
				</linearGradient>
				<path fill="url(#SVGID_6_)" d="M-417.484-502.959c-18.393-18.395-36.784-36.791-55.182-55.181
					c-0.172,1.335-0.344,2.67-0.516,4.005c14.611-6.198,26.699-16.809,30.18-32.812c3.501-16.095-1.598-34.768-13.017-46.583
					c-10.909-11.288-30.07-17.942-45.587-15.794c-17.006,2.355-28.014,15.564-35.534,29.992c1.335-0.172,2.67-0.344,4.005-0.516
					c-20.458-20.454-40.915-40.909-61.367-61.368c0,1.202,0,2.404,0,3.606c22.745-23.3,45.555-46.537,68.355-69.784
					c2.964-3.022,9.083-7.297,9.513-11.995c0.486-5.314-5.442-6.728-9.264-8.447c-12.774-5.748-24.245-15.693-26.944-29.979
					c-2.62-13.867,6.731-27.563,16.789-36.069c9.827-8.311,22.905-11.731,35.257-7.728c14.085,4.565,20.261,17.843,24.729,30.76
					c4.477,12.945,14.561,0.125,19.793-5.118c23.289-23.332,46.568-46.673,69.854-70.009c5.437-5.448,10.877-10.893,16.323-16.332
					c2.265-2.262,4.449-4.886,7.095-6.717c1.945-1.346,7.212,4.203,8.546,5.279c9.929,8.015,18.919,17.155,26.889,27.113
					c35.087,43.843,43.419,104.569,35.596,158.825c-6.123,42.468-23.134,83.019-45.985,119.121
					c-11.322,17.888-24.333,34.652-38.291,50.55c-7.003,7.977-14.287,15.715-21.798,23.214
					c-7.456,7.445-14.927,15.243-23.043,21.964c-2.535,2.1,1.094,5.687,3.606,3.606c11.325-9.378,21.762-20.4,31.897-31.04
					c9.996-10.493,19.517-21.433,28.526-32.784c17.852-22.493,33.239-46.841,45.359-72.887
					c24.727-53.138,34.029-112.253,22.062-169.963c-5.042-24.317-14.958-47.545-29.419-67.749
					c-7.184-10.037-15.547-19.179-24.67-27.477c-4.391-3.994-9.003-7.814-13.813-11.294c-3.068-2.22-6.363-2.409-9.334,0.056
					c-5.328,4.421-10.026,9.766-14.919,14.659c-6.009,6.011-12.009,12.032-18.012,18.049
					c-11.642,11.668-23.283,23.337-34.925,35.006c-5.588,5.601-11.177,11.201-16.766,16.802c-5.741,5.753-11.309,12.815-17.886,17.6
					c-1.316,0.958-3.676-7.417-3.992-8.294c-1.078-2.992-2.395-5.887-3.872-8.701c-2.65-5.048-6.621-9.7-11.144-13.152
					c-33.201-25.34-84.065,17.488-65.787,54.557c4.656,9.443,13.74,16.346,22.842,21.141c2.075,1.093,4.236,2.053,6.407,2.938
					c4.479,1.825,1.506,4.433-0.684,6.667c-5.06,5.16-10.12,10.318-15.18,15.477c-19.121,19.494-38.241,38.988-57.315,58.528
					c-0.97,0.994-0.991,2.615,0,3.606c20.453,20.459,40.909,40.915,61.367,61.368c1.121,1.12,3.239,0.954,4.005-0.516
					c6.525-12.519,15.459-24.18,29.97-27.255c14.606-3.095,32.699,3.905,43.142,14.089c10.55,10.289,14.36,27.422,11.705,41.62
					c-2.762,14.774-14.684,24.185-27.836,29.764c-1.544,0.655-1.566,2.955-0.516,4.005c18.398,18.389,36.789,36.786,55.182,55.181
					C-418.763-497.025-415.157-500.632-417.484-502.959z"/>
			</g>
		</g>
		<g>
			<g>
				<linearGradient id="SVGID_7_" gradientUnits="userSpaceOnUse" x1="-839.3027" y1="-813.0732" x2="-364.9961" y2="-813.0732">
					<stop  offset="0" style="stop-color:#FF468C"/>
					<stop  offset="1" style="stop-color:#B50F52"/>
				</linearGradient>
				<path fill-rule="evenodd" clip-rule="evenodd" fill="url(#SVGID_7_)" d="M-370.875-918.578
					c-31.655-19.569-65.861-29.758-103.29-28.07c-34.937,1.576-65.782,13.986-93.339,35.146
					c-11.038,8.48-20.361,18.655-29.318,29.254c-5,5.908-7.055,5.604-11.837-0.484c-30.468-38.845-70.628-59.832-119.589-63.384
					c-37.407-2.721-72.211,6.382-104.031,26.43c-1.098,0.684-5.788,2.417-7.023,3.312l103.711,103.738
					c-34.408,8.794-42.705,26.017-44.425,35.325c-2.087,11.294,2.429,22.806,9.298,31.469c15.602,19.684,41.794,27.309,61.932,8.56
					c7.227-6.728,15.012-20.404,19.196-29.273l87.104,87.237c24.483-25.011,55.096-56.297,79.664-81.382
					c-11.698-3.493-25.905-13.688-31.384-21.981c-9.543-14.459-6.726-30.394,0.857-42.462c7.588-12.085,16.9-19.297,28.37-23.565
					c16.917-6.302,50.563,2.466,54.883,36.779c32.763-32.636,72.29-71.292,105.101-103.97
					C-365.129-916.014-370.428-918.301-370.875-918.578z"/>
			</g>
			<g>
				<linearGradient id="SVGID_8_" gradientUnits="userSpaceOnUse" x1="-840.0708" y1="-812.9844" x2="-364.2607" y2="-812.9844">
					<stop  offset="0" style="stop-color:#FF468C"/>
					<stop  offset="1" style="stop-color:#B50F52"/>
				</linearGradient>
				<path fill="url(#SVGID_8_)" d="M-369.613-920.737c-47.312-28.992-105.373-37.845-157.646-16.912
					c-25.959,10.396-48.213,27.267-66.617,48.149c-2.328,2.642-4.505,5.43-6.995,7.923c-2.951,2.955-6.463-3.494-7.978-5.378
					c-4.165-5.179-8.66-10.086-13.365-14.778c-8.475-8.452-17.949-15.904-28.048-22.315c-27.261-17.307-59.802-25.068-91.891-25.035
					c-18.266,0.019-36.476,3.241-53.754,9.097c-8.265,2.801-16.275,6.355-24.034,10.336c-4.13,2.12-8.146,4.454-12.106,6.875
					c-2.727,1.667-5.795,2.591-8.517,4.243c-1.375,0.834-1.66,2.772-0.506,3.926c33.693,33.702,67.386,67.404,101.08,101.106
					c0.877,0.877,1.754,1.755,2.631,2.632c0.368-1.393,0.735-2.786,1.103-4.178c-15.783,4.154-32.175,11.195-41.425,25.353
					c-8.699,13.315-5.593,29.912,2.909,42.564c10.327,15.368,28.69,25.555,47.341,22.398c20.235-3.425,31.931-23.684,40-40.562
					c-1.309,0.169-2.618,0.337-3.926,0.506c29.034,29.079,58.069,58.158,87.104,87.237c0.955,0.957,2.583,0.973,3.535,0
					c26.555-27.127,53.103-54.261,79.664-81.382c1.352-1.38,0.685-3.611-1.103-4.178c-17.272-5.477-34.727-19.256-35.605-38.553
					c-0.845-18.581,14.094-35.71,30.009-43.219c10.267-4.844,22.144-3.84,32.307,0.815c13.318,6.102,20.967,18.597,22.94,32.802
					c0.269,1.937,2.979,2.297,4.178,1.103c34.918-34.773,70.18-69.199,105.101-103.97c1.093-1.087,0.942-3.19-0.506-3.926
					C-365.653-919.034-367.695-919.757-369.613-920.737c-2.865-1.464-5.396,2.85-2.523,4.317c1.917,0.98,3.96,1.702,5.879,2.678
					c-0.169-1.309-0.337-2.618-0.506-3.926c-34.921,34.771-70.183,69.196-105.101,103.97c1.393,0.368,2.786,0.735,4.178,1.103
					c-2.217-15.96-11.386-29.444-26.16-36.213c-12.322-5.646-25.574-5.516-37.737,0.223c-17.912,8.451-32.024,28.38-31.108,48.503
					c0.945,20.78,20.856,35.975,39.204,41.792c-0.368-1.393-0.735-2.786-1.103-4.178c-26.562,27.12-53.109,54.254-79.664,81.382
					c1.178,0,2.357,0,3.535,0c-29.034-29.079-58.069-58.158-87.104-87.237c-1.067-1.069-3.222-0.967-3.926,0.506
					c-7.36,15.396-16.873,32.552-34.345,37.651c-17.729,5.174-35.696-6.594-45.253-20.816c-7.575-11.272-9.077-25.38-1.584-36.85
					c8.263-12.647,24.074-18.727,38.004-22.394c1.826-0.48,2.422-2.859,1.103-4.178c-33.693-33.702-67.386-67.404-101.08-101.106
					c-0.877-0.877-1.754-1.755-2.631-2.632c-0.168,1.309-0.337,2.617-0.506,3.926c4.173-2.532,8.779-4.453,13.025-6.942
					c6.729-3.946,13.755-7.404,20.949-10.416c13.25-5.549,27.293-9.257,41.524-11.156c26.438-3.527,53.994-0.455,79.167,8.243
					c23.676,8.18,44.646,22.54,61.856,40.619c4.337,4.555,8.266,9.435,12.235,14.305c2.818,3.459,6.4,5.234,10.438,2.747
					c2.469-1.521,4.288-4.255,6.138-6.418c2.346-2.744,4.75-5.437,7.19-8.098c5.281-5.76,10.919-11.172,16.941-16.152
					c26.565-21.969,60.044-34.938,94.413-36.664c36.235-1.819,71.302,8.9,102.028,27.729
					C-369.379-914.73-366.87-919.056-369.613-920.737z"/>
			</g>
		</g>
		<g>
			<linearGradient id="SVGID_9_" gradientUnits="userSpaceOnUse" x1="-783.3232" y1="-529.4282" x2="-420.7461" y2="-529.4282">
				<stop  offset="0" style="stop-color:#96D778"/>
				<stop  offset="1" style="stop-color:#55A52B"/>
			</linearGradient>
			<path fill="url(#SVGID_9_)" d="M-673.963-607.74c38.605,5.589,52.077,33.752,48.68,52.213
				c-4.563,24.792-24.068,41.331-52.699,41.115c-17.273-0.136-42.188-21.411-39.207-50.029
				c-19.18,19.172-46.629,46.73-66.134,66.235c1.229,0.956,6.496,5.269,7.396,6.044c52.066,44.661,109.969,80.423,170.697,111.88
				c2.461,1.277,4.298,0.75,6.476-0.373c52.817-27.229,103.509-57.796,149.92-95.104c7.987-6.413,15.751-13.109,24.813-20.682
				c-1.912-1.217,4.207-1.357,3.152-2.406l-62.029-60.689c18.445-0.461,34.611-18.294,35.618-34.031
				c1.204-18.887-19.153-43.674-39.015-48.911c-10.654-2.812-22.455-0.526-31.379,6.146c-7.465,5.572-13.163,16.677-16.906,25.026
				l-67.907-68.011C-623.787-658.022-653.057-628.646-673.963-607.74"/>
			<g>
				<linearGradient id="SVGID_10_" gradientUnits="userSpaceOnUse" x1="-784.0776" y1="-529.5898" x2="-420.2461" y2="-529.5898">
					<stop  offset="0" style="stop-color:#96D778"/>
					<stop  offset="1" style="stop-color:#55A52B"/>
				</linearGradient>
				<path fill="url(#SVGID_10_)" d="M-674.627-605.33c17.917,2.764,34.993,11.159,43.455,27.904
					c7.119,14.087,3.479,30.681-5.949,42.812c-10.563,13.592-32.114,21.658-48.81,16.2c-18.862-6.166-30.431-26.927-28.758-46.027
					c0.197-2.247-2.825-3.21-4.268-1.768c-22.065,22.058-44.073,44.173-66.134,66.235c-0.879,0.878-1.072,2.689,0,3.535
					c20.567,16.239,40.369,33.144,61.802,48.3c24.378,17.239,49.776,33.006,75.723,47.766c13.014,7.403,26.196,14.508,39.477,21.421
					c5.482,2.853,8.628,1.478,13.861-1.233c7.063-3.66,14.086-7.4,21.078-11.195c26.826-14.564,53.039-30.27,78.324-47.375
					c25.391-17.176,49.087-36.266,72.572-55.918c1.032-0.863,0.918-2.652,0-3.535c-0.116-0.112-0.232-0.223-0.348-0.335
					c0.214,0.811,0.429,1.622,0.643,2.433c-1.1,0.976-1.148,1.247-0.144,0.814c0.445-0.113,0.885-0.243,1.32-0.388
					c0.693-0.218,1.31-0.567,1.797-1.106c0.552-0.612,0.978-1.601,0.643-2.432c-1.465-3.643-6.319-6.833-9.029-9.483
					c-7.227-7.071-14.454-14.141-21.68-21.212c-10.693-10.462-21.387-20.925-32.08-31.387c-0.589,1.422-1.178,2.845-1.768,4.268
					c15.546-0.763,29.832-11.718,35.607-26.085c6.11-15.2-0.597-30.322-10.287-42.35c-10.348-12.845-25.834-22.223-42.73-20.37
					c-19.055,2.09-29.153,17.196-36.431,33.272c1.309-0.169,2.618-0.337,3.926-0.506c-22.636-22.67-45.271-45.341-67.907-68.011
					c-0.962-0.964-2.573-0.963-3.535,0c-23.844,23.841-47.634,47.735-71.476,71.578c-2.282,2.282,1.253,5.817,3.535,3.535
					c23.842-23.843,47.632-47.737,71.476-71.578c-1.178,0-2.357,0-3.535,0c22.636,22.67,45.271,45.341,67.907,68.011
					c1.049,1.051,3.25,0.987,3.926-0.506c6.3-13.917,13.843-26.563,29.683-30.348c15.444-3.69,29.715,5.338,39.731,16.255
					c8.692,9.474,15.753,22.961,12.208,36.021c-3.782,13.931-17.737,25.376-32.1,26.081c-2.115,0.104-3.392,2.679-1.768,4.268
					c10.22,9.999,20.439,19.999,30.659,29.998c7.182,7.026,14.363,14.052,21.544,21.079c2.321,2.271,4.642,4.542,6.963,6.813
					c0.675,0.66,1.35,1.321,2.024,1.981c0.688,0.673,0.858,1.364,0.312,0.006c0.214-0.811,0.429-1.622,0.643-2.433
					c-0.663,0.735-2.68,0.606-3.574,1.5c-1.239,1.239-0.841,3.05,0.305,4.152c0-1.178,0-2.357,0-3.535
					c-23.637,19.778-47.526,38.877-73.077,56.162c-25.286,17.106-51.598,32.663-78.42,47.225c-6.455,3.504-12.95,6.932-19.466,10.32
					c-1.803,0.938-4.266,2.671-6.404,2.369c-1.646-0.232-4.082-2.007-5.601-2.8c-3.72-1.942-7.426-3.91-11.126-5.888
					c-13.189-7.052-26.235-14.372-39.134-21.943c-25.744-15.113-50.78-31.438-74.831-49.125
					c-16.432-12.084-31.72-25.462-47.708-38.084c0,1.178,0,2.357,0,3.535c22.061-22.063,44.069-44.177,66.134-66.235
					c-1.422-0.589-2.845-1.178-4.268-1.768c-1.832,20.914,10.497,41.554,29.847,49.847c17.715,7.592,41.081-0.416,53.887-13.743
					c11.907-12.391,16.947-31.228,10.905-47.464c-6.917-18.59-24.892-29.561-43.553-33.535c-1.554-0.331-3.125-0.572-4.695-0.814
					C-676.451-610.637-677.806-605.82-674.627-605.33L-674.627-605.33z"/>
			</g>
		</g>
	</g>
	<path clip-path="url(#SVGID_2_)" fill="none" d="M-602.487-378.462c156.646-79.26,316.325-206.374,316.325-381.152
		c0-179.651-215.244-254.56-316.288-119.832h-0.08c-101.044-134.728-316.294-59.819-316.294,119.832
		C-918.824-584.836-759.138-457.722-602.487-378.462"/>
</g>
<g>
	<g>
		<path fill="#FFEAAA" d="M-375.208-866.369c23.93-1.374,41.225,29.58,49.047,52.266c4.382,12.516,11.911,49.601-5.511,55.298
			c-20.347,6.869-26.316-21.323-28.131-34.201c-1.209-9.712-5.117-21.052-11.002-28.879c-6.129-8.408-15.873-13.98-18.375-25.224
			C-390.975-856.579-385.634-866.912-375.208-866.369"/>
	</g>
	<g>
		<path fill="#FFEAAA" d="M-342.29-744.021c21.476-10.876,33.829,20.812,16.613,29.209
			C-349.201-703.314-360.107-734.614-342.29-744.021"/>
	</g>
</g>
<path fill="#005C97" d="M-279.067-865h-124.57L-602.45-379h137.15l27.057-73h193.152l27.053,73H-80.89L-279.067-865z
	 M-341.669-549.384c-70.521-31.929-94.605-87.516-70.17-119.245c23.646-30.693,70.172-12.581,70.172,18.586
	c0-31.167,46.525-49.28,70.166-18.586C-247.067-636.899-271.151-581.313-341.669-549.384z"/>
</svg>
