<?xml version="1.0" encoding="utf-8"?>
<!-- Generator: Adobe Illustrator 16.0.0, SVG Export Plug-In . SVG Version: 6.00 Build 0)  -->
<!DOCTYPE svg PUBLIC "-//W3C//DTD SVG 1.1//EN" "http://www.w3.org/Graphics/SVG/1.1/DTD/svg11.dtd">
<svg version="1.1" id="Capa_7" xmlns="http://www.w3.org/2000/svg" xmlns:xlink="http://www.w3.org/1999/xlink" x="0px" y="0px"
	 width="1080px" height="1080px" viewBox="0 0 1080 1080" enable-background="new 0 0 1080 1080" xml:space="preserve">
<g>
	<g>
		<defs>
			<path id="SVGID_1_" d="M407.586,738.838c201.83-102.123,407.569-265.904,407.569-491.097
				c0-231.472-277.331-327.989-407.521-154.398h-0.104C277.34-80.25,0,16.269,0,247.741C0,472.934,205.748,636.715,407.586,738.838"
				/>
		</defs>
		<clipPath id="SVGID_2_">
			<use xlink:href="#SVGID_1_"  overflow="visible"/>
		</clipPath>
		<g clip-path="url(#SVGID_2_)">
			<g>
				
					<linearGradient id="SVGID_3_" gradientUnits="userSpaceOnUse" x1="48.4075" y1="593.6777" x2="448.0696" y2="593.6777" gradientTransform="matrix(1 0 0 -1 -47.6001 910.0098)">
					<stop  offset="0" style="stop-color:#80DBFF"/>
					<stop  offset="1" style="stop-color:#00A1D3"/>
				</linearGradient>
				<path fill="url(#SVGID_3_)" d="M172.685,582.703c-11.279-10.846-21.378-20.159-31.044-29.916
					c-30.291-30.552-57.439-63.646-79.998-100.383c-27.957-45.558-47.401-94.398-56.038-147.28
					c-9.359-57.295-6.134-113.152,19.58-166.364c16.336-33.817,39.333-62.187,69.007-85.172c1.516-1.17,3.108-2.247,5.017-3.625
					c41.762,43.401,87.563,82.319,128.282,127.56c-4.075,1.444-7.484,2.582-10.854,3.855c-12.205,4.628-23.347,10.898-31.725,21.227
					c-9.831,12.133-13.522,25.872-9.68,41.127c7.478,29.727,33.734,54.499,68.153,51.583c14.75-1.256,26.497-8.561,35.655-19.632
					c6.798-8.231,12.397-17.451,18.003-25.478c33.974,33.679,68.5,67.908,103.425,102.535c-1.048,1.117-2.415,2.638-3.863,4.086
					c-26.708,26.725-53.424,53.444-80.14,80.161c-1.126,1.121-2.319,2.192-3.334,3.396c-3.507,4.141-2.319,7.759,3.102,8.634
					c12.356,1.997,23.922,5.827,34.193,13.2c28.98,20.796,30.592,56.995,3.348,81.729c-15.348,13.93-33.178,19.237-53.3,12.379
					c-19.986-6.795-31.369-21.368-35.217-41.904c-0.678-3.606-0.228-7.41-0.728-11.057c-0.328-2.394-0.747-5.619-2.359-6.795
					c-2.909-2.148-5.435,0.37-7.637,2.604c-10.949,11.022-21.954,21.988-32.945,32.973c-14.977,14.979-29.982,29.938-44.91,44.97
					C175.321,578.479,174.401,580.274,172.685,582.703z"/>
				<g>
					
						<linearGradient id="SVGID_4_" gradientUnits="userSpaceOnUse" x1="47.1199" y1="593.7207" x2="449.8678" y2="593.7207" gradientTransform="matrix(1 0 0 -1 -47.6001 910.0098)">
						<stop  offset="0" style="stop-color:#80DBFF"/>
						<stop  offset="1" style="stop-color:#00A1D3"/>
					</linearGradient>
					<path fill="url(#SVGID_4_)" d="M177.241,578.148c-27.586-26.478-54.54-53.044-78.215-83.176
						c-23.63-30.076-43.738-63.054-59.331-97.981C8.999,328.229-4.055,246.161,18.452,173.148
						c14.34-46.523,44.301-89.278,84.008-117.625c-2.602-0.336-5.204-0.671-7.806-1.007c41.881,43.411,87.817,82.759,128.282,127.56
						c0.947-3.59,1.896-7.178,2.844-10.768c-23.693,8.337-45.136,18.952-55.299,43.45c-9.014,21.731,1.734,47.182,16.117,63.842
						c14.747,17.082,38.171,25.938,60.497,22.716c27.589-3.98,40.973-26.83,55.515-47.862c-3.374,0.435-6.745,0.87-10.118,1.304
						c34.478,34.177,68.951,68.355,103.425,102.535c0-3.037,0-6.073,0-9.11c-14.109,15.193-29.27,29.506-43.93,44.169
						c-7.287,7.288-14.572,14.575-21.857,21.861c-7.339,7.339-16.497,14.488-22.557,22.916c-3.471,4.827-4.339,13.215,2.147,16.313
						c8.117,3.876,17.731,4.094,26.12,7.779c14.547,6.389,26.298,18.353,30.067,33.978c7.638,31.646-27.257,62.806-57.549,56.655
						c-14.715-2.986-26.454-12.205-32.878-25.664c-3.521-7.375-3.777-14.884-4.508-22.826c-0.653-7.095-3.735-14.485-12.112-13.894
						c-3.626,0.256-6.402,2.713-8.881,5.145c-4.084,4.007-8.078,8.114-12.121,12.164c-8.132,8.141-16.281,16.267-24.419,24.402
						c-8.39,8.388-16.784,16.771-25.167,25.165c-7.411,7.42-15.248,14.403-21.15,23.105c-4.678,6.899,6.491,13.338,11.125,6.503
						c5.219-7.695,12.575-13.928,19.135-20.496c7.783-7.797,15.578-15.581,23.37-23.368c7.003-7,14.011-13.996,21.013-20.997
						c3.47-3.466,6.937-6.939,10.402-10.413c1.732-1.737,3.463-3.474,5.191-5.214c1.017-1.037,2.049-2.063,3.09-3.074
						c-2.45-1.225-3.232-0.835-2.349,1.172c0.764,4.131,0.112,8.411,0.945,12.568c0.701,3.507,1.596,6.919,2.748,10.307
						c2.34,6.877,5.959,12.986,10.468,18.643c9.101,11.418,24.158,18.409,38.418,20.166c31.372,3.865,62.359-21.538,68.089-52.068
						c6.093-32.461-18.95-58.406-48.055-67.502c-2.072-0.647-4.188-1.14-6.301-1.637c-1.424-0.318-2.855-0.606-4.293-0.865
						c-2.121-1.108-2.962-0.449-2.519,1.981c0.874-1.917,3.773-3.967,5.243-5.439c2.428-2.428,4.858-4.857,7.286-7.286
						c8.501-8.501,17.002-17.003,25.501-25.504c16.478-16.48,33.535-32.559,49.394-49.634c2.379-2.563,2.562-6.571,0-9.11
						c-34.475-34.179-68.949-68.358-103.425-102.536c-3.12-3.091-7.775-2.085-10.119,1.305
						c-11.824,17.102-22.087,36.362-43.938,41.303c-17.969,4.064-36.853-3.656-49.496-16.25
						c-12.599-12.548-21.124-32.487-16.391-50.159c5.882-21.98,28.218-31.313,47.547-38.115c4.663-1.64,6.224-7.026,2.844-10.767
						c-40.464-44.802-86.401-84.148-128.282-127.561c-1.871-1.938-5.507-2.648-7.808-1.007
						C36.572,86.795,1.062,155.014-4.805,227.179c-6.109,75.152,16.905,151.898,53.887,216.69
						c15.445,27.059,33.822,52.389,53.847,76.225c20.151,23.986,42.636,45.506,65.202,67.166
						C174.123,593.011,183.245,583.91,177.241,578.148z"/>
				</g>
			</g>
			<g>
				
					<linearGradient id="SVGID_5_" gradientUnits="userSpaceOnUse" x1="463.1511" y1="593.834" x2="861.9465" y2="593.834" gradientTransform="matrix(1 0 0 -1 -47.6001 910.0098)">
					<stop  offset="0" style="stop-color:#FFDE91"/>
					<stop  offset="1" style="stop-color:#FFCC66"/>
				</linearGradient>
				<path fill="url(#SVGID_5_)" d="M643.63,580.752c-23.952-23.955-47.399-47.411-71.1-71.098
					c30.964-12.792,43.841-36.081,36.444-68.964c-5.961-26.496-25.034-40.478-50.413-46.32
					c-32.251-7.434-50.866,10.302-63.942,35.779c-26.366-26.359-52.588-52.58-79.069-79.069
					c8.108-8.305,16.958-17.396,25.837-26.458c23.114-23.578,46.236-47.137,69.348-70.707c0.625-0.639,1.255-1.253,1.832-1.917
					c3.863-4.431,3.225-7.376-2.257-9.568c-10.942-4.353-20.953-10.089-29.192-18.661c-14.504-15.084-17.37-34.719-7.41-53.062
					c6.011-11.069,14.373-20.119,25.171-26.646c23.856-14.421,51.607-7.788,66.104,16.082c3.515,5.794,5.923,12.387,8.021,18.875
					c2.778,8.56,5.119,9.348,11.645,2.813c34.811-34.87,69.602-69.757,104.404-104.633c6.362-6.377,12.735-12.737,19.107-19.104
					c8.48-8.483,8.502-8.51,18.142-0.926c44.965,35.384,71.914,81.781,82.391,137.597c14.248,75.894,0.87,148.001-32.301,216.917
					c-24.205,50.279-57.691,94.024-96.339,133.96c-10.552,10.898-21.681,21.241-32.568,31.813
					C646.249,578.653,644.858,579.709,643.63,580.752z"/>
				<g>
					
						<linearGradient id="SVGID_6_" gradientUnits="userSpaceOnUse" x1="462.2273" y1="593.7598" x2="862.6055" y2="593.7598" gradientTransform="matrix(1 0 0 -1 -47.6001 910.0098)">
						<stop  offset="0" style="stop-color:#FFDE91"/>
						<stop  offset="1" style="stop-color:#FFCC66"/>
					</linearGradient>
					<path fill="url(#SVGID_6_)" d="M645.954,578.428c-23.699-23.7-47.394-47.403-71.101-71.098c-0.222,1.72-0.443,3.44-0.664,5.16
						c18.824-7.986,34.4-21.657,38.886-42.277c4.511-20.738-2.06-44.797-16.772-60.02c-14.056-14.544-38.743-23.118-58.736-20.35
						c-21.912,3.035-36.095,20.054-45.784,38.643c1.72-0.222,3.44-0.443,5.16-0.665c-26.359-26.354-52.717-52.709-79.069-79.07
						c0,1.549,0,3.097,0,4.646c29.306-30.021,58.696-59.961,88.073-89.914c3.819-3.894,11.703-9.402,12.257-15.455
						c0.626-6.847-7.011-8.67-11.936-10.885c-16.459-7.406-31.239-20.22-34.716-38.626c-3.376-17.867,8.673-35.514,21.632-46.473
						c12.662-10.708,29.512-15.116,45.427-9.958c18.147,5.882,26.107,22.99,31.863,39.632c5.769,16.68,18.76,0.161,25.502-6.594
						c30.007-30.063,60.001-60.137,90.003-90.204c7.006-7.02,14.015-14.036,21.032-21.043c2.918-2.914,5.731-6.295,9.141-8.654
						c2.507-1.734,9.293,5.416,11.013,6.802c12.794,10.327,24.376,22.104,34.645,34.934c45.209,56.49,55.943,134.732,45.865,204.639
						c-7.89,54.718-29.809,106.966-59.25,153.482c-14.587,23.048-31.354,44.647-49.337,65.132
						c-9.024,10.277-18.408,20.248-28.087,29.91c-9.606,9.593-19.232,19.64-29.689,28.3c-3.267,2.705,1.41,7.326,4.646,4.646
						c14.592-12.084,28.04-26.285,41.097-39.994c12.88-13.52,25.149-27.616,36.756-42.241
						c23.002-28.981,42.827-60.353,58.443-93.912c31.86-68.466,43.844-144.633,28.426-218.99
						c-6.497-31.332-19.273-61.259-37.906-87.292c-9.255-12.933-20.031-24.711-31.786-35.403
						c-5.656-5.146-11.6-10.068-17.798-14.552c-3.95-2.861-8.197-3.104-12.023,0.072c-6.865,5.697-12.92,12.583-19.224,18.888
						c-7.743,7.745-15.475,15.503-23.209,23.255c-14.999,15.034-29.999,30.069-44.999,45.104
						c-7.199,7.217-14.4,14.432-21.602,21.648c-7.397,7.413-14.572,16.512-23.046,22.677c-1.695,1.234-4.736-9.557-5.142-10.687
						c-1.389-3.855-3.088-7.585-4.989-11.211c-3.414-6.504-8.53-12.498-14.36-16.946c-42.778-32.65-108.313,22.532-84.764,70.294
						c6,12.167,17.704,21.061,29.431,27.239c2.674,1.409,5.458,2.646,8.255,3.786c5.772,2.352,1.94,5.711-0.88,8.59
						c-6.521,6.648-13.04,13.295-19.56,19.941c-24.637,25.117-49.271,50.235-73.847,75.411c-1.25,1.28-1.277,3.369,0,4.646
						c26.353,26.361,52.709,52.717,79.069,79.07c1.444,1.443,4.172,1.229,5.16-0.665c8.406-16.13,19.918-31.155,38.613-35.117
						c18.819-3.988,42.133,5.032,55.586,18.153c13.594,13.257,18.503,35.332,15.083,53.625c-3.56,19.036-18.921,31.162-35.867,38.35
						c-1.99,0.844-2.017,3.807-0.664,5.16c23.703,23.694,47.399,47.397,71.099,71.098
						C644.306,586.074,648.953,581.428,645.954,578.428z"/>
				</g>
			</g>
			<g>
				<g>
					
						<linearGradient id="SVGID_7_" gradientUnits="userSpaceOnUse" x1="150.0603" y1="731.1484" x2="761.1838" y2="731.1484" gradientTransform="matrix(1 0 0 -1 -47.6001 910.0098)">
						<stop  offset="0" style="stop-color:#FF468C"/>
						<stop  offset="1" style="stop-color:#B50F52"/>
					</linearGradient>
					<path fill="url(#SVGID_7_)" d="M706.007,42.923C665.222,17.709,621.149,4.581,572.922,6.756
						c-45.014,2.031-84.756,18.021-120.263,45.284c-14.222,10.926-26.233,24.036-37.774,37.692
						c-6.442,7.612-9.091,7.221-15.251-0.624c-39.258-50.05-91.001-77.091-154.086-81.667
						c-48.196-3.506-93.039,8.223-134.038,34.054c-1.415,0.881-7.458,3.114-9.049,4.267l133.627,133.662
						c-44.333,11.331-55.022,33.522-57.24,45.515c-2.688,14.552,3.131,29.384,11.98,40.546
						c20.103,25.362,53.85,35.187,79.797,11.029c9.311-8.669,19.342-26.289,24.732-37.717l112.23,112.401
						c31.545-32.226,70.988-72.536,102.644-104.857c-15.072-4.501-33.377-17.636-40.437-28.321
						c-12.295-18.63-8.667-39.162,1.104-54.71c9.777-15.572,21.775-24.864,36.554-30.363c21.797-8.12,65.147,3.178,70.714,47.388
						c42.215-42.05,93.143-91.856,135.419-133.961C713.41,46.227,706.583,43.28,706.007,42.923z"/>
				</g>
				<g>
					
						<linearGradient id="SVGID_8_" gradientUnits="userSpaceOnUse" x1="149.0706" y1="731.0332" x2="762.1293" y2="731.0332" gradientTransform="matrix(1 0 0 -1 -47.6001 910.0098)">
						<stop  offset="0" style="stop-color:#FF468C"/>
						<stop  offset="1" style="stop-color:#B50F52"/>
					</linearGradient>
					<path fill="url(#SVGID_8_)" d="M707.634,40.141C646.672,2.786,571.865-8.621,504.513,18.351
						c-33.447,13.395-62.12,35.132-85.833,62.038c-2.998,3.404-5.804,6.997-9.013,10.209c-3.801,3.807-8.327-4.5-10.279-6.93
						c-5.366-6.674-11.158-12.996-17.22-19.041c-10.919-10.89-23.125-20.492-36.139-28.752
						C310.906,13.576,268.978,3.576,227.633,3.618c-23.536,0.025-46.997,4.176-69.259,11.722
						c-10.648,3.609-20.97,8.188-30.967,13.317c-5.321,2.731-10.495,5.739-15.598,8.858c-3.514,2.148-7.468,3.339-10.975,5.467
						c-1.771,1.074-2.139,3.571-0.651,5.058c43.412,43.424,86.823,86.847,130.237,130.271c1.13,1.13,2.26,2.262,3.39,3.392
						c0.475-1.795,0.946-3.59,1.421-5.383c-20.335,5.353-41.456,14.424-53.374,32.666c-11.208,17.156-7.206,38.541,3.748,54.842
						c13.306,19.801,36.965,32.927,60.997,28.859c26.072-4.413,41.141-30.516,51.538-52.263c-1.686,0.218-3.373,0.435-5.058,0.653
						c37.409,37.466,74.82,74.934,112.229,112.4c1.23,1.233,3.328,1.254,4.555,0c34.215-34.952,68.421-69.913,102.644-104.857
						c1.743-1.776,0.883-4.653-1.421-5.383c-22.255-7.057-44.745-24.811-45.876-49.673c-1.088-23.941,18.159-46.011,38.665-55.686
						c13.229-6.241,28.532-4.949,41.626,1.05c17.158,7.862,27.016,23.962,29.556,42.264c0.349,2.496,3.839,2.959,5.386,1.421
						c44.99-44.803,90.424-89.16,135.417-133.961c1.408-1.4,1.214-4.11-0.652-5.058C712.736,42.334,710.105,41.404,707.634,40.141
						c-3.69-1.886-6.953,3.672-3.252,5.562c2.472,1.263,5.103,2.193,7.575,3.451c-0.218-1.687-0.435-3.374-0.652-5.059
						c-44.993,44.801-90.427,89.156-135.417,133.961c1.794,0.474,3.589,0.947,5.384,1.421
						c-2.857-20.564-14.671-37.938-33.707-46.659c-15.877-7.275-32.951-7.107-48.622,0.287
						c-23.078,10.889-41.261,36.567-40.081,62.494c1.218,26.774,26.871,46.352,50.513,53.847c-0.474-1.794-0.947-3.589-1.422-5.383
						c-34.223,34.943-68.428,69.904-102.644,104.857c1.519,0,3.038,0,4.555,0c-37.41-37.467-74.82-74.934-112.229-112.401
						c-1.375-1.377-4.152-1.246-5.06,0.652c-9.482,19.837-21.74,41.942-44.251,48.512c-22.843,6.667-45.992-8.496-58.307-26.82
						c-9.759-14.523-11.695-32.701-2.041-47.479c10.647-16.295,31.019-24.129,48.966-28.854c2.353-0.618,3.121-3.684,1.422-5.383
						C194.953,133.723,151.542,90.3,108.129,46.876c-1.13-1.13-2.26-2.261-3.39-3.391c-0.217,1.686-0.434,3.373-0.652,5.058
						c5.376-3.262,11.311-5.737,16.781-8.944c8.67-5.084,17.723-9.539,26.992-13.42c17.072-7.149,35.166-11.927,53.502-14.374
						c34.063-4.545,69.567-0.586,102.001,10.619c30.507,10.541,57.525,29.043,79.699,52.336c5.588,5.868,10.65,12.156,15.765,18.433
						c3.63,4.456,8.245,6.744,13.448,3.539c3.181-1.96,5.525-5.482,7.908-8.27c3.024-3.535,6.12-7.005,9.265-10.434
						c6.805-7.421,14.069-14.395,21.828-20.811c34.228-28.306,77.364-45.016,121.646-47.24
						c46.688-2.344,91.872,11.468,131.459,35.728C707.933,47.881,711.168,42.307,707.634,40.141z"/>
				</g>
			</g>
			<g>
				
					<linearGradient id="SVGID_9_" gradientUnits="userSpaceOnUse" x1="222.1873" y1="365.6846" x2="689.3508" y2="365.6846" gradientTransform="matrix(1 0 0 -1 -47.6001 910.0098)">
					<stop  offset="0" style="stop-color:#96D778"/>
					<stop  offset="1" style="stop-color:#55A52B"/>
				</linearGradient>
				<path fill="url(#SVGID_9_)" d="M315.492,443.424c49.741,7.201,67.099,43.488,62.723,67.274
					c-5.88,31.943-31.011,53.252-67.9,52.974c-22.256-0.175-54.358-27.587-50.517-64.459c-24.712,24.702-60.079,60.209-85.21,85.34
					c1.583,1.232,8.37,6.79,9.529,7.787c67.085,57.544,141.69,103.622,219.936,144.152c3.171,1.646,5.538,0.967,8.344-0.48
					c68.053-35.083,133.368-74.467,193.165-122.536c10.292-8.264,20.295-16.892,31.972-26.647c-2.464-1.569,5.42-1.749,4.061-3.101
					l-79.921-78.196c23.765-0.594,44.594-23.571,45.893-43.847c1.55-24.334-24.679-56.271-50.271-63.02
					c-13.726-3.623-28.932-0.678-40.43,7.919c-9.618,7.18-16.96,21.488-21.783,32.245L407.586,351.2
					C380.141,378.636,342.428,416.487,315.492,443.424"/>
				<g>
					
						<linearGradient id="SVGID_10_" gradientUnits="userSpaceOnUse" x1="221.2151" y1="365.8936" x2="689.9952" y2="365.8936" gradientTransform="matrix(1 0 0 -1 -47.6001 910.0098)">
						<stop  offset="0" style="stop-color:#96D778"/>
						<stop  offset="1" style="stop-color:#55A52B"/>
					</linearGradient>
					<path fill="url(#SVGID_10_)" d="M314.636,446.529c23.085,3.561,45.087,14.377,55.99,35.953
						c9.172,18.15,4.483,39.531-7.666,55.161c-13.609,17.514-41.376,27.905-62.889,20.873
						c-24.303-7.944-39.208-34.694-37.053-59.303c0.254-2.895-3.64-4.136-5.5-2.279c-28.429,28.422-56.785,56.915-85.21,85.341
						c-1.132,1.131-1.38,3.464,0,4.555c26.5,20.923,52.014,42.704,79.629,62.232c31.411,22.212,64.135,42.526,97.566,61.544
						c16.768,9.539,33.753,18.692,50.864,27.6c7.064,3.678,11.117,1.906,17.86-1.588c9.1-4.715,18.149-9.533,27.158-14.425
						c34.565-18.763,68.338-39.001,100.918-61.04c32.715-22.132,63.246-46.727,93.505-72.048c1.33-1.112,1.183-3.418,0-4.555
						c-0.149-0.144-0.297-0.287-0.448-0.432c0.275,1.045,0.553,2.09,0.828,3.136c-1.417,1.257-1.478,1.606-0.185,1.048
						c0.573-0.146,1.141-0.313,1.701-0.5c0.893-0.28,1.688-0.73,2.314-1.426c0.713-0.787,1.26-2.062,0.829-3.133
						c-1.889-4.693-8.141-8.804-11.632-12.219c-9.313-9.109-18.623-18.22-27.935-27.33c-13.777-13.48-27.556-26.961-41.334-40.441
						c-0.759,1.832-1.519,3.666-2.277,5.499c20.03-0.982,38.436-15.098,45.876-33.608c7.873-19.585-0.768-39.069-13.253-54.566
						c-13.333-16.55-33.286-28.633-55.056-26.246c-24.55,2.693-37.563,22.157-46.938,42.87c1.686-0.218,3.374-0.434,5.059-0.652
						c-29.166-29.209-58.331-58.419-87.496-87.629c-1.239-1.242-3.315-1.241-4.555,0c-30.722,30.718-61.374,61.505-92.093,92.225
						c-2.94,2.94,1.614,7.495,4.555,4.555c30.719-30.721,61.372-61.507,92.093-92.225c-1.518,0-3.036,0-4.555,0
						c29.166,29.209,58.33,58.419,87.495,87.629c1.352,1.354,4.188,1.271,5.058-0.653c8.119-17.931,17.837-34.225,38.246-39.102
						c19.898-4.755,38.287,6.878,51.191,20.944c11.198,12.207,20.298,29.584,15.729,46.412
						c-4.871,17.95-22.852,32.695-41.358,33.604c-2.726,0.135-4.372,3.453-2.278,5.5c13.168,12.883,26.335,25.768,39.502,38.651
						c9.255,9.052,18.507,18.104,27.759,27.159c2.99,2.925,5.982,5.852,8.973,8.777c0.869,0.851,1.74,1.702,2.608,2.553
						c0.887,0.867,1.104,1.757,0.402,0.008c0.275-1.046,0.553-2.09,0.828-3.136c-0.854,0.947-3.453,0.781-4.605,1.933
						c-1.594,1.597-1.082,3.931,0.396,5.351c0-1.518,0-3.036,0-4.555c-30.456,25.483-61.236,50.091-94.157,72.362
						c-32.58,22.039-66.482,42.085-101.04,60.847c-8.317,4.516-16.686,8.933-25.081,13.296c-2.324,1.209-5.498,3.442-8.251,3.053
						c-2.122-0.3-5.261-2.586-7.218-3.607c-4.791-2.503-9.566-5.037-14.334-7.588c-16.993-9.087-33.802-18.517-50.422-28.271
						c-33.17-19.472-65.427-40.507-96.417-63.295c-21.171-15.57-40.87-32.807-61.468-49.07c0,1.518,0,3.036,0,4.556
						c28.424-28.428,56.78-56.921,85.21-85.342c-1.833-0.759-3.667-1.517-5.5-2.277c-2.36,26.947,13.525,53.54,38.456,64.226
						c22.826,9.781,52.931-0.536,69.432-17.708c15.34-15.964,21.834-40.235,14.049-61.155
						c-8.912-23.952-32.072-38.088-56.116-43.208c-2.002-0.427-4.026-0.737-6.049-1.049
						C312.287,439.691,310.54,445.897,314.636,446.529L314.636,446.529z"/>
				</g>
			</g>
		</g>
	</g>
	<g>
		<defs>
			<path id="SVGID_11_" d="M407.586,738.838c201.83-102.123,407.569-265.904,407.569-491.097
				c0-231.472-277.331-327.989-407.521-154.398h-0.104C277.34-80.25,0,16.269,0,247.741C0,472.934,205.748,636.715,407.586,738.838"
				/>
		</defs>
		<clipPath id="SVGID_12_">
			<use xlink:href="#SVGID_11_"  overflow="visible"/>
		</clipPath>
		<path clip-path="url(#SVGID_12_)" fill="none" d="M407.586,738.838c201.83-102.123,407.569-265.904,407.569-491.097
			c0-231.472-277.331-327.989-407.521-154.398h-0.104C277.34-80.25,0,16.269,0,247.741C0,472.934,205.748,636.715,407.586,738.838"
			/>
	</g>
</g>
<path fill="#005C97" d="M824.298,112.213H663.795L407.634,738.402h176.711l34.862-94.057h248.867l34.855,94.057h176.71
	L824.298,112.213z M743.638,518.613c-90.863-41.139-121.894-112.761-90.411-153.642c30.468-39.546,90.413-16.21,90.413,23.947
	c0-40.157,59.946-63.495,90.406-23.947C865.529,405.852,834.497,477.474,743.638,518.613z"/>
</svg>
