<?xml version="1.0" encoding="utf-8"?>
<!-- Generator: Adobe Illustrator 16.0.0, SVG Export Plug-In . SVG Version: 6.00 Build 0)  -->
<!DOCTYPE svg PUBLIC "-//W3C//DTD SVG 1.1//EN" "http://www.w3.org/Graphics/SVG/1.1/DTD/svg11.dtd">
<svg version="1.1" id="Capa_7" xmlns="http://www.w3.org/2000/svg" xmlns:xlink="http://www.w3.org/1999/xlink" x="0px" y="0px"
	 width="1080px" height="1080px" viewBox="0 0 1080 1080" enable-background="new 0 0 1080 1080" xml:space="preserve">
<path fill="#005C97" d="M646.488,665.522c-15.064-19.556-44.702-8.022-44.702,11.841c0-19.863-29.64-31.396-44.704-11.841
	c-15.568,20.213-0.228,55.625,44.704,75.964C646.711,721.147,662.055,685.735,646.488,665.522z"/>
<path fill="#005C97" d="M402.503,654.916l35.168,87.082h-24.337l-4.802-12.727h-34.275l-4.8,12.727h-24.34l35.281-87.082H402.503z
	 M391.452,683.498l-9.604,25.564h19.092L391.452,683.498z"/>
<path fill="#005C97" d="M447.719,741.998v-87.082h22.441l25.118,55.04l25.231-55.04h22.441v87.082h-22.216v-40.974l-18.088,37.625
	h-14.624l-18.088-37.625v40.974H447.719z"/>
<path fill="#005C97" d="M703.156,654.916c5.583,0,10.42,0.837,14.514,2.512c4.092,1.676,7.479,3.963,10.161,6.866
	c2.679,2.902,4.671,6.29,5.972,10.16c1.302,3.87,1.955,7.966,1.955,12.28c0,3.052-0.355,6.029-1.062,8.932
	c-0.708,2.902-1.769,5.6-3.183,8.095c-1.414,2.494-3.2,4.763-5.358,6.812c-2.161,2.048-4.689,3.739-7.592,5.079l18.868,26.347
	h-26.684l-16.522-23.334h-11.388v23.334H660.62v-87.082H703.156z M682.838,675.234v23.222h19.09c2.232,0,4.132-0.315,5.694-0.947
	c1.563-0.632,2.829-1.471,3.796-2.513c0.966-1.042,1.674-2.269,2.12-3.686c0.446-1.411,0.673-2.864,0.673-4.353
	c0-3.35-0.935-6.14-2.793-8.372c-1.86-2.232-5.024-3.352-9.49-3.352H682.838z"/>
<path fill="#005C97" d="M300.35,759.123l35.168,87.085h-24.34l-4.8-12.729h-34.272l-4.802,12.729h-24.338l35.279-87.085H300.35z
	 M289.296,787.706l-9.599,25.564h19.09L289.296,787.706z"/>
<path fill="#005C97" d="M420.145,759.123v49.015c0,5.579-0.875,10.792-2.625,15.63c-1.748,4.84-4.317,9.044-7.702,12.616
	c-3.388,3.572-7.576,6.383-12.561,8.426c-4.986,2.048-10.717,3.072-17.192,3.072c-6.552,0-12.319-1.024-17.306-3.072
	c-4.987-2.043-9.155-4.854-12.504-8.426c-3.35-3.572-5.88-7.776-7.592-12.616c-1.714-4.838-2.566-10.051-2.566-15.63v-49.015h22.328
	v47.675c0,6.326,1.489,11.164,4.466,14.511c2.977,3.352,7.368,5.025,13.174,5.025c5.879,0,10.327-1.674,13.34-5.025
	c3.016-3.347,4.522-8.185,4.522-14.511v-47.675H420.145z"/>
<path fill="#005C97" d="M430.303,759.123h76.588v21.661h-27.13v65.424h-22.329v-65.424h-27.13V759.123z"/>
<path fill="#005C97" d="M540.607,759.123v87.085h-22.331v-87.085H540.607z"/>
<path fill="#005C97" d="M575.662,820.082v0.56c0,0.82,0.293,1.693,0.894,2.623c0.593,0.931,1.486,1.786,2.679,2.568
	c1.189,0.78,2.716,1.435,4.576,1.953c1.861,0.521,4.056,0.78,6.588,0.78c4.166,0,7.051-0.575,8.652-1.729
	c1.599-1.152,2.399-2.361,2.399-3.629c0-1.858-1.154-3.46-3.46-4.8c-2.31-1.34-6.105-2.904-11.39-4.691
	c-3.498-1.113-7.127-2.436-10.884-3.96c-3.76-1.524-7.202-3.405-10.328-5.639c-3.126-2.232-5.713-4.948-7.758-8.15
	c-2.048-3.198-3.07-7.032-3.07-11.498c0-4.168,0.837-7.907,2.513-11.223c1.674-3.312,4.02-6.14,7.032-8.485
	c3.014-2.343,6.604-4.147,10.774-5.413c4.165-1.265,8.744-1.898,13.732-1.898c5.06,0,9.767,0.653,14.124,1.953
	c4.353,1.304,8.109,3.183,11.274,5.639c3.162,2.456,5.654,5.415,7.48,8.877c1.823,3.46,2.733,7.351,2.733,11.665v1.229h-21.769
	v-0.782c0-1.042-0.279-2.12-0.839-3.236c-0.557-1.116-1.394-2.122-2.513-3.016c-1.114-0.894-2.513-1.619-4.186-2.177
	c-1.674-0.557-3.627-0.837-5.859-0.837c-3.799,0-6.514,0.614-8.151,1.841c-1.638,1.229-2.456,2.589-2.456,4.078
	c0,1.711,1.099,3.162,3.293,4.353s5.897,2.68,11.107,4.466c2.978,1.042,6.365,2.327,10.161,3.852
	c3.795,1.525,7.35,3.46,10.661,5.806c3.311,2.346,6.103,5.21,8.374,8.598s3.405,7.461,3.405,12.224
	c0,4.243-0.877,7.982-2.623,11.219c-1.75,3.238-4.17,5.937-7.258,8.097c-3.09,2.158-6.736,3.794-10.94,4.912
	c-4.206,1.114-8.803,1.674-13.787,1.674c-5.213,0-10.068-0.596-14.57-1.786c-4.506-1.191-8.412-2.921-11.723-5.192
	c-3.313-2.269-5.919-5.079-7.815-8.428c-1.896-3.35-2.849-7.146-2.849-11.388v-1.006H575.662z"/>
<path fill="#005C97" d="M638.738,846.208v-87.085h22.441l25.118,55.041l25.233-55.041h22.44v87.085h-22.218v-40.976l-18.086,37.624
	h-14.626l-18.086-37.624v40.976H638.738z"/>
<path fill="#005C97" d="M746.584,802.666c0-6.252,1.229-12.113,3.686-17.583c2.456-5.472,5.787-10.253,9.991-14.349
	c4.204-4.092,9.116-7.33,14.736-9.712c5.621-2.382,11.557-3.572,17.809-3.572c6.324,0,12.299,1.19,17.919,3.572
	c5.618,2.382,10.531,5.62,14.737,9.712c4.204,4.096,7.517,8.877,9.935,14.349c2.418,5.47,3.631,11.331,3.631,17.583
	s-1.213,12.113-3.631,17.583c-2.418,5.472-5.73,10.255-9.935,14.349c-4.206,4.091-9.119,7.33-14.737,9.712
	c-5.62,2.382-11.595,3.572-17.919,3.572c-6.252,0-12.188-1.19-17.809-3.572c-5.62-2.382-10.532-5.621-14.736-9.712
	c-4.204-4.094-7.535-8.877-9.991-14.349C747.813,814.779,746.584,808.918,746.584,802.666z M769.138,802.666
	c0,3.274,0.614,6.364,1.841,9.265c1.229,2.905,2.923,5.418,5.081,7.538s4.671,3.796,7.535,5.024
	c2.864,1.228,5.937,1.841,9.211,1.841c3.35,0,6.455-0.613,9.324-1.841c2.864-1.229,5.358-2.904,7.479-5.024s3.796-4.633,5.025-7.538
	c1.227-2.9,1.84-5.99,1.84-9.265c0-3.275-0.613-6.365-1.84-9.266c-1.229-2.904-2.905-5.417-5.025-7.537s-4.614-3.796-7.479-5.025
	c-2.869-1.227-5.975-1.84-9.324-1.84c-3.274,0-6.347,0.613-9.211,1.84c-2.864,1.229-5.377,2.905-7.535,5.025
	s-3.853,4.633-5.081,7.537C769.752,796.301,769.138,799.391,769.138,802.666z"/>
<g>
	<defs>
		<path id="SVGID_1_" d="M451.258,623.338c156.646-79.26,316.325-206.374,316.325-381.152c0-179.651-215.244-254.56-316.288-119.832
			h-0.08C350.171-12.375,134.921,62.535,134.921,242.186C134.921,416.964,294.607,544.078,451.258,623.338"/>
	</defs>
	<clipPath id="SVGID_2_">
		<use xlink:href="#SVGID_1_"  overflow="visible"/>
	</clipPath>
	<g clip-path="url(#SVGID_2_)">
		<g>
			<linearGradient id="SVGID_3_" gradientUnits="userSpaceOnUse" x1="135.5483" y1="295.4214" x2="445.7354" y2="295.4214">
				<stop  offset="0" style="stop-color:#80DBFF"/>
				<stop  offset="1" style="stop-color:#00A1D3"/>
			</linearGradient>
			<path fill-rule="evenodd" clip-rule="evenodd" fill="url(#SVGID_3_)" d="M268.946,502.158
				c-8.754-8.418-16.592-15.646-24.094-23.219c-23.51-23.711-44.58-49.396-62.088-77.909
				c-21.698-35.359-36.789-73.265-43.492-114.308c-7.264-44.468-4.761-87.82,15.196-129.119
				c12.679-26.246,30.527-48.264,53.558-66.104c1.176-0.908,2.412-1.744,3.893-2.814c32.412,33.685,67.96,63.89,99.563,99.002
				c-3.163,1.121-5.809,2.004-8.424,2.992c-9.473,3.592-18.12,8.458-24.622,16.475c-7.63,9.417-10.495,20.08-7.513,31.919
				c5.804,23.072,26.182,42.298,52.896,40.035c11.448-0.975,20.564-6.644,27.673-15.237c5.276-6.388,9.622-13.544,13.972-19.774
				c26.369,26.139,53.164,52.705,80.271,79.58c-0.814,0.867-1.874,2.047-2.998,3.171c-20.729,20.742-41.464,41.479-62.198,62.215
				c-0.874,0.87-1.8,1.701-2.588,2.636c-2.722,3.214-1.8,6.022,2.407,6.701c9.59,1.55,18.566,4.523,26.538,10.245
				c22.492,16.14,23.743,44.235,2.599,63.432c-11.912,10.812-25.75,14.931-41.368,9.608c-15.511-5.274-24.345-16.584-27.333-32.523
				c-0.526-2.799-0.176-5.751-0.564-8.581c-0.255-1.858-0.58-4.361-1.831-5.274c-2.258-1.667-4.218,0.287-5.927,2.021
				c-8.498,8.555-17.039,17.066-25.569,25.591c-11.624,11.625-23.27,23.235-34.856,34.902
				C270.991,498.879,270.278,500.273,268.946,502.158z"/>
			<g>
				<linearGradient id="SVGID_4_" gradientUnits="userSpaceOnUse" x1="134.5483" y1="295.3877" x2="447.1308" y2="295.3877">
					<stop  offset="0" style="stop-color:#80DBFF"/>
					<stop  offset="1" style="stop-color:#00A1D3"/>
				</linearGradient>
				<path fill="url(#SVGID_4_)" d="M272.482,498.623c-21.41-20.55-42.329-41.169-60.704-64.555
					c-18.34-23.342-33.947-48.937-46.048-76.045c-23.824-53.368-33.956-117.063-16.488-173.73
					c11.13-36.108,34.383-69.291,65.201-91.291c-2.02-0.261-4.039-0.521-6.059-0.782c32.505,33.692,68.157,64.231,99.563,99.002
					c0.735-2.786,1.471-5.571,2.207-8.357c-18.389,6.471-35.032,14.709-42.919,33.723c-6.996,16.866,1.345,36.619,12.508,49.549
					c11.446,13.258,29.627,20.131,46.954,17.631c21.412-3.089,31.8-20.823,43.086-37.147c-2.618,0.337-5.235,0.675-7.853,1.012
					c26.759,26.525,53.515,53.052,80.271,79.58c0-2.357,0-4.714,0-7.071c-10.951,11.792-22.717,22.9-34.095,34.281
					c-5.655,5.656-11.31,11.312-16.964,16.967c-5.696,5.696-12.804,11.245-17.507,17.786c-2.693,3.746-3.367,10.256,1.667,12.661
					c6.3,3.008,13.762,3.177,20.273,6.037c11.29,4.959,20.41,14.244,23.336,26.371c5.927,24.561-21.156,48.745-44.665,43.972
					c-11.421-2.319-20.532-9.473-25.518-19.919c-2.732-5.724-2.932-11.552-3.499-17.716c-0.507-5.507-2.899-11.242-9.4-10.783
					c-2.815,0.199-4.969,2.105-6.893,3.993c-3.17,3.11-6.269,6.298-9.407,9.44c-6.312,6.319-12.636,12.625-18.952,18.94
					c-6.512,6.51-13.027,13.016-19.533,19.531c-5.752,5.759-11.834,11.179-16.415,17.933c-3.631,5.354,5.038,10.351,8.635,5.047
					c4.051-5.973,9.76-10.81,14.851-15.908c6.041-6.051,12.091-12.092,18.138-18.136c5.436-5.433,10.874-10.863,16.309-16.296
					c2.693-2.691,5.384-5.386,8.073-8.082c1.345-1.348,2.688-2.697,4.03-4.047c0.789-0.805,1.589-1.601,2.398-2.386
					c-1.901-0.951-2.509-0.648-1.823,0.909c0.593,3.206,0.087,6.529,0.733,9.755c0.544,2.722,1.238,5.37,2.133,7.999
					c1.816,5.338,4.625,10.079,8.124,14.469c7.063,8.862,18.75,14.288,29.817,15.651c24.349,3,48.399-16.716,52.846-40.411
					c4.729-25.194-14.708-45.33-37.297-52.39c-1.608-0.502-3.251-0.885-4.89-1.27c-1.106-0.247-2.216-0.471-3.332-0.672
					c-1.647-0.86-2.299-0.348-1.956,1.538c0.679-1.488,2.929-3.079,4.07-4.221c1.885-1.885,3.77-3.77,5.655-5.655
					c6.598-6.598,13.195-13.196,19.792-19.794c12.789-12.791,26.027-25.27,38.336-38.522c1.847-1.989,1.988-5.1,0-7.071
					c-26.757-26.527-53.513-53.054-80.271-79.58c-2.42-2.399-6.034-1.619-7.853,1.012c-9.177,13.273-17.143,28.222-34.102,32.057
					c-13.946,3.154-28.602-2.838-38.415-12.612c-9.778-9.739-16.394-25.214-12.722-38.929c4.566-17.06,21.901-24.303,36.903-29.582
					c3.619-1.273,4.83-5.453,2.207-8.357c-31.405-34.771-67.058-65.309-99.563-99.002c-1.452-1.504-4.274-2.056-6.059-0.782
					c-46.091,32.904-73.651,85.85-78.204,141.859c-4.742,58.327,13.12,117.892,41.823,168.178
					c11.987,21.001,26.25,40.66,41.792,59.16c15.64,18.617,33.091,35.319,50.604,52.129
					C270.062,510.158,277.142,503.095,272.482,498.623z"/>
			</g>
		</g>
		<g>
			<linearGradient id="SVGID_5_" gradientUnits="userSpaceOnUse" x1="457.4404" y1="295.2979" x2="766.9561" y2="295.2979">
				<stop  offset="0" style="stop-color:#FFDE91"/>
				<stop  offset="1" style="stop-color:#FFCC66"/>
			</linearGradient>
			<path fill-rule="evenodd" clip-rule="evenodd" fill="url(#SVGID_5_)" d="M634.458,500.644
				c-18.59-18.592-36.789-36.797-55.182-55.181c24.031-9.929,34.025-28.003,28.285-53.525c-4.627-20.564-19.43-31.416-39.127-35.95
				c-25.031-5.77-39.478,7.995-49.627,27.769c-20.463-20.458-40.814-40.809-61.367-61.368c6.293-6.445,13.162-13.501,20.053-20.535
				c17.939-18.299,35.884-36.584,53.822-54.877c0.485-0.496,0.975-0.972,1.422-1.488c2.998-3.438,2.503-5.725-1.752-7.426
				c-8.492-3.378-16.262-7.83-22.656-14.483c-11.257-11.707-13.482-26.946-5.751-41.182c4.665-8.591,11.155-15.615,19.536-20.681
				c18.515-11.193,40.054-6.044,51.305,12.481c2.727,4.497,4.596,9.614,6.225,14.649c2.156,6.643,3.973,7.255,9.037,2.183
				c27.018-27.063,54.02-54.14,81.032-81.208c4.937-4.949,9.883-9.885,14.829-14.827c6.582-6.584,6.598-6.605,14.08-0.719
				c34.898,27.462,55.814,63.472,63.945,106.792c11.059,58.903,0.676,114.867-25.069,168.354
				c-18.786,39.023-44.776,72.974-74.771,103.97c-8.189,8.458-16.827,16.485-25.277,24.691
				C636.491,499.015,635.411,499.834,634.458,500.644z"/>
			<g>
				<linearGradient id="SVGID_6_" gradientUnits="userSpaceOnUse" x1="456.7236" y1="295.3623" x2="767.4658" y2="295.3623">
					<stop  offset="0" style="stop-color:#FFDE91"/>
					<stop  offset="1" style="stop-color:#FFCC66"/>
				</linearGradient>
				<path fill="url(#SVGID_6_)" d="M636.261,498.84c-18.393-18.395-36.783-36.791-55.182-55.181
					c-0.172,1.335-0.344,2.67-0.516,4.005c14.61-6.198,26.699-16.809,30.181-32.812c3.501-16.095-1.599-34.768-13.018-46.583
					c-10.909-11.288-30.069-17.942-45.587-15.794c-17.006,2.355-28.014,15.564-35.534,29.992c1.335-0.172,2.67-0.344,4.005-0.516
					c-20.458-20.454-40.915-40.909-61.367-61.368c0,1.202,0,2.404,0,3.606c22.745-23.3,45.555-46.537,68.355-69.784
					c2.964-3.022,9.083-7.297,9.513-11.995c0.486-5.314-5.442-6.729-9.264-8.448c-12.774-5.748-24.245-15.693-26.944-29.979
					c-2.62-13.867,6.731-27.563,16.789-36.069c9.827-8.311,22.905-11.732,35.257-7.729c14.085,4.565,20.262,17.843,24.729,30.76
					c4.478,12.945,14.561,0.125,19.793-5.118c23.289-23.332,46.568-46.673,69.854-70.009c5.437-5.448,10.877-10.893,16.323-16.332
					c2.265-2.262,4.448-4.886,7.095-6.717c1.945-1.346,7.212,4.203,8.546,5.279c9.93,8.015,18.919,17.155,26.889,27.113
					c35.088,43.843,43.419,104.569,35.597,158.825c-6.123,42.468-23.135,83.019-45.985,119.121
					c-11.322,17.888-24.334,34.652-38.292,50.55c-7.003,7.977-14.287,15.715-21.798,23.214
					c-7.456,7.445-14.927,15.243-23.043,21.964c-2.536,2.1,1.094,5.687,3.605,3.606c11.325-9.378,21.763-20.4,31.897-31.04
					c9.996-10.493,19.518-21.433,28.526-32.784c17.853-22.493,33.239-46.841,45.359-72.887
					c24.728-53.138,34.029-112.253,22.063-169.963c-5.043-24.317-14.959-47.544-29.42-67.749
					c-7.184-10.037-15.547-19.179-24.67-27.477c-4.391-3.994-9.003-7.814-13.813-11.294c-3.067-2.22-6.363-2.409-9.333,0.056
					c-5.328,4.421-10.027,9.766-14.919,14.659c-6.01,6.011-12.01,12.032-18.013,18.049c-11.642,11.668-23.283,23.337-34.925,35.006
					c-5.588,5.601-11.177,11.201-16.766,16.802c-5.741,5.753-11.309,12.815-17.886,17.6c-1.316,0.958-3.676-7.417-3.991-8.294
					c-1.078-2.992-2.396-5.887-3.872-8.701c-2.65-5.048-6.621-9.7-11.145-13.152c-33.201-25.34-84.065,17.488-65.787,54.557
					c4.656,9.443,13.74,16.346,22.842,21.141c2.075,1.093,4.236,2.053,6.407,2.938c4.479,1.825,1.506,4.433-0.684,6.667
					c-5.06,5.16-10.12,10.318-15.18,15.477c-19.121,19.494-38.241,38.988-57.315,58.528c-0.97,0.994-0.991,2.615,0,3.606
					c20.453,20.459,40.909,40.915,61.367,61.368c1.121,1.12,3.239,0.954,4.005-0.516c6.525-12.519,15.459-24.18,29.969-27.255
					c14.606-3.095,32.7,3.905,43.142,14.089c10.55,10.289,14.36,27.422,11.706,41.62c-2.763,14.774-14.685,24.185-27.837,29.764
					c-1.545,0.655-1.566,2.955-0.516,4.005c18.397,18.389,36.788,36.786,55.182,55.181
					C634.982,504.774,638.589,501.168,636.261,498.84z"/>
			</g>
		</g>
		<g>
			<g>
				<linearGradient id="SVGID_7_" gradientUnits="userSpaceOnUse" x1="214.4424" y1="188.7266" x2="688.749" y2="188.7266">
					<stop  offset="0" style="stop-color:#FF468C"/>
					<stop  offset="1" style="stop-color:#B50F52"/>
				</linearGradient>
				<path fill-rule="evenodd" clip-rule="evenodd" fill="url(#SVGID_7_)" d="M682.87,83.222
					c-31.655-19.569-65.861-29.758-103.29-28.07c-34.937,1.576-65.782,13.986-93.339,35.146
					c-11.038,8.48-20.361,18.655-29.318,29.254c-5,5.908-7.055,5.604-11.837-0.484c-30.468-38.845-70.628-59.832-119.589-63.384
					c-37.407-2.721-72.211,6.382-104.031,26.43c-1.098,0.684-5.788,2.417-7.023,3.312l103.711,103.738
					c-34.408,8.794-42.705,26.017-44.425,35.325c-2.087,11.294,2.429,22.806,9.298,31.469c15.602,19.684,41.794,27.309,61.932,8.56
					c7.227-6.728,15.012-20.404,19.196-29.273l87.104,87.237c24.483-25.011,55.096-56.297,79.664-81.382
					c-11.698-3.493-25.905-13.688-31.384-21.981c-9.543-14.459-6.726-30.394,0.857-42.462c7.588-12.085,16.9-19.297,28.37-23.565
					c16.917-6.302,50.563,2.466,54.883,36.779c32.763-32.636,72.29-71.292,105.101-103.97
					C688.616,85.786,683.317,83.499,682.87,83.222z"/>
			</g>
			<g>
				<linearGradient id="SVGID_8_" gradientUnits="userSpaceOnUse" x1="213.6743" y1="188.8154" x2="689.4844" y2="188.8154">
					<stop  offset="0" style="stop-color:#FF468C"/>
					<stop  offset="1" style="stop-color:#B50F52"/>
				</linearGradient>
				<path fill="url(#SVGID_8_)" d="M684.132,81.063c-47.313-28.992-105.373-37.845-157.646-16.912
					c-25.959,10.396-48.213,27.267-66.617,48.149c-2.328,2.642-4.505,5.43-6.995,7.923c-2.951,2.955-6.463-3.493-7.978-5.378
					c-4.165-5.18-8.66-10.086-13.365-14.778c-8.475-8.452-17.949-15.904-28.048-22.315c-27.261-17.307-59.802-25.068-91.891-25.035
					c-18.267,0.019-36.476,3.241-53.754,9.097c-8.265,2.801-16.275,6.355-24.034,10.336c-4.13,2.12-8.146,4.454-12.106,6.875
					c-2.727,1.667-5.795,2.591-8.517,4.243c-1.375,0.834-1.66,2.772-0.506,3.926c33.693,33.702,67.386,67.404,101.08,101.106
					c0.877,0.877,1.754,1.755,2.631,2.632c0.368-1.393,0.735-2.786,1.103-4.178c-15.783,4.154-32.175,11.195-41.425,25.353
					c-8.699,13.315-5.593,29.912,2.909,42.564c10.327,15.368,28.69,25.555,47.341,22.398c20.235-3.425,31.931-23.684,40-40.562
					c-1.309,0.169-2.618,0.337-3.926,0.506c29.034,29.079,58.069,58.158,87.104,87.237c0.955,0.957,2.583,0.973,3.535,0
					c26.555-27.127,53.103-54.261,79.664-81.382c1.352-1.379,0.685-3.611-1.103-4.178c-17.272-5.477-34.727-19.256-35.605-38.553
					c-0.845-18.581,14.094-35.71,30.009-43.219c10.267-4.844,22.144-3.841,32.307,0.815c13.317,6.102,20.967,18.597,22.939,32.802
					c0.27,1.937,2.979,2.297,4.179,1.103c34.918-34.773,70.181-69.199,105.101-103.97c1.093-1.087,0.942-3.19-0.506-3.926
					C688.092,82.765,686.05,82.043,684.132,81.063c-2.864-1.464-5.396,2.85-2.523,4.317c1.918,0.98,3.96,1.702,5.879,2.678
					c-0.169-1.309-0.337-2.618-0.506-3.926c-34.921,34.771-70.183,69.196-105.101,103.97c1.393,0.368,2.785,0.735,4.179,1.103
					c-2.218-15.96-11.387-29.444-26.161-36.213c-12.322-5.646-25.574-5.516-37.736,0.223c-17.912,8.451-32.024,28.38-31.108,48.503
					c0.945,20.78,20.856,35.975,39.204,41.792c-0.368-1.393-0.735-2.786-1.103-4.178c-26.562,27.12-53.109,54.254-79.664,81.382
					c1.178,0,2.357,0,3.535,0c-29.034-29.079-58.069-58.158-87.104-87.237c-1.067-1.069-3.222-0.967-3.926,0.506
					c-7.36,15.396-16.873,32.552-34.345,37.651c-17.729,5.174-35.696-6.594-45.253-20.816c-7.575-11.272-9.077-25.38-1.584-36.85
					c8.263-12.647,24.074-18.727,38.004-22.394c1.826-0.48,2.422-2.859,1.103-4.178c-33.693-33.702-67.386-67.404-101.08-101.106
					c-0.877-0.877-1.754-1.755-2.631-2.632c-0.168,1.309-0.337,2.618-0.506,3.926c4.173-2.532,8.779-4.453,13.025-6.942
					c6.729-3.946,13.755-7.404,20.949-10.416c13.25-5.549,27.293-9.257,41.524-11.156c26.438-3.527,53.994-0.455,79.167,8.242
					c23.676,8.181,44.646,22.541,61.856,40.619c4.337,4.555,8.266,9.435,12.235,14.306c2.818,3.458,6.4,5.234,10.438,2.747
					c2.469-1.521,4.288-4.255,6.138-6.418c2.346-2.744,4.75-5.437,7.19-8.098c5.281-5.76,10.919-11.172,16.941-16.152
					c26.565-21.969,60.044-34.938,94.413-36.664c36.235-1.819,71.303,8.9,102.028,27.729
					C684.365,87.07,686.875,82.744,684.132,81.063z"/>
			</g>
		</g>
		<g>
			<linearGradient id="SVGID_9_" gradientUnits="userSpaceOnUse" x1="270.4219" y1="472.3716" x2="632.999" y2="472.3716">
				<stop  offset="0" style="stop-color:#96D778"/>
				<stop  offset="1" style="stop-color:#55A52B"/>
			</linearGradient>
			<path fill="url(#SVGID_9_)" d="M379.782,394.06c38.605,5.589,52.077,33.752,48.68,52.213
				c-4.563,24.792-24.068,41.331-52.699,41.115c-17.273-0.136-42.188-21.411-39.207-50.029
				c-19.18,19.172-46.629,46.73-66.134,66.235c1.229,0.956,6.496,5.269,7.396,6.044c52.066,44.661,109.969,80.423,170.697,111.88
				c2.461,1.277,4.298,0.75,6.476-0.373c52.817-27.229,103.509-57.796,149.92-95.104c7.987-6.413,15.751-13.109,24.813-20.682
				c-1.912-1.217,4.207-1.357,3.152-2.406l-62.029-60.689c18.445-0.461,34.611-18.294,35.618-34.031
				c1.204-18.887-19.153-43.674-39.015-48.911c-10.654-2.812-22.455-0.526-31.379,6.146c-7.465,5.572-13.163,16.677-16.906,25.026
				l-67.907-68.011C429.958,343.777,400.688,373.154,379.782,394.06"/>
			<g>
				<linearGradient id="SVGID_10_" gradientUnits="userSpaceOnUse" x1="269.6675" y1="472.21" x2="633.499" y2="472.21">
					<stop  offset="0" style="stop-color:#96D778"/>
					<stop  offset="1" style="stop-color:#55A52B"/>
				</linearGradient>
				<path fill="url(#SVGID_10_)" d="M379.118,396.47c17.917,2.764,34.993,11.159,43.455,27.904
					c7.119,14.087,3.479,30.681-5.949,42.812c-10.563,13.592-32.114,21.658-48.81,16.2c-18.862-6.166-30.431-26.927-28.758-46.027
					c0.197-2.247-2.825-3.21-4.268-1.768c-22.065,22.058-44.073,44.173-66.134,66.235c-0.879,0.878-1.072,2.689,0,3.535
					c20.567,16.239,40.369,33.144,61.802,48.3c24.378,17.239,49.776,33.006,75.723,47.766c13.014,7.403,26.196,14.508,39.477,21.421
					c5.482,2.854,8.628,1.479,13.861-1.233c7.063-3.659,14.086-7.399,21.078-11.195c26.827-14.563,53.039-30.27,78.325-47.375
					c25.391-17.177,49.087-36.266,72.572-55.918c1.032-0.863,0.918-2.652,0-3.535c-0.116-0.112-0.231-0.223-0.348-0.335
					c0.214,0.811,0.429,1.622,0.643,2.433c-1.1,0.976-1.147,1.247-0.144,0.814c0.445-0.113,0.886-0.243,1.32-0.388
					c0.694-0.218,1.311-0.567,1.797-1.106c0.553-0.612,0.978-1.601,0.644-2.432c-1.466-3.643-6.319-6.833-9.029-9.483
					c-7.227-7.071-14.453-14.141-21.68-21.212c-10.693-10.462-21.387-20.925-32.08-31.387c-0.589,1.422-1.179,2.845-1.768,4.268
					c15.546-0.763,29.831-11.718,35.606-26.085c6.11-15.2-0.596-30.322-10.286-42.35c-10.348-12.845-25.834-22.223-42.73-20.37
					c-19.054,2.09-29.153,17.196-36.43,33.272c1.309-0.169,2.618-0.337,3.926-0.506c-22.636-22.67-45.271-45.341-67.907-68.011
					c-0.962-0.964-2.573-0.963-3.535,0c-23.844,23.841-47.634,47.735-71.476,71.578c-2.282,2.282,1.253,5.817,3.535,3.535
					c23.842-23.843,47.632-47.737,71.476-71.578c-1.178,0-2.357,0-3.535,0c22.636,22.67,45.271,45.341,67.907,68.011
					c1.049,1.051,3.25,0.987,3.926-0.506c6.3-13.917,13.843-26.563,29.683-30.348c15.444-3.69,29.715,5.338,39.731,16.255
					c8.691,9.474,15.754,22.961,12.208,36.021c-3.781,13.931-17.736,25.376-32.1,26.081c-2.115,0.104-3.392,2.679-1.768,4.268
					c10.22,9.999,20.439,19.999,30.659,29.998c7.182,7.026,14.363,14.052,21.544,21.079c2.321,2.271,4.643,4.542,6.963,6.813
					c0.675,0.66,1.351,1.321,2.025,1.981c0.688,0.673,0.857,1.364,0.312,0.006c0.214-0.811,0.429-1.622,0.643-2.433
					c-0.663,0.735-2.68,0.606-3.574,1.5c-1.238,1.239-0.84,3.05,0.306,4.152c0-1.178,0-2.357,0-3.535
					c-23.637,19.778-47.526,38.877-73.077,56.162c-25.286,17.105-51.598,32.663-78.42,47.225
					c-6.455,3.504-12.95,6.932-19.466,10.319c-1.803,0.938-4.266,2.672-6.404,2.369c-1.646-0.232-4.083-2.007-5.601-2.8
					c-3.719-1.942-7.425-3.909-11.125-5.888c-13.189-7.053-26.235-14.372-39.134-21.943c-25.744-15.112-50.78-31.438-74.831-49.125
					c-16.432-12.084-31.72-25.462-47.708-38.084c0,1.178,0,2.357,0,3.535c22.061-22.063,44.069-44.177,66.134-66.235
					c-1.422-0.589-2.845-1.178-4.268-1.768c-1.832,20.914,10.497,41.554,29.847,49.847c17.715,7.592,41.081-0.416,53.887-13.743
					c11.907-12.391,16.947-31.228,10.905-47.464c-6.917-18.59-24.892-29.561-43.553-33.535c-1.554-0.331-3.125-0.572-4.695-0.814
					C377.294,391.163,375.939,395.98,379.118,396.47L379.118,396.47z"/>
			</g>
		</g>
	</g>
	<path clip-path="url(#SVGID_2_)" fill="none" d="M451.258,623.338c156.646-79.26,316.325-206.374,316.325-381.152
		c0-179.651-215.244-254.56-316.288-119.832h-0.08C350.171-12.375,134.921,62.535,134.921,242.186
		C134.921,416.964,294.607,544.078,451.258,623.338"/>
</g>
<g>
	<g>
		<path fill="#FFEAAA" d="M678.537,135.431c23.93-1.374,41.225,29.58,49.047,52.266c4.382,12.516,11.911,49.601-5.511,55.298
			c-20.347,6.869-26.316-21.323-28.131-34.201c-1.209-9.712-5.117-21.052-11.002-28.879c-6.129-8.408-15.873-13.98-18.375-25.224
			C662.771,145.221,668.111,134.888,678.537,135.431"/>
	</g>
	<g>
		<path fill="#FFEAAA" d="M711.455,257.779c21.476-10.876,33.829,20.812,16.613,29.209
			C704.544,298.485,693.638,267.186,711.455,257.779"/>
	</g>
</g>
<path fill="#005C97" d="M774.678,137h-124.57L451.295,623h137.15l27.057-73h193.152l27.053,73h137.148L774.678,137z
	 M712.076,452.416c-70.521-31.929-94.605-87.516-70.17-119.245c23.646-30.693,70.172-12.581,70.172,18.586
	c0-31.167,46.525-49.28,70.166-18.586C806.678,364.9,782.594,420.487,712.076,452.416z"/>
</svg>
