<?xml version="1.0" encoding="utf-8"?>
<!-- Generator: Adobe Illustrator 16.0.0, SVG Export Plug-In . SVG Version: 6.00 Build 0)  -->
<!DOCTYPE svg PUBLIC "-//W3C//DTD SVG 1.1//EN" "http://www.w3.org/Graphics/SVG/1.1/DTD/svg11.dtd">
<svg version="1.1" id="Capa_1" xmlns="http://www.w3.org/2000/svg" xmlns:xlink="http://www.w3.org/1999/xlink" x="0px" y="0px"
	 width="250px" height="250px" viewBox="0 0 250 250" enable-background="new 0 0 250 250" xml:space="preserve">
<path fill="#005C9A" d="M249.693,123.177c0.022-2.167,0.338-4.353-0.399-6.473c-0.001-0.003-0.001-0.008-0.002-0.012
	c-0.018-0.334-0.034-0.668-0.053-1.002c-0.215-8.292-1.797-16.351-4.148-24.279c-0.035-0.284-0.028-0.58-0.11-0.849
	c-12.529-40.375-38.521-68.16-78.036-83.177c-6.444-2.449-13.076-4.458-20.02-5.084c-5.652-1.255-11.379-1.996-17.158-2.12
	c-4.378-0.094-8.785-0.527-13.135,0.413c0,0,0.001,0,0.001,0c0,0-0.001,0-0.003,0c-4.522-0.099-8.958,0.495-13.341,1.522
	c-0.311-0.004-0.636,0.067-0.988,0.232C90.281,4.245,78.937,8.132,68.235,13.913c-2.909,0.76-5.248,2.62-7.743,4.137
	c-9.021,5.48-17.424,11.761-24.581,19.591C27.087,46.238,20,56.104,14.438,67.079C9.877,75.31,6.597,84.038,4.294,93.147
	c-1.085,3.591-1.89,7.243-2.372,10.966c-0.594,2.869-1.044,5.757-1.153,8.689c-0.978,6.975-1.014,13.96-0.161,20.949
	c-0.071,3.477,0.289,6.903,1.15,10.275c0.848,7.792,2.865,15.293,5.636,22.604c0.133,0.56,0.204,1.142,0.409,1.674
	c9.938,25.872,26.339,46.568,49.652,61.644c11.207,7.247,23.251,12.659,36.285,15.737c7.481,2.273,15.118,3.556,22.947,3.624
	c2.543,0.686,5.134,0.457,7.716,0.392c8.179,0.24,16.258-0.595,24.255-2.294c3.355-0.438,6.592-1.38,9.828-2.325
	c3.388-0.82,6.776-1.639,9.825-3.428c6.453-1.667,12.059-5.195,17.918-8.164c7.182-3.67,13.701-8.297,19.674-13.704
	c0.825-0.641,1.7-1.227,2.47-1.929c6.632-6.063,12.73-12.601,17.786-20.062c6.739-8.987,11.993-18.762,15.624-29.399
	c4.426-10.98,6.904-22.387,7.489-34.207C249.992,130.539,249.866,126.86,249.693,123.177z M69.885,124.549
	c0.566-1.854,1.663-3.472,2.144-5.345c0-0.023-0.006-0.042-0.007-0.064c0.747,0.325,1.22-0.34,1.731-0.723
	c6.544-4.892,12.819-4.491,18.625,1.254c4.586,4.539,9.102,9.149,13.708,13.669c2.12,2.08,2.678,2.081,4.768,0.033
	c3.92-3.842,7.788-7.74,11.649-11.644c0.661-0.669,1.47-1.297,1.36-2.418c-0.001-0.014-0.006-0.024-0.007-0.037
	c1.301,0.126,1.965-0.901,2.723-1.656c7.839-7.798,15.654-15.617,23.456-23.451c0.724-0.727,1.674-1.365,1.573-2.608
	c0.004-0.042-0.001-0.077,0.001-0.116c0.038,0.046,0.08,0.09,0.117,0.136c0.619,0.021,1.11-0.28,1.548-0.659
	c1.879-1.639,3.469-3.583,5.385-5.178c5.629-4.679,13.264-4.415,18.245,0.599c4.8,4.829,4.804,12.802,0.019,18.246
	c-0.748,0.852-1.737,1.546-1.889,2.802c0.014,0.065,0.037,0.124,0.056,0.186c-1.192-0.213-1.792,0.753-2.471,1.427
	c-6.416,6.365-12.806,12.756-19.173,19.167c-0.695,0.701-1.594,1.348-1.434,2.533c-1.221-0.239-1.826,0.739-2.515,1.421
	c-5.443,5.391-10.856,10.813-16.258,16.246c-0.713,0.719-1.572,1.389-1.536,2.562c-1.295-0.169-1.911,0.911-2.652,1.641
	c-3.707,3.636-7.425,7.264-10.99,11.033c-1.084,1.146-2.879,1.563-3.463,3.194c-0.059-0.033-0.116-0.074-0.177-0.106
	c-0.585-0.079-1.163,0.013-1.708,0.192c-5.496,1.811-10.16-0.026-14.027-3.748c-8.594-8.27-17.043-16.695-25.292-25.308
	C69.901,134.182,68.303,129.729,69.885,124.549z"/>
</svg>
