<?xml version="1.0" encoding="utf-8"?>
<!-- Generator: Adobe Illustrator 16.0.0, SVG Export Plug-In . SVG Version: 6.00 Build 0)  -->
<!DOCTYPE svg PUBLIC "-//W3C//DTD SVG 1.1//EN" "http://www.w3.org/Graphics/SVG/1.1/DTD/svg11.dtd">
<svg version="1.1" id="Capa_1" xmlns="http://www.w3.org/2000/svg" xmlns:xlink="http://www.w3.org/1999/xlink" x="0px" y="0px"
	 width="720px" height="1600px" viewBox="0 0 720 1600" enable-background="new 0 0 720 1600" xml:space="preserve">
<g>
	<path fill="#FFFFFF" d="M-298.433,781.67c2.25,0,3.389,0.652,4.515,2.694c7.606,13.786,19.392,23.281,32.732,31.04
		c4.298,2.5,8.734,4.839,13.313,6.762c16.854,7.078,25.791,20.411,29.255,37.623c5.44,27.051-3.074,50.835-17.71,73.239
		c-4.414,6.759-9.491,9.644-17.7,10.284c-4.32,0.338-8.635,0.505-12.925,0.505c-66.637,0-128.635-40.144-154.788-102.02
		c-7.752-18.34-12.06-37.432-13.379-57.271c-0.178-2.678,0.887-2.826,2.576-2.827c0.194,0,0.396,0.002,0.604,0.002
		c12.818,0.021,25.639,0.026,38.457,0.026c9.426,0,18.849-0.002,28.275-0.002c9.795,0,19.591,0.007,29.386,0.007
		c12.448,0,24.895-0.011,37.343-0.063C-298.463,781.67-298.448,781.67-298.433,781.67 M-298.433,767.67h-0.029h-0.074
		c-13.359,0.055-26.344,0.063-37.285,0.063c-4.896,0-9.792-0.001-14.688-0.003c-4.899-0.001-9.799-0.003-14.698-0.003l-14.14,0.001
		l-14.135,0.001c-12.81,0-25.623-0.004-38.433-0.026l-0.239-0.001l-0.389-0.001c-5.105,0-9.255,1.668-12.334,4.958
		c-2.156,2.304-4.637,6.394-4.211,12.796c1.445,21.734,6.308,42.525,14.453,61.794c13.867,32.81,37.184,60.636,67.43,80.47
		c30.027,19.691,64.694,30.1,100.253,30.1c4.659,0,9.375-0.185,14.017-0.548c12.578-0.981,21.581-6.252,28.33-16.586
		c8.801-13.473,14.748-26.191,18.177-38.88c4.011-14.838,4.528-29.902,1.537-44.775c-2.203-10.945-6.283-20.448-12.128-28.247
		c-6.418-8.563-14.974-15.132-25.431-19.523c-3.525-1.48-7.351-3.428-11.695-5.955c-13.395-7.79-22.137-15.957-27.514-25.702
		C-285.243,771.104-291.043,767.67-298.433,767.67L-298.433,767.67z"/>
</g>
<g>
	<path fill="#FFFFFF" d="M-279.823,781.617c0.46,0,0.938,0.139,1.354,0.139c0.001,0,0.003,0,0.004,0
		c32.608-0.036,65.217-0.019,97.824-0.06c0.004,0,0.008,0,0.012,0c1.934,0,3.645,0.461,5.364,1.262
		c16.383,7.622,23.401,22.281,19.331,40.489c-2.23,9.981-6.591,19.31-8.796,29.33c-3.676,16.698-2.424,32.72,5.437,48.029
		c0.953,1.856,0.905,2.928-0.832,4.36c-19.048,15.712-40.499,26.697-64.332,33.074c-0.033,0.009-0.068,0.013-0.104,0.013
		c-0.191,0-0.433-0.111-0.797-0.188c7.076-10.716,12.756-22.04,16.224-34.356c6.146-21.827,6.313-43.372-3.861-64.204
		c-6.192-12.677-15.698-22.018-28.732-27.71c-13.849-6.049-26.596-13.726-36.431-25.525c-1.037-1.243-1.992-2.557-2.986-3.839
		C-280.788,781.775-280.316,781.617-279.823,781.617 M-279.823,767.617c-5.76,0-10.852,3.037-13.619,8.124l-4.374,8.038l5.607,7.231
		c0.287,0.37,0.57,0.743,0.853,1.116c0.719,0.947,1.534,2.019,2.447,3.113c10.037,12.042,23.25,21.381,41.578,29.386
		c9.825,4.291,16.941,11.169,21.756,21.025c7.788,15.944,8.757,33.694,2.965,54.265c-2.835,10.069-7.555,20.025-14.43,30.437
		l-11.354,17.194l19.822,4.151c0.963,0.264,2.323,0.557,4.012,0.557c1.275,0,2.543-0.168,3.771-0.501
		c25.707-6.879,49.13-18.923,69.574-35.786c6.692-5.519,8.37-13.778,4.378-21.555c-5.991-11.669-7.371-24.303-4.218-38.625
		c0.944-4.289,2.433-8.665,4.009-13.297c1.723-5.063,3.505-10.3,4.777-15.99c2.687-12.019,1.64-23.535-3.026-33.303
		c-4.718-9.874-13.039-17.804-24.062-22.933c-3.712-1.728-7.399-2.568-11.27-2.568c-17.04,0.021-34.049,0.027-51.06,0.032
		c-15.327,0.005-30.653,0.01-45.98,0.026C-278.215,767.687-278.96,767.617-279.823,767.617L-279.823,767.617z"/>
</g>
<g>
	<path fill="#FFFFFF" d="M-147.761,637.808c0.684,0,1.375,0.018,2.071,0.054c10.106,0.521,18.384,4.757,22.629,14.526
		c1.423,3.275,3.364,5.166,6.716,6.315c10.194,3.495,15.499,12.165,13.34,21.247c-0.618,2.605-1.909,4.838-3.548,6.928
		c-2.255,2.876-2.301,5.894,0.369,8.41c12.919,12.179,7.258,32.433-12.998,37.556c-2.493,0.631-4.975,0.935-7.438,0.935
		c-4.063,0-8.079-0.826-12.034-2.377c-1.804-0.707-2.499-1.654-2.75-3.771c-0.733-6.208,0.849-10.707,6.986-13.362
		c2.927-1.268,5.481-3.443,8.107-5.343c3.164-2.285,3.862-5.585,1.963-8.464c-1.152-1.748-2.844-2.671-4.735-2.671
		c-1.22,0-2.522,0.384-3.818,1.178c-2.643,1.62-5.182,3.408-8.391,5.534c0-4.509,0.064-8.363-0.019-12.213
		c-0.085-3.951-2.519-6.535-5.948-6.535c-0.068,0-0.135,0.001-0.204,0.003c-3.396,0.102-5.722,2.624-5.804,6.497
		c-0.082,3.857-0.019,7.718-0.019,12.158c-2.716-1.771-5.06-3.306-7.409-4.832c-1.845-1.198-3.544-1.795-5.05-1.795
		c-1.802,0-3.326,0.855-4.49,2.558c-2.148,3.141-1.166,6.476,2.756,9.133c3.821,2.589,7.594,5.266,11.552,7.629
		c2.107,1.257,2.732,2.714,2.699,5.105c-0.125,9.261-0.021,9.34-9.386,11.005c-1.994,0.355-3.952,0.533-5.87,0.533
		c-6.549,0-12.635-2.08-18.125-6.319c-10.489-8.1-11.569-21.427-2.651-31.181c3.444-3.768,3.69-5.877,1.108-9.55
		c-7.188-10.224-4.044-22.104,7.712-27.048c4.664-1.962,7.526-4.516,9.909-9.079C-165.77,641.456-157.429,637.808-147.761,637.808
		 M-147.761,623.808c-15.856,0-28.349,7.204-35.179,20.285c-0.836,1.602-1.192,1.924-2.927,2.654
		c-9.586,4.031-16.318,11.297-18.952,20.459c-2.151,7.482-1.238,15.618,2.467,22.966c-5.123,7.006-7.522,15.226-6.802,23.546
		c0.836,9.667,5.805,18.473,13.99,24.793c7.938,6.13,16.915,9.238,26.681,9.238c2.726,0,5.526-0.252,8.322-0.75
		c4.672-0.831,9.146-1.626,12.985-4.287c1.048,0.667,2.188,1.244,3.412,1.724c5.655,2.218,11.424,3.343,17.144,3.343
		c3.641,0,7.299-0.458,10.873-1.363c14.939-3.778,25.925-13.992,29.387-27.322c2.621-10.089,0.493-20.486-5.689-28.886
		c1.21-2.276,2.092-4.604,2.667-7.025c1.918-8.07,0.577-16.367-3.778-23.355c-3.934-6.312-9.958-11.115-17.477-13.948
		c-6.198-13.376-18.35-21.176-34.332-22C-145.906,623.833-146.845,623.808-147.761,623.808L-147.761,623.808z"/>
</g>
<g>
	<path fill="#FFFFFF" d="M-102.348,781.69c2.075,0,3.086,0.208,2.909,2.928c-2.714,41.567-18.177,77.523-46.938,107.744
		c-0.99,1.039-1.658,1.613-2.222,1.613c-0.63,0-1.13-0.716-1.803-2.298c-6.779-15.93-5.024-31.707,0.496-47.442
		c3.387-9.654,6.947-19.241,7.105-29.666c0.182-11.871-3.492-22.295-11.525-31.115c-0.372-0.41-0.746-0.82-1.573-1.729
		c1.519,0,2.344,0,3.17,0c7.97,0,15.942,0.007,23.913,0.007c8.767,0,17.533-0.008,26.3-0.042
		C-102.46,781.69-102.403,781.69-102.348,781.69 M-102.348,767.69l-0.23,0c-9.592,0.037-19.062,0.042-26.238,0.042l-11.951-0.003
		l-11.962-0.003h-3.17h-31.686l21.334,23.427l0.506,0.556l1.048,1.152c5.525,6.066,8.028,12.89,7.896,21.495
		c-0.115,7.616-2.875,15.46-5.797,23.765l-0.521,1.481c-7.499,21.374-7.554,40.202-0.167,57.559
		c4.002,9.41,10.918,10.815,14.685,10.815c6.688,0,10.81-4.33,12.362-5.96c30.751-32.312,47.831-71.503,50.768-116.485
		c0.421-6.435-2.064-10.534-4.224-12.839C-94.378,767.69-100.377,767.69-102.348,767.69L-102.348,767.69z"/>
</g>
<g>
	<path fill="#FFFFFF" d="M-363.267,697.65c3.422,0,6.848,1.99,9.872,5.968c5.363,7.053,10.647,14.167,16.083,21.164
		c1.319,1.696,1.563,2.854,0.181,4.736c-9.312,12.666-18.491,25.43-27.684,38.182c-0.913,1.266-1.786,2.078-3.565,2.078
		c-0.008,0-0.017,0-0.025,0c-10.175-0.047-20.352-0.058-30.674-0.058c-7.922,0-15.929,0.006-24.092,0.006
		c7.115-9.394,13.801-18.215,20.481-27.039c9.868-13.035,19.72-26.082,29.604-39.104
		C-370.084,699.627-366.677,697.65-363.267,697.65 M-363.267,683.65c-7.911,0-15.358,4.074-20.972,11.47
		c-6.631,8.736-13.249,17.485-19.866,26.234c-3.249,4.295-6.498,8.59-9.748,12.884c-4.321,5.708-8.645,11.415-13.085,17.276
		l-7.394,9.76l-17.007,22.453h28.167l12.232-0.003l11.86-0.003c9.029,0,19.726,0.007,30.609,0.058h0.033h0.058
		c4.211,0,10.218-1.369,14.92-7.889l2.617-3.63c8.162-11.325,16.602-23.036,24.992-34.448c4.992-6.796,4.837-14.878-0.41-21.624
		c-3.501-4.508-7.033-9.188-10.447-13.715c-1.844-2.445-3.689-4.89-5.543-7.328C-347.886,687.732-355.35,683.65-363.267,683.65
		L-363.267,683.65z"/>
</g>
<g>
	<path fill="#FFFFFF" d="M-225.389,661.816c0.1,0,0.199,0,0.299,0.001c7.296,0.072,12.997,3.074,17.175,9.464
		c3.674,5.615,4.164,12.312,7.228,18.054c0.678,1.272-0.192,2.077-0.802,3.014c-7.896,12.15-7.83,25.236,0.392,37.098
		c1.36,1.961,1.221,2.618-0.995,3.167c-2.306,0.57-4.595,1.119-6.995,1.124c-0.063,0-0.127,0-0.189,0c-8.653,0-10-1.358-10-9.932
		c0-6.37,0.038-12.741-0.015-19.109c-0.033-4.275-2.386-6.94-5.951-6.94c-0.057,0-0.114,0-0.172,0.002
		c-3.522,0.083-5.77,2.678-5.854,6.832c-0.046,2.243-0.009,4.49-0.009,7.288c-1.512-0.661-2.611-1.209-3.757-1.63
		c-0.81-0.297-1.61-0.442-2.375-0.442c-2.209,0-4.128,1.201-5.164,3.378c-1.469,3.089-0.579,5.728,2.102,7.519
		c2.263,1.512,4.766,2.749,7.304,3.744c2.947,1.154,1.577,3.515,1.882,5.412c0.313,1.958-1.263,2.162-2.534,2.564
		c-2.776,0.879-5.478,1.338-8.087,1.338c-5.275,0-10.171-1.876-14.535-5.941c-6.164-5.74-6.44-14.089-1.006-20.487
		c3.966-4.67,4.021-5.537,0.669-10.752c-4.224-6.571-1.439-14.963,6.487-18.005c3.934-1.51,6.153-3.771,8.049-7.503
		C-238.858,664.4-232.567,661.816-225.389,661.816 M-225.389,647.816c-13.189,0-23.884,6.169-29.34,16.925
		c-0.171,0.337-0.3,0.555-0.384,0.687c-0.052,0.023-0.117,0.049-0.196,0.08c-7.793,2.991-13.686,9.05-16.167,16.624
		c-2.049,6.256-1.587,12.994,1.218,18.951c-8.057,11.887-6.485,26.966,4.274,36.985c6.81,6.342,15.135,9.695,24.076,9.695
		c4,0,8.143-0.67,12.315-1.992l0.12-0.035c1.65-0.48,3.115-1.114,4.406-1.868c5.499,3.87,12.049,3.87,15.789,3.87h0.22
		c4.16-0.008,7.724-0.89,10.326-1.534c7.22-1.788,10.27-6.234,11.559-9.65c1.292-3.427,1.922-8.826-2.422-15.087
		c-4.95-7.141-5.021-13.943-0.218-21.393l0.037-0.052c5.49-7.725,2.839-14.649,1.444-17.267c-0.751-1.409-1.364-3.39-2.073-5.684
		c-1.2-3.881-2.693-8.712-5.795-13.454c-6.678-10.214-16.621-15.678-28.751-15.798L-225.389,647.816L-225.389,647.816z"/>
</g>
<g>
	<path fill="#FFFFFF" d="M-393.244,607.818c9.769,0,17.051,4.703,21.496,13.411c1.613,3.16,3.664,4.619,7.059,4.619
		c0.196,0,0.397-0.005,0.603-0.015c0.235-0.011,0.469-0.017,0.7-0.017c5.225,0,9.313,2.829,11.225,7.367
		c1.87,4.438,0.771,9.688-2.742,13.113c-2.318,2.258-5.021,3.433-7.985,3.433c-1.851,0-3.803-0.458-5.828-1.396
		c-1.272-0.59-2.444-0.886-3.565-0.886c-1.721,0-3.322,0.698-4.986,2.102c-4.942,4.174-10.415,6.261-15.912,6.261
		c-5.518,0-11.061-2.103-16.119-6.308c-1.656-1.377-3.246-2.048-4.941-2.049c-1.143,0-2.333,0.305-3.625,0.905
		c-1.991,0.924-3.921,1.375-5.755,1.375c-2.986,0-5.718-1.195-8.045-3.488c-3.502-3.452-4.556-8.617-2.675-13.128
		c1.938-4.654,6.271-7.34,12.072-7.34c0.047,0,0.094,0,0.141,0c0.406,0.061,0.794,0.09,1.165,0.09c2.858,0,4.703-1.755,6.208-4.689
		c4.416-8.602,11.637-13.306,21.334-13.36C-393.361,607.818-393.302,607.818-393.244,607.818 M-393.244,593.818l-0.252,0
		c-13.765,0.078-25.06,6.487-32.13,18.134c-9.938,1.051-17.89,6.784-21.638,15.783c-4.09,9.81-1.826,20.992,5.771,28.48
		c4.992,4.919,11.171,7.518,17.873,7.518c2.729,0,5.465-0.439,8.172-1.311c6.828,4.844,14.461,7.387,22.268,7.387
		c7.808,0,15.399-2.541,22.143-7.38c2.705,0.864,5.433,1.299,8.148,1.299c6.642,0,12.781-2.56,17.753-7.404
		c7.598-7.406,9.958-18.889,5.875-28.578c-3.818-9.065-11.982-14.962-21.658-15.822
		C-368.043,600.207-379.399,593.818-393.244,593.818L-393.244,593.818z"/>
</g>
<g>
	<path fill="#FFFFFF" d="M-312.25,721.646c2.845,0,5.685,1.715,8.174,5.147c10.229,14.105,20.423,28.237,30.999,42.867
		c-26.341,0-52.026,0-77.747,0c-0.302-1.197,0.681-1.799,1.207-2.527c9.688-13.451,19.401-26.886,29.143-40.301
		C-317.965,723.375-315.105,721.646-312.25,721.646 M-312.249,707.646L-312.249,707.646h-0.002
		c-7.478,0.001-14.422,3.894-19.553,10.961c-9.349,12.875-19.053,26.294-28.848,39.891c-5.011,5.711-4.507,11.571-3.748,14.584
		l2.666,10.578h10.909h77.747h27.396l-16.05-22.202l-9.254-12.807c-7.474-10.345-14.533-20.117-21.757-30.078
		C-297.852,711.527-304.78,707.646-312.249,707.646L-312.249,707.646z"/>
</g>
<g>
	<path fill="#FFFFFF" d="M-256.081,607.77c3.948,0,6.617,2.24,6.781,5.704c0.158,3.369-2.17,5.994-6.064,6.211
		c-3.733,0.208-5.275,2.253-5.863,5.578c-0.781,4.42-2.614,6.388-5.919,6.46c-0.06,0.001-0.119,0.002-0.177,0.002
		c-3.274,0-5.172-2.064-6.014-6.577c-0.585-3.135-2.017-5.189-5.584-5.443c-4.197-0.299-6.55-2.85-6.32-6.339
		c0.224-3.432,2.854-5.588,7.096-5.588c0.104,0,0.208,0.001,0.313,0.004c0.025,0,0.05,0,0.075,0c3.681,0,7.112,3.355,10.399,3.355
		c0.099,0,0.197-0.003,0.295-0.009c3.367-0.212,6.78-3.282,10.787-3.355C-256.212,607.771-256.146,607.77-256.081,607.77
		 M-256.081,593.77c-0.152,0-0.305,0.001-0.458,0.004c-4.5,0.083-8.104,1.511-10.667,2.654c-2.468-1.16-6.099-2.639-10.511-2.647
		c-0.144-0.002-0.287-0.003-0.429-0.003c-11.5,0-20.359,7.854-21.066,18.676c-0.609,9.262,4.901,17.081,13.414,20.026
		c3.594,9.668,11.574,13.246,18.475,13.246c0.16,0,0.322-0.002,0.485-0.005c6.801-0.149,14.62-3.774,18.101-13.168
		c8.353-2.815,13.856-10.506,13.423-19.734C-235.836,601.779-244.57,593.77-256.081,593.77L-256.081,593.77z"/>
</g>
<g>
	<path fill="#FFFFFF" d="M-298.053,655.763c3.945,0,6.613,2.263,6.757,5.736c0.142,3.371-2.18,5.958-6.097,6.182
		c-3.741,0.214-5.254,2.29-5.835,5.607c-0.766,4.375-2.646,6.373-5.948,6.429c-0.043,0.001-0.087,0.001-0.131,0.001
		c-3.25,0-5.31-2.092-5.977-6.237c-0.563-3.497-2.118-5.623-6.042-5.814c-3.836-0.188-6.154-2.949-5.911-6.339
		c0.246-3.421,2.865-5.555,7.093-5.555c0.112,0,0.226,0.001,0.341,0.004c0.022,0,0.045,0,0.067,0c3.673,0,7.104,3.355,10.366,3.355
		c0.113,0,0.226-0.004,0.338-0.012c3.376-0.25,6.787-3.281,10.792-3.354C-298.177,655.764-298.115,655.763-298.053,655.763
		 M-298.053,641.763c-0.145,0-0.292,0.001-0.438,0.004c-4.521,0.083-8.138,1.514-10.707,2.654c-2.463-1.16-6.078-2.63-10.469-2.645
		c-0.161-0.003-0.32-0.004-0.478-0.004c-11.615,0-20.273,7.629-21.057,18.554c-0.39,5.438,1.341,10.628,4.876,14.617
		c2.295,2.59,5.204,4.499,8.478,5.609c3.004,8.142,9.886,13.166,18.54,13.166c0.121,0,0.243-0.001,0.365-0.003
		c6.866-0.116,14.749-3.731,18.226-13.188c8.3-2.824,13.792-10.463,13.408-19.615C-277.762,649.998-286.68,641.763-298.053,641.763
		L-298.053,641.763z"/>
</g>
<g>
	<path fill="#FFFFFF" d="M-147.47,740.845c0.325,0,0.641,0.044,0.938,0.139c3.239,1.026,6.249,2.153,5.342,6.809
		c-0.539,2.759-0.101,5.711-0.101,8.576c0,3.487-0.12,6.98,0.046,10.46c0.104,2.152-0.298,2.974-2.766,2.974
		c-0.281,0-0.555,0-0.82,0c-8.458,0-8.458-0.165-8.458-9.118c0-4.857-0.012-9.716,0.004-14.573
		C-153.276,743.637-150.056,740.845-147.47,740.845 M-147.47,726.845L-147.47,726.845c-10.338,0-19.782,9.162-19.814,19.222
		c-0.011,3.417-0.008,6.835-0.006,10.253l0.002,4.364c0,6.265,0,12.179,4.709,17.347c5.259,5.771,12.184,5.771,17.748,5.771h0.535
		h0.289c6.36,0,10.264-2.694,12.418-4.954c3.119-3.272,4.575-7.543,4.328-12.692c-0.097-2.041-0.075-4.231-0.051-6.551
		c0.011-1.079,0.021-2.158,0.021-3.237c0-1.216-0.053-2.342-0.1-3.335c-0.042-0.911-0.101-2.152-0.05-2.608
		c1.302-6.764-0.6-13.155-5.223-17.547c-3.451-3.279-7.478-4.555-9.64-5.241C-143.957,727.112-145.698,726.845-147.47,726.845
		L-147.47,726.845z"/>
</g>
<g>
	<path fill="#FFFFFF" d="M-225.344,742.227c0.453,0,0.904,0.056,1.344,0.175c3.598,0.969,5.472,2.688,4.794,6.75
		c-0.405,2.432-0.074,4.985-0.074,7.484c0,3.624-0.103,7.252,0.042,10.87c0.074,1.86-0.593,2.208-2.329,2.271
		c-1.594,0.057-2.927,0.105-4.041,0.105c-5.672,0-5.67-1.266-5.67-9.198c0-4.374-0.005-8.748,0.001-13.12
		C-231.272,744.608-228.293,742.227-225.344,742.227 M-225.344,728.227L-225.344,728.227h-0.001
		c-10.786,0.001-19.914,8.845-19.932,19.313c-0.004,3.021-0.003,6.039-0.002,9.056l0.001,4.088c0,5.49,0,9.82,2.402,14.25
		c3.22,5.938,9.03,8.949,17.268,8.949c1.326,0,2.742-0.05,4.381-0.109l0.158-0.005c4.84-0.174,8.774-1.863,11.7-5.02
		c2.008-2.166,4.353-5.972,4.12-11.8c-0.088-2.22-0.069-4.545-0.049-7.006c0.009-1.102,0.018-2.204,0.018-3.306
		c0-1.061-0.04-2.042-0.075-2.907c-0.034-0.817-0.079-1.937-0.034-2.322c1.791-10.732-4.082-19.592-14.97-22.524
		C-221.974,728.448-223.652,728.227-225.344,728.227L-225.344,728.227z"/>
</g>
</svg>
