<?xml version="1.0" encoding="utf-8"?>
<!-- Generator: Adobe Illustrator 16.0.0, SVG Export Plug-In . SVG Version: 6.00 Build 0)  -->
<!DOCTYPE svg PUBLIC "-//W3C//DTD SVG 1.1//EN" "http://www.w3.org/Graphics/SVG/1.1/DTD/svg11.dtd">
<svg version="1.1" id="Capa_1" xmlns="http://www.w3.org/2000/svg" xmlns:xlink="http://www.w3.org/1999/xlink" x="0px" y="0px"
	 width="720px" height="1600px" viewBox="0 0 720 1600" enable-background="new 0 0 720 1600" xml:space="preserve">
<g>
	<path fill="#FFFFFF" d="M-210.719,628.891c13.48,0,26.756,6.749,34.381,19.365c1.197,1.979,1.447,3.705,0.781,5.931
		c-4.699,15.692-15.458,23.958-31.227,23.958c-1.212,0-2.454-0.049-3.725-0.147c-0.398-0.031-0.783-0.046-1.154-0.046
		c-4.103,0-6.488,1.871-6.751,5.341c-0.306,3.999,2.251,6.275,7.22,6.677c1.73,0.14,3.426,0.21,5.082,0.21
		c17.037,0,30.06-7.453,38.28-23.634c0.647-1.273,1.313-1.647,2.062-1.647c0.536,0,1.115,0.191,1.759,0.383
		c15.529,4.608,28.062,20.3,27.966,36.512c-0.052,8.69,2.598,15.425,8.093,22.061c11.75,14.187,11.64,35.287-0.208,49.45
		c-5.463,6.529-7.934,13.227-7.871,21.764c0.112,16.026-11.911,31.363-27.185,36.333c-0.631,0.205-1.166,0.313-1.635,0.313
		c-1.151,0-1.913-0.644-2.759-2.06c-7.284-12.199-21.725-18.398-35.637-18.398c-3.283-0.001-6.534,0.345-9.657,1.037
		c-3.42,0.759-5.288,3.779-4.659,7.036c0.564,2.92,2.974,4.764,6.125,4.764c0.522,0,1.064-0.051,1.622-0.155
		c2.275-0.427,4.519-0.64,6.728-0.64c5.586,0,10.959,1.363,16.116,4.1c1.642,0.87,3.261,1.889,4.648,3.112
		c9.474,8.358,9.834,15.005,1.423,24.276c-7.97,8.786-18.842,13.27-29.782,13.27c-9.134,0-18.314-3.123-25.901-9.475
		c-1.955-1.637-2.854-3.333-2.839-6.001c0.119-21.99,0.105-43.981,0.02-65.974c-0.009-2.248,0.126-3.433,2.061-3.433
		c0.404,0,0.888,0.052,1.464,0.156c1.799,0.326,3.606,0.454,5.417,0.454c3.525,0,7.067-0.483,10.607-0.928
		c2.06-0.259,4.089-0.411,6.07-0.411c7.716,0,14.711,2.293,20.022,9.416c1.223,1.64,2.947,2.458,4.703,2.458
		c1.124,0,2.259-0.335,3.286-1.003c2.754-1.792,3.598-5.252,1.748-8.229c-3.332-5.358-7.963-9.335-13.934-11.383
		c-2.943-1.01-2.699-1.848-0.968-3.888c2.098-2.47,3.549-5.396,4.659-8.476c1.529-4.241,0.532-7.491-2.808-8.877
		c-0.815-0.338-1.63-0.505-2.42-0.505c-2.47,0-4.683,1.631-5.816,4.743c-4.277,11.738-14.535,15.045-24.114,15.045
		c-3.054,0-6.038-0.336-8.738-0.842c-2.151-0.401-1.143-2.24-1.146-3.377c-0.065-20.615-0.046-41.232-0.046-61.849
		c0-20.492,0.049-40.983-0.063-61.475c-0.014-2.518,0.814-4.124,2.661-5.697C-229.124,632.004-219.875,628.891-210.719,628.891
		 M-210.719,614.891c-12.834,0-25.306,4.602-35.117,12.958c-5.068,4.318-7.619,9.846-7.583,16.432
		c0.086,15.685,0.077,31.653,0.069,47.096c-0.002,4.768-0.005,9.535-0.005,14.303l-0.001,11.562
		c-0.003,16.187-0.006,32.913,0.044,49.396c-0.612,4.225,0.204,7.843,1.91,10.721c-2.023,3.797-2.008,7.611-2.001,9.304
		c0.095,24.344,0.089,45.881-0.02,65.842c-0.037,6.763,2.605,12.419,7.852,16.812c9.813,8.216,22.203,12.74,34.888,12.74
		c15.218,0,29.853-6.511,40.151-17.863c2.245-2.475,8.559-9.434,9.52-18.899c0.697-0.15,1.403-0.343,2.124-0.577
		c21.512-6.999,37.011-27.92,36.857-49.746c-0.038-5.185,1.211-8.621,4.609-12.682c7.822-9.351,12.16-21.296,12.216-33.637
		c0.056-12.368-4.193-24.346-11.963-33.727c-3.584-4.329-4.906-7.865-4.875-13.047c0.13-22.05-16.199-43.552-37.982-50.017
		l-0.152-0.045c-0.278-0.083-0.618-0.186-1.014-0.291c-0.07-3.629-1.127-7.147-3.166-10.516
		C-174.242,624.657-191.574,614.891-210.719,614.891L-210.719,614.891z"/>
</g>
<g>
	<path fill="#FFFFFF" d="M-279.788,628.926c9.5,0,19.034,3.271,26.513,10.151c1.387,1.275,1.975,2.571,1.97,4.505
		c-0.069,26.617-0.085,53.236,0.017,79.854c0.01,2.5-0.836,3.166-3.128,3.366c-2.49,0.218-4.96,0.443-7.441,0.443
		c-1.617,0-3.237-0.096-4.873-0.351c-8.856-1.382-15.262-5.759-18.499-14.318c-0.132-0.35-0.319-0.676-0.481-1.013
		c-1.243-2.585-3.32-4.014-5.619-4.014c-0.762,0-1.547,0.157-2.335,0.48c-2.938,1.208-4.357,4.442-3.187,7.846
		c1.508,4.394,3.769,8.403,7.247,12.183c-6.893,2.188-12.232,5.689-16.142,11.174c-2.71,3.803-2.465,7.37,0.633,9.523
		c1.102,0.767,2.197,1.143,3.28,1.143c1.929,0,3.823-1.19,5.662-3.488c5.214-6.513,12.104-8.437,19.455-8.437
		c1.751,0,3.527,0.109,5.314,0.292c3.935,0.4,7.833,0.986,11.747,0.986c1.785,0,3.573-0.122,5.371-0.438
		c0.471-0.083,0.88-0.134,1.232-0.134c1.237,0,1.768,0.622,1.764,2.63c-0.096,37.49-0.078,74.98-0.024,112.471
		c0.002,1.684-0.613,2.764-1.761,3.842c-7.507,7.054-17.105,10.39-26.676,10.39c-14.472,0-28.878-7.627-35.893-21.563
		c-0.876-1.739-0.827-3.195-0.166-4.937c4.239-11.174,15.563-18.333,28.11-18.333c1.914,0,3.854,0.166,5.803,0.51
		c0.614,0.107,1.214,0.317,1.831,0.386c0.27,0.029,0.538,0.044,0.801,0.044c3.083,0,5.618-1.983,6.13-4.893
		c0.575-3.264-1.348-6.076-4.771-6.979c-3.143-0.828-6.407-1.225-9.691-1.226c-13.954,0-28.296,7.156-35.543,18.731
		c-0.876,1.398-1.652,1.956-2.702,1.956c-0.505,0-1.074-0.129-1.749-0.355c-16.155-5.437-27.646-21.207-27.203-38.248
		c0.184-7.057-1.879-12.755-6.447-18.093c-13.663-15.965-13.587-37.318,0.145-53.311c4.489-5.228,6.475-10.86,6.298-17.771
		c-0.439-17.236,11.416-33.324,27.825-38.622c0.635-0.205,1.17-0.31,1.637-0.31c1.242,0,1.993,0.742,2.813,2.316
		c7.903,15.177,21.021,22.907,37.869,22.907c2.184,0,4.428-0.129,6.734-0.39c3.778-0.427,5.945-3.161,5.615-6.652
		c-0.291-3.101-2.522-5.258-5.882-5.258c-0.326,0-0.662,0.021-1.007,0.062c-1.799,0.216-3.574,0.332-5.319,0.332
		c-6.783,0-13.126-1.741-18.798-6.057c-6.625-5.042-10.134-12.157-12.357-20.006c-0.363-1.282,0.313-2.164,0.839-3.125
		C-307.687,636.021-293.776,628.926-279.788,628.926 M-279.788,614.926c-19.953,0-38.09,10.539-47.334,27.505l-0.064,0.11
		c-0.731,1.273-2.602,4.531-2.593,9.019c-0.492,0.122-0.989,0.265-1.493,0.427c-10.78,3.48-20.462,10.561-27.263,19.937
		c-6.903,9.519-10.546,21.013-10.257,32.365c0.089,3.461-0.704,5.709-2.923,8.293c-8.94,10.412-13.686,22.772-13.724,35.745
		c-0.039,13,4.652,25.376,13.564,35.79c2.344,2.739,3.181,5.076,3.089,8.625c-0.6,23.066,14.505,44.401,36.733,51.881
		c0.604,0.203,1.196,0.377,1.781,0.523c0.169,2.583,0.879,5.122,2.127,7.601c4.581,9.1,11.713,16.646,20.626,21.817
		c8.395,4.872,17.997,7.447,27.77,7.447c13.648,0,26.526-5.038,36.263-14.187c5.11-4.803,6.178-10.297,6.174-14.061
		c-0.044-30.672-0.081-71.164,0.024-112.419c0.008-3.398-0.721-6.385-2.171-8.925c1.419-2.565,2.185-5.624,2.171-9.038
		c-0.091-23.839-0.096-49.185-0.017-79.763c0.015-5.875-2.169-10.87-6.493-14.846C-253.503,619.844-266.285,614.926-279.788,614.926
		L-279.788,614.926z"/>
</g>
<path fill="#FFFFFF" d="M-347.907,857.524c-0.181,1.912-0.906,3.59-2.305,4.987c-4.677,4.663-9.289,9.394-14.023,13.997
	c-3.199,3.109-6.983,3.229-9.695,0.525c-2.739-2.729-2.625-6.468,0.501-9.679c4.702-4.828,9.479-9.582,14.297-14.294
	c2.11-2.063,4.659-2.667,7.425-1.366C-349.286,852.835-348.182,854.904-347.907,857.524z"/>
<path fill="#FFFFFF" d="M-251.856,583.521c0-3.237-0.047-6.473,0.012-9.71c0.083-4.455,2.559-7.262,6.366-7.335
	c3.825-0.071,6.54,2.738,6.596,7.103c0.086,6.607,0.085,13.216,0.001,19.823c-0.055,4.374-2.752,7.197-6.566,7.141
	c-3.802-0.055-6.313-2.876-6.397-7.313C-251.906,589.995-251.856,586.758-251.856,583.521z"/>
<path fill="#FFFFFF" d="M-410.685,754.944c-3.237,0-6.477,0.077-9.709-0.019c-4.149-0.123-6.861-2.679-6.932-6.359
	c-0.071-3.686,2.63-6.506,6.689-6.577c6.876-0.119,13.755-0.116,20.63-0.001c4.072,0.068,6.794,2.863,6.744,6.538
	c-0.05,3.664-2.785,6.277-6.905,6.397C-403.67,755.025-407.18,754.944-410.685,754.944z"/>
<path fill="#FFFFFF" d="M-80.427,754.949c-3.234,0-6.473,0.052-9.708-0.013c-4.439-0.086-7.257-2.592-7.318-6.397
	c-0.06-3.818,2.758-6.514,7.128-6.568c6.606-0.081,13.216-0.082,19.822,0.001c4.366,0.054,7.18,2.757,7.113,6.581
	c-0.066,3.802-2.883,6.297-7.328,6.383C-73.951,754.999-77.19,754.949-80.427,754.949z"/>
<path fill="#FFFFFF" d="M-238.858,913.584c0,3.236,0.064,6.476-0.016,9.711c-0.109,4.366-2.77,7.188-6.584,7.124
	c-3.675-0.061-6.307-2.781-6.366-6.917c-0.098-6.742-0.097-13.488-0.001-20.229c0.058-4.137,2.686-6.857,6.362-6.92
	c3.82-0.064,6.484,2.751,6.591,7.115C-238.794,906.839-238.858,910.212-238.858,913.584z"/>
<path fill="#FFFFFF" d="M-348.17,639.042c-0.036,2.661-1.139,4.786-3.545,5.926c-2.348,1.113-4.931,1.116-6.856-0.727
	c-5.371-5.143-10.705-10.342-15.763-15.792c-2.408-2.594-2.087-5.774,0.303-8.454c2.257-2.532,6.142-2.927,8.757-0.479
	c5.331,4.989,10.402,10.257,15.548,15.438C-348.63,636.06-348.298,637.533-348.17,639.042z"/>
<path fill="#FFFFFF" d="M-114.844,624.348c-0.121,2.122-1.016,3.86-2.524,5.354c-4.517,4.476-8.957,9.03-13.51,13.467
	c-3.204,3.122-7.027,3.306-9.741,0.659c-2.72-2.654-2.629-6.566,0.441-9.723c4.622-4.753,9.341-9.411,14.061-14.065
	c2.125-2.096,4.672-2.699,7.446-1.477C-116.209,619.648-115.092,621.736-114.844,624.348z"/>
<path fill="#FFFFFF" d="M-114.828,872.241c-0.194,2.732-1.261,4.869-3.675,6.021c-2.383,1.135-4.932,1.043-6.842-0.79
	c-5.364-5.15-10.702-10.347-15.741-15.812c-2.39-2.591-2.041-5.791,0.361-8.453c2.232-2.476,6.213-2.815,8.78-0.396
	c5.311,5.009,10.383,10.272,15.524,15.462C-115.328,869.38-115.077,870.89-114.828,872.241z"/>
</svg>
