<?xml version="1.0" encoding="utf-8"?>
<!-- Generator: Adobe Illustrator 16.0.0, SVG Export Plug-In . SVG Version: 6.00 Build 0)  -->
<!DOCTYPE svg PUBLIC "-//W3C//DTD SVG 1.1//EN" "http://www.w3.org/Graphics/SVG/1.1/DTD/svg11.dtd">
<svg version="1.1" id="Capa_1" xmlns="http://www.w3.org/2000/svg" xmlns:xlink="http://www.w3.org/1999/xlink" x="0px" y="0px"
	 width="720px" height="1600px" viewBox="0 0 720 1600" enable-background="new 0 0 720 1600" xml:space="preserve">
<g>
	<path fill="#FFFFFF" d="M-401.004,531.349c2.685,0,5.399,0.923,7.833,2.792c16.521,12.692,27.348,29.229,32.827,49.266
		c5.885,21.512,4.433,42.982-0.298,64.504c-11.771,53.562,23.593,105.63,77.708,114.546c4.052,0.668,8.194,0.88,12.307,1.048
		c2.188,0.091,2.717,0.595,2.238,2.872c-1.279,6.104-2.433,12.247-3.219,18.428c-0.287,2.261-0.961,2.828-2.761,2.828
		c-0.219,0-0.454-0.008-0.708-0.023c-16.562-0.969-32.177-5.3-46.944-12.795c-1.113-0.564-2.218-1.144-3.325-1.72
		c-28.171-11.104-46.58-45.997-46.58-45.997c-15.906-28.71-18.789-58.901-11.313-90.631c3.917-16.625,3.819-33.435-1.458-49.953
		c-4.187-13.104-11.637-23.945-22.418-32.477c-2.822-2.233-5.147-4.728-5.717-8.449c-0.802-5.241,1.309-9.919,5.645-12.502
		C-405.25,531.932-403.136,531.349-401.004,531.349 M-401.003,516.349L-401.003,516.349L-401.003,516.349
		c-4.84,0-9.633,1.332-13.859,3.85c-9.625,5.734-14.528,16.331-12.796,27.657c1.576,10.298,8.847,16.052,11.236,17.943
		c8.43,6.671,14.134,14.94,17.438,25.279c4.212,13.185,4.598,27.298,1.146,41.948c-8.574,36.385-4.29,70.445,12.731,101.23
		c1.667,3.113,21.697,39.493,53.486,52.482c0.938,0.488,1.875,0.976,2.818,1.455c16.694,8.473,34.478,13.315,52.851,14.391
		c0.566,0.032,1.082,0.049,1.583,0.049c9.486,0,16.411-6.256,17.642-15.937c0.634-4.989,1.566-10.307,3.02-17.242
		c1.468-6.985-0.791-11.753-2.944-14.522c-2.149-2.762-6.21-6.118-13.353-6.415c-3.694-0.15-7.268-0.33-10.489-0.861
		c-22.101-3.641-41.143-15.786-53.62-34.198c-12.454-18.377-16.672-40.512-11.877-62.328c5.996-27.276,6.032-50.054,0.116-71.682
		c-6.407-23.426-19.245-42.672-38.157-57.202C-389.055,518.388-394.924,516.349-401.003,516.349L-401.003,516.349z"/>
</g>
<g>
	<path fill="#FFFFFF" d="M-210.255,596.194c0.06,2.299-0.952,4.134-2.57,5.615c-7.825,7.168-15.634,14.359-23.557,21.42
		c-3.473,3.096-7.805,2.816-10.696-0.349c-2.854-3.123-2.701-7.517,0.693-10.678c7.77-7.233,15.643-14.354,23.513-21.476
		c2.429-2.197,5.24-2.81,8.304-1.378C-211.684,590.701-210.288,593.032-210.255,596.194z"/>
</g>
<g>
	<path fill="#FFFFFF" d="M-290.564,595.812c0.087,5.34-2.644,8.623-6.688,9.097c-3.706,0.434-7.485-2.226-8.073-6.268
		c-1.581-10.864-3.003-21.754-4.276-32.658c-0.474-4.063,2.42-7.41,6.285-7.997c3.839-0.581,7.64,1.809,8.269,5.856
		C-293.346,574.811-291.944,585.828-290.564,595.812z"/>
</g>
<g>
	<path fill="#FFFFFF" d="M-269.325,615.067c-5.504-0.065-9.174-4.709-7.528-9.592c3.135-9.3,6.574-18.503,10.14-27.647
		c1.559-3.993,5.819-5.513,9.62-3.984c3.546,1.425,5.492,5.354,4.144,9.243c-3.178,9.159-6.508,18.266-9.906,27.345
		C-264.018,613.531-266.513,615.045-269.325,615.067z"/>
</g>
<g>
	<path fill="#FFFFFF" d="M-260.752,670.054c3.574,0,6.744,1.511,9.193,4.702c11.354,14.792,18.762,31.361,22.5,49.648
		c4.045,19.791,1.479,39.158-2.526,58.642c-3.608,17.55-2.723,35.054,4.161,51.875c4.44,10.85,11.434,19.833,20.659,27.094
		c5.099,4.012,6.787,8.912,5.067,14.12c-1.735,5.255-6.322,8.231-11.286,8.231c-2.792,0-5.704-0.941-8.293-2.95
		c-17.229-13.361-28.107-30.829-33.276-51.918c-2.21-9.015-3.235-18.181-3.067-28.254c-0.309-11.677,2.317-23.761,4.585-35.914
		c5.066-27.179-0.544-52.049-16.778-74.45c-2.447-3.377-4.184-6.847-3.236-11.098c1.068-4.797,4.008-8.091,8.771-9.274
		C-263.069,670.207-261.89,670.054-260.752,670.054 M-260.751,655.054L-260.751,655.054c-2.35,0-4.754,0.302-7.149,0.898
		c-10.23,2.542-17.445,10.04-19.791,20.57c-2.6,11.665,3.671,20.317,5.731,23.161c13.864,19.13,18.502,39.705,14.178,62.899
		c-0.257,1.38-0.52,2.761-0.782,4.14c-2.127,11.19-4.326,22.757-4.06,34.588c-0.161,11.104,0.985,21.496,3.501,31.76
		c6.069,24.763,19.074,45.017,38.653,60.2c5.144,3.988,11.19,6.097,17.486,6.097c11.61,0,21.869-7.445,25.529-18.527
		c3.728-11.291-0.023-22.735-10.036-30.612c-7.407-5.83-12.659-12.695-16.052-20.987c-5.4-13.196-6.528-27.722-3.351-43.172
		c4.101-19.948,7.246-41.589,2.53-64.666c-4.219-20.641-12.731-39.407-25.298-55.779
		C-244.889,658.808-252.38,655.054-260.751,655.054L-260.751,655.054z"/>
</g>
<g>
	<path fill="#FFFFFF" d="M-471.573,602.122c3.572,0,6.688,1.581,9.153,4.638c4.89,6.065,10.333,11.484,16.892,15.757
		c12.867,8.382,27.091,11.817,42.177,11.817c0.516,0,1.033-0.004,1.551-0.012c0.093-0.001,0.184-0.002,0.272-0.002
		c3.146,0,3.644,0.925,2.819,3.863c-1.486,5.288-2.46,10.731-2.707,16.195c-0.131,2.913-0.938,4.264-3.176,4.264
		c-0.422,0-0.895-0.048-1.424-0.143c-0.226-0.041-0.456-0.054-0.701-0.054c-0.414,0-0.87,0.037-1.421,0.037
		c-28.207-1.568-52.562-11.707-71.156-33.998c-3.045-3.651-5.632-7.449-4.542-12.502c1.064-4.938,4.111-8.26,9.047-9.458
		C-473.683,602.255-472.609,602.122-471.573,602.122 M-471.573,587.122c-2.225,0-4.497,0.277-6.751,0.824
		c-10.514,2.552-17.866,10.161-20.175,20.875c-2.751,12.755,4.831,21.847,7.685,25.27c20.21,24.228,47.746,37.473,81.843,39.369
		l0.417,0.023h0.417c0.29,0,0.563-0.005,0.825-0.012c0.929,0.116,1.828,0.172,2.721,0.172c8.622,0,17.581-5.747,18.161-18.587
		c0.183-4.047,0.911-8.358,2.163-12.813c1.765-6.283,0.945-11.732-2.438-16.196c-2.325-3.068-6.784-6.726-14.822-6.726
		c-0.165,0-0.334,0.001-0.507,0.004c-0.438,0.007-0.877,0.01-1.316,0.01c-13.177,0-24.295-3.07-33.99-9.385
		c-4.657-3.034-8.916-7.039-13.401-12.603C-456.059,590.752-463.456,587.122-471.573,587.122L-471.573,587.122z"/>
</g>
<g>
	<path fill="#FFFFFF" d="M-210.4,757.279c0.066,0,0.133,0,0.201,0.002c31.561,0.568,58.158,11.581,77.725,37.155
		c4.108,5.37,2.867,12.696-2.359,16.696c-2.246,1.718-4.861,2.582-7.454,2.582c-3.438,0-6.837-1.518-9.292-4.578
		c-7.731-9.633-16.927-17.201-28.425-21.887c-10.167-4.145-20.761-5.883-31.686-5.883c-0.034,0-0.067,0-0.101,0
		c-1.358,0.001-2.718,0.001-4.281,0.001c1.513-7.603,3.188-14.896,3.593-22.381C-212.399,757.502-211.552,757.279-210.4,757.279
		 M-210.4,742.279c-9.38,0-16.554,6.682-17.058,15.888c-0.287,5.296-1.431,10.926-2.643,16.886
		c-0.229,1.124-0.458,2.252-0.684,3.388l-3.567,17.927h18.279l4.292-0.001h0.09c9.632,0,18.145,1.562,26.024,4.773
		c8.435,3.438,15.758,9.124,22.389,17.385c5.196,6.476,12.847,10.189,20.991,10.189c5.99,0,11.719-1.96,16.566-5.668
		c5.665-4.335,9.357-10.558,10.402-17.525c1.079-7.197-0.783-14.371-5.242-20.199c-21.327-27.875-51.394-42.354-89.368-43.039
		C-210.085,742.281-210.243,742.279-210.4,742.279L-210.4,742.279z"/>
</g>
<g>
	<path fill="#FFFFFF" d="M-340.204,627.994c0.401,0,0.871,0.071,1.423,0.217c0.592,0.155,1.243,0.085,1.866,0.119
		c0.005-0.045,0.011-0.09,0.017-0.136c2.476,0.304,4.959,0.561,7.427,0.921c6.729,0.985,11.038,6.425,10.502,13.193
		c-0.483,6.105-5.702,10.819-12.07,10.819c-0.168,0-0.338-0.003-0.508-0.01c-4.11-0.161-8.206-0.729-12.317-0.869
		c-2.3-0.078-2.229-1.018-1.869-2.829c1.188-5.993,2.401-11.999,3.144-18.055C-342.321,629.171-341.831,627.994-340.204,627.994
		 M-349.881,611.489l-0.625,4.879c-3.446,2.586-6.191,6.809-6.973,13.167c-0.643,5.245-1.697,10.557-2.813,16.18l-0.156,0.786
		c-1.125,5.673-0.111,10.549,3.015,14.491c2.158,2.721,6.175,6.013,13.058,6.247c1.708,0.058,3.558,0.22,5.517,0.392
		c2.143,0.188,4.358,0.382,6.722,0.474c0.368,0.015,0.732,0.021,1.096,0.021c6.783,0,13.27-2.473,18.267-6.963
		c5.107-4.589,8.217-10.865,8.756-17.673c0.561-7.075-1.477-13.923-5.738-19.283c-4.273-5.376-10.504-8.904-17.544-9.936
		c-1.918-0.28-3.761-0.495-5.542-0.703c-0.744-0.087-1.488-0.174-2.231-0.265L-349.881,611.489L-349.881,611.489z"/>
</g>
<g>
	<path fill="#FFFFFF" d="M-448.722,770.899c0.04,0,0.079,0,0.119,0c6.95,0.068,12.573,5.764,12.556,12.719
		c-0.018,6.896-5.761,12.646-12.653,12.67c-0.014,0-0.028,0-0.042,0c-6.858,0-12.674-5.729-12.75-12.575
		C-461.571,776.726-455.749,770.899-448.722,770.899 M-448.713,755.899h-0.008h-0.018c-7.445,0-14.46,2.941-19.739,8.28
		c-5.25,5.31-8.097,12.306-8.015,19.701c0.168,15.113,12.616,27.409,27.749,27.409h0.022h0.065
		c15.188-0.054,27.569-12.449,27.608-27.632c0.038-15.156-12.257-27.607-27.408-27.756L-448.713,755.899L-448.713,755.899z"/>
</g>
<g>
	<path fill="#FFFFFF" d="M-180.427,639.443c3.252,0,6.525,1.336,9.065,4.012c11.146,11.729,19.354,25.305,24.977,40.454
		c0.469,1.262,0.6,2.649,0.701,3.126c0.037,6.998-4.002,11.864-10.078,13.038c-0.696,0.135-1.401,0.2-2.104,0.2
		c-4.734,0-9.423-2.953-11.155-7.628c-4.564-12.336-11.366-23.221-20.212-32.933c-4.717-5.178-4.238-12.612,0.722-17.105
		C-186.187,640.498-183.316,639.443-180.427,639.443 M-180.427,624.443L-180.427,624.443h-0.002c-6.696,0-13.146,2.504-18.159,7.051
		c-5.392,4.884-8.553,11.527-8.897,18.7c-0.346,7.202,2.198,14.169,7.162,19.619c7.773,8.534,13.41,17.705,17.233,28.036
		c3.861,10.424,13.997,17.423,25.223,17.423c1.664,0,3.33-0.159,4.953-0.473c13.37-2.583,22.304-13.773,22.23-27.845l-0.008-1.54
		l-0.259-1.217c-0.163-1.043-0.5-3.165-1.373-5.513c-6.433-17.335-15.91-32.667-28.164-45.563
		C-165.803,627.527-172.885,624.443-180.427,624.443L-180.427,624.443z"/>
</g>
<g>
	<path fill="#FFFFFF" d="M-177.366,531.403c0.05,0,0.1,0,0.149,0.001c7.005,0.077,12.621,5.729,12.581,12.665
		c-0.04,6.957-5.678,12.518-12.705,12.531c-0.01,0-0.02,0-0.03,0c-7.032,0-12.643-5.502-12.708-12.468
		C-190.146,537.064-184.475,531.403-177.366,531.403 M-177.366,516.403c-7.496,0-14.508,2.912-19.745,8.198
		c-5.208,5.258-8.038,12.245-7.968,19.673c0.069,7.375,2.995,14.27,8.237,19.412c5.202,5.103,12.117,7.914,19.471,7.914h0.032h0.062
		c15.139-0.029,27.555-12.341,27.641-27.445c0.087-15.134-12.211-27.583-27.416-27.75L-177.366,516.403L-177.366,516.403z"/>
</g>
</svg>
