<?xml version="1.0" encoding="utf-8"?>
<!-- Generator: Adobe Illustrator 16.0.0, SVG Export Plug-In . SVG Version: 6.00 Build 0)  -->
<!DOCTYPE svg PUBLIC "-//W3C//DTD SVG 1.1//EN" "http://www.w3.org/Graphics/SVG/1.1/DTD/svg11.dtd">
<svg version="1.1" id="Capa_1" xmlns="http://www.w3.org/2000/svg" xmlns:xlink="http://www.w3.org/1999/xlink" x="0px" y="0px"
	 width="720px" height="1600px" viewBox="0 0 720 1600" enable-background="new 0 0 720 1600" xml:space="preserve">
<g>
	<path fill="#FFFFFF" d="M-80.262,550.678c2.537,0,3.042,0.516,3.036,3.072c-0.1,44.244-0.072,88.488-0.072,132.733
		c-1.763,0.326-3.532,0.413-5.304,0.413c-2.003,0-4.01-0.111-6.011-0.111c-0.08,0-0.159,0-0.238,0
		c-7.172,0.03-14.345,0.052-21.517,0.052c-7.441,0-14.881-0.024-22.322-0.088c-0.039,0-0.078,0-0.117,0
		c-2.53,0-3.27,0.736-3.198,3.322c0.184,6.613,0.187,13.239,0.023,19.855c-0.224,9.14-6.682,16.192-15.294,16.988
		c-0.512,0.047-1.024,0.071-1.531,0.071c-7.771,0-14.844-5.445-16.453-13.204c-0.917-4.417-0.278-8.968-0.359-13.457
		c-0.063-3.497-0.2-7.007,0.049-10.486c0.186-2.592-0.832-3.072-3.111-3.072c-0.025,0-0.051,0-0.077,0
		c-5.911,0.028-11.825,0.032-17.735,0.032c-2.823,0-5.645-0.001-8.468-0.001c-8.376,0-16.751,0.009-25.127,0.08
		c-0.072,0-0.144,0.001-0.213,0.001c-3.062,0-4.241-0.61-4.189-4.172c0.23-15.858,0.154-31.723,0.043-47.584
		c-0.017-2.388,0.523-3.365,2.748-3.365c0.172,0,0.354,0.006,0.547,0.018c1.689,0.1,3.383,0.132,5.078,0.132
		c2.177,0,4.357-0.053,6.533-0.084c9.618-0.14,16.872-7.057,17.074-16.229c0.208-9.479-6.626-16.853-16.353-17.388
		c-1.914-0.105-3.833-0.139-5.752-0.139c-2.453,0-4.907,0.055-7.359,0.084c-0.075,0.001-0.149,0.001-0.222,0.001
		c-1.435,0-2.29-0.221-2.278-2.142c0.09-14.863,0.067-29.725,0.098-44.587c0-0.225,0.199-0.45,0.307-0.674
		c16.408,0,32.816,0.003,49.224,0.003c32.836,0,65.67-0.011,98.506-0.076C-80.286,550.678-80.274,550.678-80.262,550.678
		 M-80.262,535.678h-0.018h-0.037c-33.648,0.067-67.22,0.076-98.488,0.076l-24.611-0.001l-24.613-0.001h-9.435l-3.868,8.051
		c-1.332,2.411-2.004,4.97-2.004,7.623c-0.01,4.721-0.014,9.472-0.018,14.224c-0.009,9.928-0.019,20.194-0.079,30.272
		c-0.036,6.153,2.608,10.111,4.833,12.348c3.223,3.241,7.41,4.885,12.445,4.885c0.134,0,0.27-0.001,0.409-0.002
		c0.781-0.01,1.569-0.021,2.357-0.034c1.67-0.025,3.248-0.05,4.814-0.05c1.921,0,3.487,0.037,4.927,0.117
		c2.053,0.113,2.203,1.133,2.182,2.081c-0.022,1.012-0.794,1.537-2.295,1.559c-0.646,0.009-1.295,0.021-1.943,0.032
		c-1.521,0.026-2.958,0.051-4.372,0.051c-1.638,0-2.969-0.034-4.191-0.106c-0.481-0.029-0.966-0.044-1.434-0.044
		c-6.363,0-10.426,2.747-12.713,5.051c-3.38,3.404-5.074,7.92-5.034,13.422c0.106,15.142,0.19,31.267-0.042,47.258
		c-0.085,5.788,1.646,10.525,5.144,14.076c5.236,5.313,11.865,5.313,14.043,5.313l0.336-0.001c8.651-0.074,17.443-0.08,25.005-0.08
		l4.231,0l4.237,0c1.917,0,3.882,0,5.877-0.002c-0.01,0.727-0.036,1.506-0.062,2.313c-0.115,3.542-0.259,7.952,0.731,12.722
		c3.022,14.574,16.119,25.154,31.14,25.154c0.969,0,1.949-0.045,2.913-0.134c16.339-1.51,28.498-14.782,28.908-31.558
		c0.07-2.828,0.109-5.657,0.12-8.473c3.354,0.011,6.842,0.017,10.498,0.017c6.247,0,12.902-0.016,21.579-0.052l0.176,0
		c0.793,0,1.667,0.024,2.59,0.049c1.087,0.03,2.212,0.062,3.421,0.062c3.037,0,5.589-0.211,8.035-0.664l12.27-2.271v-12.478
		l-0.002-23.523c-0.004-35.786-0.008-72.791,0.074-109.176c0.004-2.015,0.019-8.147-4.951-13.128
		C-72.144,535.678-78.254,535.678-80.262,535.678L-80.262,535.678z"/>
</g>
<g>
	<path fill="#FFFFFF" d="M-255.25,787.293c3.386,0,4.07,1.185,3.94,4.386c-0.25,6.111-0.118,12.241-0.06,18.362
		c0.094,9.988,7.223,17.388,16.701,17.417c0.019,0,0.038,0,0.056,0c9.417,0,16.683-7.343,16.891-17.274
		c0.133-6.367,0.158-12.745-0.034-19.11c-0.083-2.739,0.469-3.766,3.419-3.766c0.056,0,0.112,0,0.169,0.001
		c7.263,0.092,14.529,0.133,21.794,0.133c7.479,0,14.955-0.044,22.433-0.122c0.06,0,0.118-0.001,0.175-0.001
		c2.647,0,3.3,0.697,3.294,3.455c-0.097,47.976-0.066,95.95-0.065,143.927c-45.494,0.001-90.988,0.001-136.483,0.001
		c0.122-0.974,0.348-1.948,0.349-2.923c0.022-16.241-0.046-32.484,0.079-48.726c0.021-2.526-0.614-3.299-3.016-3.299
		c-0.088,0-0.179,0.001-0.272,0.003c-4.083,0.09-8.169,0.138-12.255,0.138c-3.786,0-7.571-0.041-11.354-0.13
		c-7.044-0.164-12.375-4.972-13.2-11.466c-0.796-6.269,3.092-12.193,9.21-14.166c1.593-0.514,3.198-0.503,4.814-0.508
		c4.168-0.011,8.34-0.068,12.509-0.068c3.077,0,6.152,0.031,9.227,0.135c0.2,0.007,0.392,0.011,0.575,0.011
		c2.86,0,3.825-0.866,3.791-4.215c-0.195-19.362,0-38.729-0.18-58.094c-0.03-3.281,0.835-4.086,3.895-4.086
		c0.082,0,0.165,0.001,0.25,0.002c7.306,0.096,14.615,0.151,21.923,0.151c7.061,0,14.119-0.051,21.178-0.167
		C-255.414,787.293-255.331,787.293-255.25,787.293 M-255.25,772.293c-0.16,0-0.323,0.001-0.489,0.004
		c-6.691,0.109-13.734,0.165-20.936,0.165c-6.952,0-14.059-0.049-21.726-0.149c-0.152-0.002-0.301-0.003-0.447-0.003
		c-5.677,0-10.303,1.764-13.75,5.243c-3.467,3.5-5.198,8.204-5.145,13.982c0.087,9.414,0.085,19.021,0.083,28.312
		c-0.001,6.145-0.002,12.421,0.022,18.714c-1.857,0.006-3.714,0.02-5.571,0.033c-1.833,0.015-3.666,0.028-5.498,0.033h-0.14
		c-2.177,0.007-5.466,0.016-9.238,1.231c-12.991,4.188-21.186,16.945-19.486,30.332c1.767,13.905,13.429,24.239,27.731,24.572
		c3.801,0.089,7.739,0.134,11.703,0.134c0.161,0,0.321,0,0.482,0c-0.021,7.167-0.018,14.319-0.015,21.317
		c0.002,5.015,0.004,10.03-0.002,15.045c-0.009,0.057-0.019,0.113-0.027,0.171c-0.075,0.469-0.146,0.938-0.205,1.407l-2.115,16.866
		h16.998l136.484-0.001h15l0-15l-0.002-27.022c-0.005-38.309-0.011-77.921,0.068-116.874c0.011-5.524-1.692-10.038-5.062-13.416
		c-3.357-3.364-7.809-5.07-13.232-5.07l-0.339,0.002c-7.699,0.08-15.194,0.121-22.269,0.121c-7.407,0-14.676-0.044-21.604-0.132
		l-0.359-0.002c-5.554,0-10.103,1.785-13.519,5.307c-3.418,3.523-5.065,8.203-4.893,13.91c0.165,5.446,0.174,11.446,0.031,18.347
		c-0.036,1.716-0.673,2.587-1.895,2.587c-1.734-0.005-1.752-1.927-1.758-2.558c-0.01-0.997-0.021-1.991-0.033-2.985
		c-0.058-5.085-0.113-9.887,0.08-14.623c0.091-2.231,0.365-9.005-4.919-14.507C-244.741,774.141-249.454,772.293-255.25,772.293
		L-255.25,772.293z"/>
</g>
<g>
	<path fill="#FFFFFF" d="M-328.865,639.91c3.085,0,3.835,0.745,3.794,3.848c-0.188,14.369,0.071,28.744-0.188,43.109
		c-0.061,3.465,0.898,4.408,3.748,4.408c0.26,0,0.537-0.008,0.829-0.022c2.618-0.131,5.241-0.171,7.865-0.171
		c3.375,0,6.752,0.067,10.126,0.098c10.165,0.095,17.691,7.346,17.654,16.937c-0.037,9.616-7.518,16.647-17.811,16.7
		c-3.54,0.018-7.082,0.079-10.622,0.079c-2.708,0-5.416-0.036-8.12-0.155c-0.169-0.007-0.33-0.011-0.484-0.011
		c-2.692,0-3.166,1.142-3.143,3.796c0.129,14.494-0.027,28.991,0.13,43.485c0.033,2.982-0.443,4.241-3.542,4.241
		c-0.153,0-0.311-0.003-0.477-0.009c-3.937-0.143-7.88-0.199-11.823-0.199c-4.431,0-8.861,0.071-13.289,0.168
		c-0.105,0.002-0.208,0.003-0.307,0.003c-2.537,0-3.212-0.788-3.225-3.519c-0.084-17.169-9.829-30.55-25.384-35.251
		c-3.435-1.038-6.871-1.528-10.226-1.529c-18.59-0.001-34.782,15.049-35.484,35.434c-0.164,4.795-0.165,4.728-5.104,4.811
		c-1.15,0.019-2.301,0.027-3.451,0.027c-4.198,0-8.398-0.101-12.596-0.101c-3.755,0-7.507,0.081-11.258,0.385
		c0.001-45.495,0.001-90.988,0.001-136.482c17.379,0,34.766,0.006,52.146,0.006c26.733,0,53.458-0.014,80.191-0.085
		C-328.897,639.91-328.881,639.91-328.865,639.91 M-328.865,624.91h-0.027h-0.076c-28.166,0.075-56.316,0.085-80.137,0.085
		l-26.07-0.003l-26.075-0.003h-15v15l-0.001,136.482l0,16.27l16.216-1.318c2.859-0.232,5.956-0.336,10.043-0.336
		c2.009,0,4.005,0.024,6.118,0.049c2.109,0.025,4.289,0.051,6.478,0.051c1.234,0,2.469-0.008,3.702-0.029l0.201-0.003
		c3.796-0.063,9.533-0.159,14.417-4.945c4.9-4.803,5.097-10.546,5.227-14.347c0.405-11.745,9.406-20.947,20.492-20.947
		c1.959,0,3.939,0.299,5.888,0.887c9.305,2.813,14.672,10.454,14.723,20.966c0.053,11.033,7.377,18.446,18.225,18.446
		c0.208,0,0.423-0.002,0.643-0.007c5.1-0.112,9.218-0.164,12.954-0.164c4.086,0,7.775,0.062,11.279,0.189
		c0.353,0.013,0.693,0.019,1.021,0.019c6.815,0,11.06-2.845,13.42-5.231c5.218-5.275,5.145-11.973,5.121-14.174
		c-0.082-7.504-0.078-15.179-0.074-22.602c0.001-3.083,0.003-6.214-0.001-9.364c1.016-0.008,2.033-0.018,3.049-0.028
		c1.447-0.015,2.894-0.03,4.341-0.037c18.594-0.096,32.666-13.699,32.735-31.643c0.034-8.785-3.379-16.919-9.61-22.905
		c-6.017-5.779-14.151-9.007-22.904-9.089c-1.172-0.011-2.342-0.026-3.512-0.041c-1.338-0.017-2.705-0.035-4.084-0.046
		c0.017-4.167,0.012-8.304,0.006-12.367c-0.009-6.499-0.018-13.218,0.068-19.772c0.028-2.125,0.113-8.592-5.046-13.819
		C-320.274,624.91-326.74,624.91-328.865,624.91L-328.865,624.91z"/>
</g>
<g>
	<path fill="#FFFFFF" d="M-393.223,758.45c5.752,0,11.013,3.924,12.642,9.661c0.626,2.206,0.396,4.466,0.405,6.703
		c0.03,6.87,0.146,13.744-0.055,20.609c-0.078,2.674,0.803,3.274,3.265,3.274c0.036,0,0.073,0,0.11,0
		c6.04-0.042,12.081-0.048,18.121-0.048c2.504,0,5.01,0.001,7.514,0.001c7.32,0,14.638-0.009,21.958-0.079
		c0.082-0.001,0.163-0.001,0.242-0.001c2.943,0,4.092,0.578,3.965,3.997c-0.306,8.232-0.243,16.489-0.022,24.729
		c0.083,3.105-0.784,3.894-3.899,3.906c-21.135,0.094-36.847,16.185-36.251,36.874c0.54,18.789,15.984,33.707,35.729,34.126
		c3.575,0.075,4.619,0.833,4.433,4.474c-0.479,9.329,0.365,18.692-0.451,28.026c-15.928,0-31.861-0.004-47.788-0.004
		c-28.317,0-56.627,0.012-84.944,0.076c-0.014,0-0.029,0-0.043,0c-2.531,0-3.035-0.52-3.029-3.072
		c0.101-44.244,0.073-88.488,0.073-132.733c2.23-0.326,4.466-0.413,6.704-0.413c2.567,0,5.137,0.114,7.702,0.114
		c0.175,0,0.348,0,0.523-0.001c5.942-0.04,11.886-0.065,17.828-0.065c6.3,0,12.598,0.029,18.896,0.1c0.05,0,0.1,0.001,0.148,0.001
		c2.523,0,3.209-0.78,3.156-3.336c-0.166-7.865-0.174-15.74-0.021-23.607c0.137-7.005,4.918-12.349,11.446-13.204
		C-394.317,758.485-393.767,758.45-393.223,758.45 M-393.223,743.45c-1.196,0-2.404,0.079-3.591,0.234
		c-13.916,1.824-24.217,13.508-24.496,27.784c-0.079,4.024-0.116,8.083-0.112,12.148c-2.292-0.008-4.644-0.013-7.071-0.013
		c-5.438,0-11.302,0.021-17.927,0.065l-0.424,0.001c-1.115,0-2.281-0.026-3.515-0.053c-1.345-0.03-2.736-0.061-4.187-0.061
		c-3.389,0-6.208,0.181-8.871,0.57L-476.25,786v12.969l0.002,23.357c0.004,35.84,0.008,72.9-0.075,109.342
		c-0.004,2.016-0.019,8.148,4.951,13.129c4.966,4.978,11.072,4.978,13.078,4.978h0.031h0.074
		c29.325-0.066,58.129-0.076,84.883-0.076l23.892,0.002l23.896,0.002h13.745l1.198-13.693c0.519-5.935,0.454-11.603,0.391-17.084
		c-0.046-4.019-0.09-7.815,0.098-11.48c0.303-5.913-1.285-10.781-4.718-14.473c-5.185-5.573-12.105-5.719-14.38-5.767
		c-11.687-0.248-20.738-8.656-21.051-19.56c-0.168-5.852,1.818-11.223,5.594-15.126c3.914-4.047,9.5-6.29,15.729-6.317
		c5.77-0.023,10.442-1.835,13.882-5.382c3.434-3.542,5.098-8.227,4.946-13.925c-0.248-9.235-0.242-16.788,0.018-23.771
		c0.214-5.78-1.441-10.54-4.918-14.148c-5.209-5.406-11.854-5.406-14.037-5.406l-0.393,0.002c-7.54,0.072-15.21,0.078-21.807,0.078
		l-3.754,0l-3.76,0c-2.231,0-4.346,0.001-6.387,0.003c-0.006-1.535-0.017-3.059-0.028-4.569c-0.01-1.445-0.02-2.891-0.026-4.335
		c-0.001-0.365,0.007-0.737,0.014-1.11c0.044-2.289,0.11-5.747-0.989-9.622C-369.588,751.907-380.72,743.45-393.223,743.45
		L-393.223,743.45z"/>
</g>
</svg>
